{
.appVersion = "1354";
classes = (
{
automatic = 1;

glyphs = (
{
glyphname = A;
layers = (
{
anchors = (
{
name = bottom;
position = "{279, 0}";
},
{
name = ogonek;
position = "{554, 0}";
},
{
name = top;
position = "{352, 700}";
}
);
guideLines = (
{
position = "{467, 1016}";
},
{
position = "{536, 974}";
},
{
position = "{533, 731}";
},
{
position = "{587, 764}";
}
);
layerId = master01;
paths = (
{
closed = 1;
nodes = (
"33 -2 LINE SMOOTH",
"53 -2 OFFCURVE",
"69 2 OFFCURVE",
"74 14 CURVE SMOOTH",
"148 178 LINE",
"442 178 LINE",
"484 14 LINE SMOOTH",
"487 2 OFFCURVE",
"503 -2 OFFCURVE",
"523 -2 CURVE SMOOTH",
"531 -2 LINE SMOOTH",
"565 -2 OFFCURVE",
"575 7 OFFCURVE",
"575 18 CURVE SMOOTH",
"575 21 OFFCURVE",
"575 24 OFFCURVE",
"574 28 CURVE SMOOTH",
"406 686 LINE SMOOTH",
"403 698 OFFCURVE",
"387 702 OFFCURVE",
"367 702 CURVE SMOOTH",
"338 702 LINE SMOOTH",
"317 702 OFFCURVE",
"302 698 OFFCURVE",
"297 686 CURVE SMOOTH",
"-8 29 LINE SMOOTH",
"-11 23 OFFCURVE",
"-13 18 OFFCURVE",
"-13 14 CURVE SMOOTH",
"-13 3 OFFCURVE",
"0 -2 OFFCURVE",
"28 -2 CURVE SMOOTH"
);
},
{
closed = 1;
nodes = (
"321 552 LINE SMOOTH",
"329 570 OFFCURVE",
"336 591 OFFCURVE",
"342 610 CURVE",
"344 610 LINE",
"344 591 OFFCURVE",
"345 571 OFFCURVE",
"350 552 CURVE SMOOTH",
"423 254 LINE",
"184 254 LINE"
);
}
);
width = 613;
},
{
anchors = (
{
name = bottom;
position = "{279, 0}";
},
{
name = ogonek;
position = "{563, 0}";
},
{
name = top;
position = "{352, 700}";
}
);
background = {
paths = (
{
closed = 1;
nodes = (
"326 702 LINE SMOOTH",
"297 702 OFFCURVE",
"274 697 OFFCURVE",
"267 681 CURVE SMOOTH",
"-24 38 LINE SMOOTH",
"-28 30 OFFCURVE",
"-30 24 OFFCURVE",
"-30 18 CURVE SMOOTH",
"-30 5 OFFCURVE",
"-11 -2 OFFCURVE",
"28 -2 CURVE SMOOTH",
"68 -2 LINE SMOOTH",
"92 -2 OFFCURVE",
"109 4 OFFCURVE",
"116 19 CURVE SMOOTH",
"171 141 LINE",
"413 141 LINE",
"442 19 LINE SMOOTH",
"446 3 OFFCURVE",
"466 -2 OFFCURVE",
"496 -2 CURVE SMOOTH",
"540 -2 LINE SMOOTH",
"575 -2 OFFCURVE",
"594 7 OFFCURVE",
"594 21 CURVE SMOOTH",
"594 24 OFFCURVE",
"592 35 OFFCURVE",
"591 38 CURVE SMOOTH",
"433 681 LINE SMOOTH",
"429 697 OFFCURVE",
"407 702 OFFCURVE",
"378 702 CURVE SMOOTH"
);
},
{
closed = 1;
nodes = (
"335 494 OFFCURVE",
"337 472 OFFCURVE",
"342 451 CURVE SMOOTH",
"382 273 LINE",
"228 273 LINE",
"308 451 LINE SMOOTH",
"317 471 OFFCURVE",
"324 494 OFFCURVE",
"330 515 CURVE",
"334 515 LINE"
);
}
);
};
layerId = "1564F15A-2B4C-4FFD-AA43-969DC22C29FF";
paths = (
{
closed = 1;
nodes = (
"73 -2 LINE SMOOTH",
"97 -2 OFFCURVE",
"114 4 OFFCURVE",
"121 19 CURVE SMOOTH",
"176 141 LINE",
"407 141 LINE",
"436 19 LINE SMOOTH",
"440 3 OFFCURVE",
"460 -2 OFFCURVE",
"490 -2 CURVE SMOOTH",
"534 -2 LINE SMOOTH",
"569 -2 OFFCURVE",
"588 7 OFFCURVE",
"588 21 CURVE SMOOTH",
"588 24 OFFCURVE",
"586 35 OFFCURVE",
"585 38 CURVE",
"433 681 LINE SMOOTH",
"429 697 OFFCURVE",
"407 702 OFFCURVE",
"378 702 CURVE SMOOTH",
"326 702 LINE SMOOTH",
"297 702 OFFCURVE",
"274 697 OFFCURVE",
"267 681 CURVE SMOOTH",
"-19 38 LINE",
"-23 30 OFFCURVE",
"-25 24 OFFCURVE",
"-25 18 CURVE SMOOTH",
"-25 5 OFFCURVE",
"-6 -2 OFFCURVE",
"33 -2 CURVE SMOOTH"
);
},
{
closed = 1;
nodes = (
"308 451 LINE SMOOTH",
"317 471 OFFCURVE",
"324 494 OFFCURVE",
"330 515 CURVE",
"334 515 LINE",
"335 494 OFFCURVE",
"337 472 OFFCURVE",
"342 451 CURVE",
"377 273 LINE",
"232 273 LINE"
);
}
);
width = 613;
}
);
leftKerningGroup = A;
rightKerningGroup = A;
unicode = 0041;
},
{
glyphname = Aacute;
layers = (
{
anchors = (
{
name = bottom;
position = "{279, 0}";
},
{
name = ogonek;
position = "{554, 0}";
},
{
name = top;
position = "{368, 852}";
}
);
layerId = master01;
paths = (
{
closed = 1;
nodes = (
"33 -2 LINE SMOOTH",
"53 -2 OFFCURVE",
"69 2 OFFCURVE",
"74 14 CURVE SMOOTH",
"148 178 LINE",
"442 178 LINE",
"484 14 LINE SMOOTH",
"487 2 OFFCURVE",
"503 -2 OFFCURVE",
"523 -2 CURVE SMOOTH",
"531 -2 LINE SMOOTH",
"565 -2 OFFCURVE",
"575 7 OFFCURVE",
"575 18 CURVE SMOOTH",
"575 21 OFFCURVE",
"575 24 OFFCURVE",
"574 28 CURVE SMOOTH",
"406 686 LINE SMOOTH",
"403 698 OFFCURVE",
"387 702 OFFCURVE",
"367 702 CURVE SMOOTH",
"338 702 LINE SMOOTH",
"317 702 OFFCURVE",
"302 698 OFFCURVE",
"297 686 CURVE SMOOTH",
"-8 29 LINE SMOOTH",
"-11 23 OFFCURVE",
"-13 18 OFFCURVE",
"-13 14 CURVE SMOOTH",
"-13 3 OFFCURVE",
"0 -2 OFFCURVE",
"28 -2 CURVE SMOOTH"
);
},
{
closed = 1;
nodes = (
"321 552 LINE SMOOTH",
"329 570 OFFCURVE",
"336 591 OFFCURVE",
"342 610 CURVE",
"344 610 LINE",
"344 591 OFFCURVE",
"345 571 OFFCURVE",
"350 552 CURVE SMOOTH",
"423 254 LINE",
"184 254 LINE"
);
},
{
closed = 1;
nodes = (
"331 752 OFFCURVE",
"343 756 OFFCURVE",
"373 773 CURVE SMOOTH",
"430 806 LINE SMOOTH",
"465 826 OFFCURVE",
"475 835 OFFCURVE",
"475 847 CURVE SMOOTH",
"475 858 OFFCURVE",
"454 864 OFFCURVE",
"423 864 CURVE SMOOTH",
"382 864 OFFCURVE",
"364 859 OFFCURVE",
"345 841 CURVE SMOOTH",
"285 784 LINE SMOOTH",
"279 778 OFFCURVE",
"272 771 OFFCURVE",
"272 764 CURVE SMOOTH",
"272 757 OFFCURVE",
"281 752 OFFCURVE",
"297 752 CURVE SMOOTH"
);
}
);
width = 613;
},
{
anchors = (
{
name = bottom;
position = "{279, 0}";
},
{
name = ogonek;
position = "{563, 0}";
},
{
name = top;
position = "{369, 862}";
}
);
layerId = "1564F15A-2B4C-4FFD-AA43-969DC22C29FF";
paths = (
{
closed = 1;
nodes = (
"73 -2 LINE SMOOTH",
"97 -2 OFFCURVE",
"114 4 OFFCURVE",
"121 19 CURVE SMOOTH",
"176 141 LINE",
"407 141 LINE",
"436 19 LINE SMOOTH",
"440 3 OFFCURVE",
"460 -2 OFFCURVE",
"490 -2 CURVE SMOOTH",
"534 -2 LINE SMOOTH",
"569 -2 OFFCURVE",
"588 7 OFFCURVE",
"588 21 CURVE SMOOTH",
"588 24 OFFCURVE",
"586 35 OFFCURVE",
"585 38 CURVE",
"433 681 LINE SMOOTH",
"429 697 OFFCURVE",
"407 702 OFFCURVE",
"378 702 CURVE SMOOTH",
"326 702 LINE SMOOTH",
"297 702 OFFCURVE",
"274 697 OFFCURVE",
"267 681 CURVE SMOOTH",
"-19 38 LINE",
"-23 30 OFFCURVE",
"-25 24 OFFCURVE",
"-25 18 CURVE SMOOTH",
"-25 5 OFFCURVE",
"-6 -2 OFFCURVE",
"33 -2 CURVE SMOOTH"
);
},
{
closed = 1;
nodes = (
"308 451 LINE SMOOTH",
"317 471 OFFCURVE",
"324 494 OFFCURVE",
"330 515 CURVE",
"334 515 LINE",
"335 494 OFFCURVE",
"337 472 OFFCURVE",
"342 451 CURVE",
"377 273 LINE",
"232 273 LINE"
);
},
{
closed = 1;
nodes = (
"332 749 OFFCURVE",
"347 754 OFFCURVE",
"370 768 CURVE SMOOTH",
"462 824 LINE SMOOTH",
"485 838 OFFCURVE",
"495 850 OFFCURVE",
"495 858 CURVE SMOOTH",
"495 872 OFFCURVE",
"472 875 OFFCURVE",
"426 875 CURVE SMOOTH",
"380 875 OFFCURVE",
"360 868 OFFCURVE",
"337 845 CURVE SMOOTH",
"276 785 LINE SMOOTH",
"266 775 OFFCURVE",
"261 767 OFFCURVE",
"261 761 CURVE SMOOTH",
"261 753 OFFCURVE",
"272 749 OFFCURVE",
"298 749 CURVE SMOOTH"
);
}
);
width = 613;
}
);
leftKerningGroup = A;
rightKerningGroup = A;
unicode = 00C1;
},
{
glyphname = Abreve;
layers = (
{
anchors = (
{
name = bottom;
position = "{279, 0}";
},
{
name = ogonek;
position = "{554, 0}";
},
{
name = top;
position = "{365, 832}";
}
);
layerId = master01;
paths = (
{
closed = 1;
nodes = (
"33 -2 LINE SMOOTH",
"53 -2 OFFCURVE",
"69 2 OFFCURVE",
"74 14 CURVE SMOOTH",
"148 178 LINE",
"442 178 LINE",
"484 14 LINE SMOOTH",
"487 2 OFFCURVE",
"503 -2 OFFCURVE",
"523 -2 CURVE SMOOTH",
"531 -2 LINE SMOOTH",
"565 -2 OFFCURVE",
"575 7 OFFCURVE",
"575 18 CURVE SMOOTH",
"575 21 OFFCURVE",
"575 24 OFFCURVE",
"574 28 CURVE SMOOTH",
"406 686 LINE SMOOTH",
"403 698 OFFCURVE",
"387 702 OFFCURVE",
"367 702 CURVE SMOOTH",
"338 702 LINE SMOOTH",
"317 702 OFFCURVE",
"302 698 OFFCURVE",
"297 686 CURVE SMOOTH",
"-8 29 LINE SMOOTH",
"-11 23 OFFCURVE",
"-13 18 OFFCURVE",
"-13 14 CURVE SMOOTH",
"-13 3 OFFCURVE",
"0 -2 OFFCURVE",
"28 -2 CURVE SMOOTH"
);
},
{
closed = 1;
nodes = (
"321 552 LINE SMOOTH",
"329 570 OFFCURVE",
"336 591 OFFCURVE",
"342 610 CURVE",
"344 610 LINE",
"344 591 OFFCURVE",
"345 571 OFFCURVE",
"350 552 CURVE SMOOTH",
"423 254 LINE",
"184 254 LINE"
);
},
{
closed = 1;
nodes = (
"449 744 OFFCURVE",
"518 793 OFFCURVE",
"518 857 CURVE SMOOTH",
"518 870 OFFCURVE",
"513 874 OFFCURVE",
"502 874 CURVE SMOOTH",
"492 874 OFFCURVE",
"485 872 OFFCURVE",
"481 862 CURVE SMOOTH",
"470 837 OFFCURVE",
"445 810 OFFCURVE",
"363 810 CURVE SMOOTH",
"283 810 OFFCURVE",
"261 837 OFFCURVE",
"256 862 CURVE SMOOTH",
"254 872 OFFCURVE",
"248 874 OFFCURVE",
"238 874 CURVE SMOOTH",
"224 874 OFFCURVE",
"217 866 OFFCURVE",
"217 839 CURVE SMOOTH",
"217 778 OFFCURVE",
"281 744 OFFCURVE",
"356 744 CURVE SMOOTH"
);
}
);
width = 613;
},
{
anchors = (
{
name = bottom;
position = "{279, 0}";
},
{
name = ogonek;
position = "{563, 0}";
},
{
name = top;
position = "{366, 842}";
}
);
layerId = "1564F15A-2B4C-4FFD-AA43-969DC22C29FF";
paths = (
{
closed = 1;
nodes = (
"73 -2 LINE SMOOTH",
"97 -2 OFFCURVE",
"114 4 OFFCURVE",
"121 19 CURVE SMOOTH",
"176 141 LINE",
"407 141 LINE",
"436 19 LINE SMOOTH",
"440 3 OFFCURVE",
"460 -2 OFFCURVE",
"490 -2 CURVE SMOOTH",
"534 -2 LINE SMOOTH",
"569 -2 OFFCURVE",
"588 7 OFFCURVE",
"588 21 CURVE SMOOTH",
"588 24 OFFCURVE",
"586 35 OFFCURVE",
"585 38 CURVE",
"433 681 LINE SMOOTH",
"429 697 OFFCURVE",
"407 702 OFFCURVE",
"378 702 CURVE SMOOTH",
"326 702 LINE SMOOTH",
"297 702 OFFCURVE",
"274 697 OFFCURVE",
"267 681 CURVE SMOOTH",
"-19 38 LINE",
"-23 30 OFFCURVE",
"-25 24 OFFCURVE",
"-25 18 CURVE SMOOTH",
"-25 5 OFFCURVE",
"-6 -2 OFFCURVE",
"33 -2 CURVE SMOOTH"
);
},
{
closed = 1;
nodes = (
"308 451 LINE SMOOTH",
"317 471 OFFCURVE",
"324 494 OFFCURVE",
"330 515 CURVE",
"334 515 LINE",
"335 494 OFFCURVE",
"337 472 OFFCURVE",
"342 451 CURVE",
"377 273 LINE",
"232 273 LINE"
);
},
{
closed = 1;
nodes = (
"449 741 OFFCURVE",
"525 797 OFFCURVE",
"525 857 CURVE SMOOTH",
"525 872 OFFCURVE",
"513 881 OFFCURVE",
"492 881 CURVE SMOOTH",
"472 881 OFFCURVE",
"466 874 OFFCURVE",
"456 865 CURVE SMOOTH",
"442 853 OFFCURVE",
"418 832 OFFCURVE",
"375 832 CURVE SMOOTH",
"322 832 OFFCURVE",
"292 849 OFFCURVE",
"279 863 CURVE SMOOTH",
"271 873 OFFCURVE",
"267 881 OFFCURVE",
"248 881 CURVE SMOOTH",
"223 881 OFFCURVE",
"210 869 OFFCURVE",
"210 845 CURVE SMOOTH",
"210 791 OFFCURVE",
"271 741 OFFCURVE",
"366 741 CURVE SMOOTH"
);
}
);
width = 613;
}
);
leftKerningGroup = A;
rightKerningGroup = A;
unicode = 0102;
},
{
glyphname = Abreveacute;
layers = (
{
anchors = (
{
name = bottom;
position = "{279, 0}";
},
{
name = ogonek;
position = "{554, 0}";
},
{
name = top;
position = "{381, 984}";
}
);
layerId = master01;
paths = (
{
closed = 1;
nodes = (
"33 -2 LINE SMOOTH",
"53 -2 OFFCURVE",
"69 2 OFFCURVE",
"74 14 CURVE SMOOTH",
"148 178 LINE",
"442 178 LINE",
"484 14 LINE SMOOTH",
"487 2 OFFCURVE",
"503 -2 OFFCURVE",
"523 -2 CURVE SMOOTH",
"531 -2 LINE SMOOTH",
"565 -2 OFFCURVE",
"575 7 OFFCURVE",
"575 18 CURVE SMOOTH",
"575 21 OFFCURVE",
"575 24 OFFCURVE",
"574 28 CURVE SMOOTH",
"406 686 LINE SMOOTH",
"403 698 OFFCURVE",
"387 702 OFFCURVE",
"367 702 CURVE SMOOTH",
"338 702 LINE SMOOTH",
"317 702 OFFCURVE",
"302 698 OFFCURVE",
"297 686 CURVE SMOOTH",
"-8 29 LINE SMOOTH",
"-11 23 OFFCURVE",
"-13 18 OFFCURVE",
"-13 14 CURVE SMOOTH",
"-13 3 OFFCURVE",
"0 -2 OFFCURVE",
"28 -2 CURVE SMOOTH"
);
},
{
closed = 1;
nodes = (
"321 552 LINE SMOOTH",
"329 570 OFFCURVE",
"336 591 OFFCURVE",
"342 610 CURVE",
"344 610 LINE",
"344 591 OFFCURVE",
"345 571 OFFCURVE",
"350 552 CURVE SMOOTH",
"423 254 LINE",
"184 254 LINE"
);
},
{
closed = 1;
nodes = (
"449 744 OFFCURVE",
"518 793 OFFCURVE",
"518 857 CURVE SMOOTH",
"518 870 OFFCURVE",
"513 874 OFFCURVE",
"502 874 CURVE SMOOTH",
"492 874 OFFCURVE",
"485 872 OFFCURVE",
"481 862 CURVE SMOOTH",
"470 837 OFFCURVE",
"445 810 OFFCURVE",
"363 810 CURVE SMOOTH",
"283 810 OFFCURVE",
"261 837 OFFCURVE",
"256 862 CURVE SMOOTH",
"254 872 OFFCURVE",
"248 874 OFFCURVE",
"238 874 CURVE SMOOTH",
"224 874 OFFCURVE",
"217 866 OFFCURVE",
"217 839 CURVE SMOOTH",
"217 778 OFFCURVE",
"281 744 OFFCURVE",
"356 744 CURVE SMOOTH"
);
},
{
closed = 1;
nodes = (
"344 884 OFFCURVE",
"356 888 OFFCURVE",
"386 905 CURVE SMOOTH",
"443 938 LINE SMOOTH",
"478 958 OFFCURVE",
"488 967 OFFCURVE",
"488 979 CURVE SMOOTH",
"488 990 OFFCURVE",
"467 996 OFFCURVE",
"436 996 CURVE SMOOTH",
"395 996 OFFCURVE",
"377 991 OFFCURVE",
"358 973 CURVE SMOOTH",
"298 916 LINE SMOOTH",
"292 910 OFFCURVE",
"285 903 OFFCURVE",
"285 896 CURVE SMOOTH",
"285 889 OFFCURVE",
"294 884 OFFCURVE",
"310 884 CURVE SMOOTH"
);
}
);
width = 613;
},
{
anchors = (
{
name = bottom;
position = "{279, 0}";
},
{
name = ogonek;
position = "{563, 0}";
},
{
name = top;
position = "{383, 1004}";
}
);
layerId = "1564F15A-2B4C-4FFD-AA43-969DC22C29FF";
paths = (
{
closed = 1;
nodes = (
"73 -2 LINE SMOOTH",
"97 -2 OFFCURVE",
"114 4 OFFCURVE",
"121 19 CURVE SMOOTH",
"176 141 LINE",
"407 141 LINE",
"436 19 LINE SMOOTH",
"440 3 OFFCURVE",
"460 -2 OFFCURVE",
"490 -2 CURVE SMOOTH",
"534 -2 LINE SMOOTH",
"569 -2 OFFCURVE",
"588 7 OFFCURVE",
"588 21 CURVE SMOOTH",
"588 24 OFFCURVE",
"586 35 OFFCURVE",
"585 38 CURVE",
"433 681 LINE SMOOTH",
"429 697 OFFCURVE",
"407 702 OFFCURVE",
"378 702 CURVE SMOOTH",
"326 702 LINE SMOOTH",
"297 702 OFFCURVE",
"274 697 OFFCURVE",
"267 681 CURVE SMOOTH",
"-19 38 LINE",
"-23 30 OFFCURVE",
"-25 24 OFFCURVE",
"-25 18 CURVE SMOOTH",
"-25 5 OFFCURVE",
"-6 -2 OFFCURVE",
"33 -2 CURVE SMOOTH"
);
},
{
closed = 1;
nodes = (
"308 451 LINE SMOOTH",
"317 471 OFFCURVE",
"324 494 OFFCURVE",
"330 515 CURVE",
"334 515 LINE",
"335 494 OFFCURVE",
"337 472 OFFCURVE",
"342 451 CURVE",
"377 273 LINE",
"232 273 LINE"
);
},
{
closed = 1;
nodes = (
"449 741 OFFCURVE",
"525 797 OFFCURVE",
"525 857 CURVE SMOOTH",
"525 872 OFFCURVE",
"513 881 OFFCURVE",
"492 881 CURVE SMOOTH",
"472 881 OFFCURVE",
"466 874 OFFCURVE",
"456 865 CURVE SMOOTH",
"442 853 OFFCURVE",
"418 832 OFFCURVE",
"375 832 CURVE SMOOTH",
"322 832 OFFCURVE",
"292 849 OFFCURVE",
"279 863 CURVE SMOOTH",
"271 873 OFFCURVE",
"267 881 OFFCURVE",
"248 881 CURVE SMOOTH",
"223 881 OFFCURVE",
"210 869 OFFCURVE",
"210 845 CURVE SMOOTH",
"210 791 OFFCURVE",
"271 741 OFFCURVE",
"366 741 CURVE SMOOTH"
);
},
{
closed = 1;
nodes = (
"346 891 OFFCURVE",
"361 896 OFFCURVE",
"384 910 CURVE SMOOTH",
"476 966 LINE SMOOTH",
"499 980 OFFCURVE",
"509 992 OFFCURVE",
"509 1000 CURVE SMOOTH",
"509 1014 OFFCURVE",
"486 1017 OFFCURVE",
"440 1017 CURVE SMOOTH",
"394 1017 OFFCURVE",
"374 1010 OFFCURVE",
"351 987 CURVE SMOOTH",
"290 927 LINE SMOOTH",
"280 917 OFFCURVE",
"275 909 OFFCURVE",
"275 903 CURVE SMOOTH",
"275 895 OFFCURVE",
"286 891 OFFCURVE",
"312 891 CURVE SMOOTH"
);
}
);
width = 613;
}
);
leftKerningGroup = A;
note = "\012Corregir en acentos agudos el peso\012";
rightKerningGroup = A;
unicode = 1EAE;
},
{
glyphname = Abrevedotbelow;
layers = (
{
anchors = (
{
name = bottom;
position = "{263, -155}";
},
{
name = ogonek;
position = "{554, 0}";
},
{
name = top;
position = "{365, 832}";
}
);
layerId = master01;
paths = (
{
closed = 1;
nodes = (
"33 -2 LINE SMOOTH",
"53 -2 OFFCURVE",
"69 2 OFFCURVE",
"74 14 CURVE SMOOTH",
"148 178 LINE",
"442 178 LINE",
"484 14 LINE SMOOTH",
"487 2 OFFCURVE",
"503 -2 OFFCURVE",
"523 -2 CURVE SMOOTH",
"531 -2 LINE SMOOTH",
"565 -2 OFFCURVE",
"575 7 OFFCURVE",
"575 18 CURVE SMOOTH",
"575 21 OFFCURVE",
"575 24 OFFCURVE",
"574 28 CURVE SMOOTH",
"406 686 LINE SMOOTH",
"403 698 OFFCURVE",
"387 702 OFFCURVE",
"367 702 CURVE SMOOTH",
"338 702 LINE SMOOTH",
"317 702 OFFCURVE",
"302 698 OFFCURVE",
"297 686 CURVE SMOOTH",
"-8 29 LINE SMOOTH",
"-11 23 OFFCURVE",
"-13 18 OFFCURVE",
"-13 14 CURVE SMOOTH",
"-13 3 OFFCURVE",
"0 -2 OFFCURVE",
"28 -2 CURVE SMOOTH"
);
},
{
closed = 1;
nodes = (
"321 552 LINE SMOOTH",
"329 570 OFFCURVE",
"336 591 OFFCURVE",
"342 610 CURVE",
"344 610 LINE",
"344 591 OFFCURVE",
"345 571 OFFCURVE",
"350 552 CURVE SMOOTH",
"423 254 LINE",
"184 254 LINE"
);
},
{
closed = 1;
nodes = (
"294 -175 OFFCURVE",
"305 -166 OFFCURVE",
"306 -153 CURVE SMOOTH",
"311 -102 LINE SMOOTH",
"312 -92 OFFCURVE",
"308 -80 OFFCURVE",
"271 -80 CURVE SMOOTH",
"227 -80 OFFCURVE",
"225 -97 OFFCURVE",
"225 -102 CURVE SMOOTH",
"220 -153 LINE SMOOTH",
"219 -167 OFFCURVE",
"228 -175 OFFCURVE",
"261 -175 CURVE"
);
},
{
closed = 1;
nodes = (
"449 744 OFFCURVE",
"518 793 OFFCURVE",
"518 857 CURVE SMOOTH",
"518 870 OFFCURVE",
"513 874 OFFCURVE",
"502 874 CURVE SMOOTH",
"492 874 OFFCURVE",
"485 872 OFFCURVE",
"481 862 CURVE SMOOTH",
"470 837 OFFCURVE",
"445 810 OFFCURVE",
"363 810 CURVE SMOOTH",
"283 810 OFFCURVE",
"261 837 OFFCURVE",
"256 862 CURVE SMOOTH",
"254 872 OFFCURVE",
"248 874 OFFCURVE",
"238 874 CURVE SMOOTH",
"224 874 OFFCURVE",
"217 866 OFFCURVE",
"217 839 CURVE SMOOTH",
"217 778 OFFCURVE",
"281 744 OFFCURVE",
"356 744 CURVE SMOOTH"
);
}
);
width = 613;
},
{
anchors = (
{
name = bottom;
position = "{260, -185}";
},
{
name = ogonek;
position = "{563, 0}";
},
{
name = top;
position = "{366, 842}";
}
);
layerId = "1564F15A-2B4C-4FFD-AA43-969DC22C29FF";
paths = (
{
closed = 1;
nodes = (
"73 -2 LINE SMOOTH",
"97 -2 OFFCURVE",
"114 4 OFFCURVE",
"121 19 CURVE SMOOTH",
"176 141 LINE",
"407 141 LINE",
"436 19 LINE SMOOTH",
"440 3 OFFCURVE",
"460 -2 OFFCURVE",
"490 -2 CURVE SMOOTH",
"534 -2 LINE SMOOTH",
"569 -2 OFFCURVE",
"588 7 OFFCURVE",
"588 21 CURVE SMOOTH",
"588 24 OFFCURVE",
"586 35 OFFCURVE",
"585 38 CURVE",
"433 681 LINE SMOOTH",
"429 697 OFFCURVE",
"407 702 OFFCURVE",
"378 702 CURVE SMOOTH",
"326 702 LINE SMOOTH",
"297 702 OFFCURVE",
"274 697 OFFCURVE",
"267 681 CURVE SMOOTH",
"-19 38 LINE",
"-23 30 OFFCURVE",
"-25 24 OFFCURVE",
"-25 18 CURVE SMOOTH",
"-25 5 OFFCURVE",
"-6 -2 OFFCURVE",
"33 -2 CURVE SMOOTH"
);
},
{
closed = 1;
nodes = (
"308 451 LINE SMOOTH",
"317 471 OFFCURVE",
"324 494 OFFCURVE",
"330 515 CURVE",
"334 515 LINE",
"335 494 OFFCURVE",
"337 472 OFFCURVE",
"342 451 CURVE",
"377 273 LINE",
"232 273 LINE"
);
},
{
closed = 1;
nodes = (
"300 -204 OFFCURVE",
"320 -193 OFFCURVE",
"322 -172 CURVE SMOOTH",
"328 -112 LINE SMOOTH",
"329 -101 OFFCURVE",
"328 -80 OFFCURVE",
"270 -80 CURVE SMOOTH",
"228 -80 OFFCURVE",
"208 -91 OFFCURVE",
"206 -112 CURVE SMOOTH",
"200 -172 LINE SMOOTH",
"199 -182 OFFCURVE",
"199 -204 OFFCURVE",
"258 -204 CURVE SMOOTH"
);
},
{
closed = 1;
nodes = (
"449 741 OFFCURVE",
"525 797 OFFCURVE",
"525 857 CURVE SMOOTH",
"525 872 OFFCURVE",
"513 881 OFFCURVE",
"492 881 CURVE SMOOTH",
"472 881 OFFCURVE",
"466 874 OFFCURVE",
"456 865 CURVE SMOOTH",
"442 853 OFFCURVE",
"418 832 OFFCURVE",
"375 832 CURVE SMOOTH",
"322 832 OFFCURVE",
"292 849 OFFCURVE",
"279 863 CURVE SMOOTH",
"271 873 OFFCURVE",
"267 881 OFFCURVE",
"248 881 CURVE SMOOTH",
"223 881 OFFCURVE",
"210 869 OFFCURVE",
"210 845 CURVE SMOOTH",
"210 791 OFFCURVE",
"271 741 OFFCURVE",
"366 741 CURVE SMOOTH"
);
}
);
width = 613;
}
);
leftKerningGroup = A;
rightKerningGroup = A;
unicode = 1EB6;
},
{
glyphname = Abrevegrave;
layers = (
{
anchors = (
{
name = bottom;
position = "{279, 0}";
},
{
name = ogonek;
position = "{554, 0}";
},
{
name = top;
position = "{381, 984}";
}
);
layerId = master01;
paths = (
{
closed = 1;
nodes = (
"33 -2 LINE SMOOTH",
"53 -2 OFFCURVE",
"69 2 OFFCURVE",
"74 14 CURVE SMOOTH",
"148 178 LINE",
"442 178 LINE",
"484 14 LINE SMOOTH",
"487 2 OFFCURVE",
"503 -2 OFFCURVE",
"523 -2 CURVE SMOOTH",
"531 -2 LINE SMOOTH",
"565 -2 OFFCURVE",
"575 7 OFFCURVE",
"575 18 CURVE SMOOTH",
"575 21 OFFCURVE",
"575 24 OFFCURVE",
"574 28 CURVE SMOOTH",
"406 686 LINE SMOOTH",
"403 698 OFFCURVE",
"387 702 OFFCURVE",
"367 702 CURVE SMOOTH",
"338 702 LINE SMOOTH",
"317 702 OFFCURVE",
"302 698 OFFCURVE",
"297 686 CURVE SMOOTH",
"-8 29 LINE SMOOTH",
"-11 23 OFFCURVE",
"-13 18 OFFCURVE",
"-13 14 CURVE SMOOTH",
"-13 3 OFFCURVE",
"0 -2 OFFCURVE",
"28 -2 CURVE SMOOTH"
);
},
{
closed = 1;
nodes = (
"321 552 LINE SMOOTH",
"329 570 OFFCURVE",
"336 591 OFFCURVE",
"342 610 CURVE",
"344 610 LINE",
"344 591 OFFCURVE",
"345 571 OFFCURVE",
"350 552 CURVE SMOOTH",
"423 254 LINE",
"184 254 LINE"
);
},
{
closed = 1;
nodes = (
"449 744 OFFCURVE",
"518 793 OFFCURVE",
"518 857 CURVE SMOOTH",
"518 870 OFFCURVE",
"513 874 OFFCURVE",
"502 874 CURVE SMOOTH",
"492 874 OFFCURVE",
"485 872 OFFCURVE",
"481 862 CURVE SMOOTH",
"470 837 OFFCURVE",
"445 810 OFFCURVE",
"363 810 CURVE SMOOTH",
"283 810 OFFCURVE",
"261 837 OFFCURVE",
"256 862 CURVE SMOOTH",
"254 872 OFFCURVE",
"248 874 OFFCURVE",
"238 874 CURVE SMOOTH",
"224 874 OFFCURVE",
"217 866 OFFCURVE",
"217 839 CURVE SMOOTH",
"217 778 OFFCURVE",
"281 744 OFFCURVE",
"356 744 CURVE SMOOTH"
);
},
{
closed = 1;
nodes = (
"437 884 OFFCURVE",
"449 889 OFFCURVE",
"449 898 CURVE SMOOTH",
"449 904 OFFCURVE",
"446 909 OFFCURVE",
"440 916 CURVE SMOOTH",
"402 961 LINE SMOOTH",
"377 991 OFFCURVE",
"361 996 OFFCURVE",
"318 996 CURVE SMOOTH",
"283 996 OFFCURVE",
"263 989 OFFCURVE",
"263 975 CURVE SMOOTH",
"263 966 OFFCURVE",
"268 958 OFFCURVE",
"299 938 CURVE SMOOTH",
"350 905 LINE SMOOTH",
"376 888 OFFCURVE",
"389 884 OFFCURVE",
"421 884 CURVE SMOOTH"
);
}
);
width = 613;
},
{
anchors = (
{
name = bottom;
position = "{279, 0}";
},
{
name = ogonek;
position = "{563, 0}";
},
{
name = top;
position = "{383, 1004}";
}
);
layerId = "1564F15A-2B4C-4FFD-AA43-969DC22C29FF";
paths = (
{
closed = 1;
nodes = (
"73 -2 LINE SMOOTH",
"97 -2 OFFCURVE",
"114 4 OFFCURVE",
"121 19 CURVE SMOOTH",
"176 141 LINE",
"407 141 LINE",
"436 19 LINE SMOOTH",
"440 3 OFFCURVE",
"460 -2 OFFCURVE",
"490 -2 CURVE SMOOTH",
"534 -2 LINE SMOOTH",
"569 -2 OFFCURVE",
"588 7 OFFCURVE",
"588 21 CURVE SMOOTH",
"588 24 OFFCURVE",
"586 35 OFFCURVE",
"585 38 CURVE",
"433 681 LINE SMOOTH",
"429 697 OFFCURVE",
"407 702 OFFCURVE",
"378 702 CURVE SMOOTH",
"326 702 LINE SMOOTH",
"297 702 OFFCURVE",
"274 697 OFFCURVE",
"267 681 CURVE SMOOTH",
"-19 38 LINE",
"-23 30 OFFCURVE",
"-25 24 OFFCURVE",
"-25 18 CURVE SMOOTH",
"-25 5 OFFCURVE",
"-6 -2 OFFCURVE",
"33 -2 CURVE SMOOTH"
);
},
{
closed = 1;
nodes = (
"308 451 LINE SMOOTH",
"317 471 OFFCURVE",
"324 494 OFFCURVE",
"330 515 CURVE",
"334 515 LINE",
"335 494 OFFCURVE",
"337 472 OFFCURVE",
"342 451 CURVE",
"377 273 LINE",
"232 273 LINE"
);
},
{
closed = 1;
nodes = (
"449 741 OFFCURVE",
"525 797 OFFCURVE",
"525 857 CURVE SMOOTH",
"525 872 OFFCURVE",
"513 881 OFFCURVE",
"492 881 CURVE SMOOTH",
"472 881 OFFCURVE",
"466 874 OFFCURVE",
"456 865 CURVE SMOOTH",
"442 853 OFFCURVE",
"418 832 OFFCURVE",
"375 832 CURVE SMOOTH",
"322 832 OFFCURVE",
"292 849 OFFCURVE",
"279 863 CURVE SMOOTH",
"271 873 OFFCURVE",
"267 881 OFFCURVE",
"248 881 CURVE SMOOTH",
"223 881 OFFCURVE",
"210 869 OFFCURVE",
"210 845 CURVE SMOOTH",
"210 791 OFFCURVE",
"271 741 OFFCURVE",
"366 741 CURVE SMOOTH"
);
},
{
closed = 1;
nodes = (
"451 891 OFFCURVE",
"464 895 OFFCURVE",
"464 905 CURVE SMOOTH",
"464 910 OFFCURVE",
"462 917 OFFCURVE",
"454 927 CURVE SMOOTH",
"406 987 LINE SMOOTH",
"388 1010 OFFCURVE",
"370 1017 OFFCURVE",
"323 1017 CURVE SMOOTH",
"276 1017 OFFCURVE",
"250 1014 OFFCURVE",
"250 998 CURVE SMOOTH",
"250 990 OFFCURVE",
"257 980 OFFCURVE",
"276 967 CURVE SMOOTH",
"357 910 LINE SMOOTH",
"377 896 OFFCURVE",
"390 891 OFFCURVE",
"425 891 CURVE SMOOTH"
);
}
);
width = 613;
}
);
leftKerningGroup = A;
rightKerningGroup = A;
unicode = 1EB0;
},
{
glyphname = Abrevehookabove;
layers = (
{
anchors = (
{
name = bottom;
position = "{279, 0}";
},
{
name = ogonek;
position = "{554, 0}";
},
{
name = top;
position = "{386, 1029}";
}
);
layerId = master01;
paths = (
{
closed = 1;
nodes = (
"33 -2 LINE SMOOTH",
"53 -2 OFFCURVE",
"69 2 OFFCURVE",
"74 14 CURVE SMOOTH",
"148 178 LINE",
"442 178 LINE",
"484 14 LINE SMOOTH",
"487 2 OFFCURVE",
"503 -2 OFFCURVE",
"523 -2 CURVE SMOOTH",
"531 -2 LINE SMOOTH",
"565 -2 OFFCURVE",
"575 7 OFFCURVE",
"575 18 CURVE SMOOTH",
"575 21 OFFCURVE",
"575 24 OFFCURVE",
"574 28 CURVE SMOOTH",
"406 686 LINE SMOOTH",
"403 698 OFFCURVE",
"387 702 OFFCURVE",
"367 702 CURVE SMOOTH",
"338 702 LINE SMOOTH",
"317 702 OFFCURVE",
"302 698 OFFCURVE",
"297 686 CURVE SMOOTH",
"-8 29 LINE SMOOTH",
"-11 23 OFFCURVE",
"-13 18 OFFCURVE",
"-13 14 CURVE SMOOTH",
"-13 3 OFFCURVE",
"0 -2 OFFCURVE",
"28 -2 CURVE SMOOTH"
);
},
{
closed = 1;
nodes = (
"321 552 LINE SMOOTH",
"329 570 OFFCURVE",
"336 591 OFFCURVE",
"342 610 CURVE",
"344 610 LINE",
"344 591 OFFCURVE",
"345 571 OFFCURVE",
"350 552 CURVE SMOOTH",
"423 254 LINE",
"184 254 LINE"
);
},
{
closed = 1;
nodes = (
"449 744 OFFCURVE",
"518 793 OFFCURVE",
"518 857 CURVE SMOOTH",
"518 870 OFFCURVE",
"513 874 OFFCURVE",
"502 874 CURVE SMOOTH",
"492 874 OFFCURVE",
"485 872 OFFCURVE",
"481 862 CURVE SMOOTH",
"470 837 OFFCURVE",
"445 810 OFFCURVE",
"363 810 CURVE SMOOTH",
"283 810 OFFCURVE",
"261 837 OFFCURVE",
"256 862 CURVE SMOOTH",
"254 872 OFFCURVE",
"248 874 OFFCURVE",
"238 874 CURVE SMOOTH",
"224 874 OFFCURVE",
"217 866 OFFCURVE",
"217 839 CURVE SMOOTH",
"217 778 OFFCURVE",
"281 744 OFFCURVE",
"356 744 CURVE SMOOTH"
);
},
{
closed = 1;
nodes = (
"372 870 OFFCURVE",
"475 907 OFFCURVE",
"475 971 CURVE SMOOTH",
"475 1009 OFFCURVE",
"438 1037 OFFCURVE",
"382 1037 CURVE SMOOTH",
"340 1037 OFFCURVE",
"278 1021 OFFCURVE",
"278 1001 CURVE SMOOTH",
"278 994 OFFCURVE",
"287 973 OFFCURVE",
"303 973 CURVE SMOOTH",
"315 973 OFFCURVE",
"340 986 OFFCURVE",
"369 986 CURVE SMOOTH",
"394 986 OFFCURVE",
"410 977 OFFCURVE",
"410 962 CURVE SMOOTH",
"410 926 OFFCURVE",
"316 917 OFFCURVE",
"316 901 CURVE SMOOTH",
"316 894 OFFCURVE",
"333 870 OFFCURVE",
"350 870 CURVE SMOOTH"
);
}
);
width = 613;
},
{
anchors = (
{
name = bottom;
position = "{279, 0}";
},
{
name = ogonek;
position = "{563, 0}";
},
{
name = top;
position = "{385, 1039}";
}
);
layerId = "1564F15A-2B4C-4FFD-AA43-969DC22C29FF";
paths = (
{
closed = 1;
nodes = (
"73 -2 LINE SMOOTH",
"97 -2 OFFCURVE",
"114 4 OFFCURVE",
"121 19 CURVE SMOOTH",
"176 141 LINE",
"407 141 LINE",
"436 19 LINE SMOOTH",
"440 3 OFFCURVE",
"460 -2 OFFCURVE",
"490 -2 CURVE SMOOTH",
"534 -2 LINE SMOOTH",
"569 -2 OFFCURVE",
"588 7 OFFCURVE",
"588 21 CURVE SMOOTH",
"588 24 OFFCURVE",
"586 35 OFFCURVE",
"585 38 CURVE",
"433 681 LINE SMOOTH",
"429 697 OFFCURVE",
"407 702 OFFCURVE",
"378 702 CURVE SMOOTH",
"326 702 LINE SMOOTH",
"297 702 OFFCURVE",
"274 697 OFFCURVE",
"267 681 CURVE SMOOTH",
"-19 38 LINE",
"-23 30 OFFCURVE",
"-25 24 OFFCURVE",
"-25 18 CURVE SMOOTH",
"-25 5 OFFCURVE",
"-6 -2 OFFCURVE",
"33 -2 CURVE SMOOTH"
);
},
{
closed = 1;
nodes = (
"308 451 LINE SMOOTH",
"317 471 OFFCURVE",
"324 494 OFFCURVE",
"330 515 CURVE",
"334 515 LINE",
"335 494 OFFCURVE",
"337 472 OFFCURVE",
"342 451 CURVE",
"377 273 LINE",
"232 273 LINE"
);
},
{
closed = 1;
nodes = (
"449 741 OFFCURVE",
"525 797 OFFCURVE",
"525 857 CURVE SMOOTH",
"525 872 OFFCURVE",
"513 881 OFFCURVE",
"492 881 CURVE SMOOTH",
"472 881 OFFCURVE",
"466 874 OFFCURVE",
"456 865 CURVE SMOOTH",
"442 853 OFFCURVE",
"418 832 OFFCURVE",
"375 832 CURVE SMOOTH",
"322 832 OFFCURVE",
"292 849 OFFCURVE",
"279 863 CURVE SMOOTH",
"271 873 OFFCURVE",
"267 881 OFFCURVE",
"248 881 CURVE SMOOTH",
"223 881 OFFCURVE",
"210 869 OFFCURVE",
"210 845 CURVE SMOOTH",
"210 791 OFFCURVE",
"271 741 OFFCURVE",
"366 741 CURVE SMOOTH"
);
},
{
closed = 1;
nodes = (
"380 879 OFFCURVE",
"481 917 OFFCURVE",
"481 985 CURVE SMOOTH",
"481 1027 OFFCURVE",
"442 1055 OFFCURVE",
"376 1055 CURVE SMOOTH",
"326 1055 OFFCURVE",
"274 1039 OFFCURVE",
"274 1017 CURVE SMOOTH",
"274 1008 OFFCURVE",
"284 982 OFFCURVE",
"303 982 CURVE SMOOTH",
"314 982 OFFCURVE",
"341 992 OFFCURVE",
"367 992 CURVE SMOOTH",
"383 992 OFFCURVE",
"397 988 OFFCURVE",
"397 972 CURVE SMOOTH",
"397 933 OFFCURVE",
"312 926 OFFCURVE",
"312 907 CURVE SMOOTH",
"312 896 OFFCURVE",
"338 879 OFFCURVE",
"355 879 CURVE SMOOTH"
);
}
);
width = 613;
}
);
leftKerningGroup = A;
rightKerningGroup = A;
unicode = 1EB2;
},
{
glyphname = Abrevetilde;
layers = (
{
anchors = (
{
name = bottom;
position = "{279, 0}";
},
{
name = ogonek;
position = "{554, 0}";
},
{
name = top;
position = "{379, 969}";
}
);
layerId = master01;
paths = (
{
closed = 1;
nodes = (
"33 -2 LINE SMOOTH",
"53 -2 OFFCURVE",
"69 2 OFFCURVE",
"74 14 CURVE SMOOTH",
"148 178 LINE",
"442 178 LINE",
"484 14 LINE SMOOTH",
"487 2 OFFCURVE",
"503 -2 OFFCURVE",
"523 -2 CURVE SMOOTH",
"531 -2 LINE SMOOTH",
"565 -2 OFFCURVE",
"575 7 OFFCURVE",
"575 18 CURVE SMOOTH",
"575 21 OFFCURVE",
"575 24 OFFCURVE",
"574 28 CURVE SMOOTH",
"406 686 LINE SMOOTH",
"403 698 OFFCURVE",
"387 702 OFFCURVE",
"367 702 CURVE SMOOTH",
"338 702 LINE SMOOTH",
"317 702 OFFCURVE",
"302 698 OFFCURVE",
"297 686 CURVE SMOOTH",
"-8 29 LINE SMOOTH",
"-11 23 OFFCURVE",
"-13 18 OFFCURVE",
"-13 14 CURVE SMOOTH",
"-13 3 OFFCURVE",
"0 -2 OFFCURVE",
"28 -2 CURVE SMOOTH"
);
},
{
closed = 1;
nodes = (
"321 552 LINE SMOOTH",
"329 570 OFFCURVE",
"336 591 OFFCURVE",
"342 610 CURVE",
"344 610 LINE",
"344 591 OFFCURVE",
"345 571 OFFCURVE",
"350 552 CURVE SMOOTH",
"423 254 LINE",
"184 254 LINE"
);
},
{
closed = 1;
nodes = (
"449 744 OFFCURVE",
"518 793 OFFCURVE",
"518 857 CURVE SMOOTH",
"518 870 OFFCURVE",
"513 874 OFFCURVE",
"502 874 CURVE SMOOTH",
"492 874 OFFCURVE",
"485 872 OFFCURVE",
"481 862 CURVE SMOOTH",
"470 837 OFFCURVE",
"445 810 OFFCURVE",
"363 810 CURVE SMOOTH",
"283 810 OFFCURVE",
"261 837 OFFCURVE",
"256 862 CURVE SMOOTH",
"254 872 OFFCURVE",
"248 874 OFFCURVE",
"238 874 CURVE SMOOTH",
"224 874 OFFCURVE",
"217 866 OFFCURVE",
"217 839 CURVE SMOOTH",
"217 778 OFFCURVE",
"281 744 OFFCURVE",
"356 744 CURVE SMOOTH"
);
},
{
closed = 1;
nodes = (
"498 888 OFFCURVE",
"534 912 OFFCURVE",
"556 959 CURVE SMOOTH",
"560 967 OFFCURVE",
"561 972 OFFCURVE",
"561 974 CURVE SMOOTH",
"561 982 OFFCURVE",
"544 993 OFFCURVE",
"535 993 CURVE SMOOTH",
"520 993 OFFCURVE",
"506 950 OFFCURVE",
"459 950 CURVE SMOOTH",
"417 950 OFFCURVE",
"354 993 OFFCURVE",
"296 993 CURVE SMOOTH",
"249 993 OFFCURVE",
"214 966 OFFCURVE",
"196 925 CURVE SMOOTH",
"192 916 OFFCURVE",
"191 911 OFFCURVE",
"191 909 CURVE SMOOTH",
"191 899 OFFCURVE",
"209 890 OFFCURVE",
"219 890 CURVE SMOOTH",
"236 890 OFFCURVE",
"247 929 OFFCURVE",
"290 929 CURVE SMOOTH",
"331 929 OFFCURVE",
"390 888 OFFCURVE",
"452 888 CURVE SMOOTH"
);
}
);
width = 613;
},
{
anchors = (
{
name = bottom;
position = "{279, 0}";
},
{
name = ogonek;
position = "{563, 0}";
},
{
name = top;
position = "{381, 989}";
}
);
layerId = "1564F15A-2B4C-4FFD-AA43-969DC22C29FF";
paths = (
{
closed = 1;
nodes = (
"73 -2 LINE SMOOTH",
"97 -2 OFFCURVE",
"114 4 OFFCURVE",
"121 19 CURVE SMOOTH",
"176 141 LINE",
"407 141 LINE",
"436 19 LINE SMOOTH",
"440 3 OFFCURVE",
"460 -2 OFFCURVE",
"490 -2 CURVE SMOOTH",
"534 -2 LINE SMOOTH",
"569 -2 OFFCURVE",
"588 7 OFFCURVE",
"588 21 CURVE SMOOTH",
"588 24 OFFCURVE",
"586 35 OFFCURVE",
"585 38 CURVE",
"433 681 LINE SMOOTH",
"429 697 OFFCURVE",
"407 702 OFFCURVE",
"378 702 CURVE SMOOTH",
"326 702 LINE SMOOTH",
"297 702 OFFCURVE",
"274 697 OFFCURVE",
"267 681 CURVE SMOOTH",
"-19 38 LINE",
"-23 30 OFFCURVE",
"-25 24 OFFCURVE",
"-25 18 CURVE SMOOTH",
"-25 5 OFFCURVE",
"-6 -2 OFFCURVE",
"33 -2 CURVE SMOOTH"
);
},
{
closed = 1;
nodes = (
"308 451 LINE SMOOTH",
"317 471 OFFCURVE",
"324 494 OFFCURVE",
"330 515 CURVE",
"334 515 LINE",
"335 494 OFFCURVE",
"337 472 OFFCURVE",
"342 451 CURVE",
"377 273 LINE",
"232 273 LINE"
);
},
{
closed = 1;
nodes = (
"449 741 OFFCURVE",
"525 797 OFFCURVE",
"525 857 CURVE SMOOTH",
"525 872 OFFCURVE",
"513 881 OFFCURVE",
"492 881 CURVE SMOOTH",
"472 881 OFFCURVE",
"466 874 OFFCURVE",
"456 865 CURVE SMOOTH",
"442 853 OFFCURVE",
"418 832 OFFCURVE",
"375 832 CURVE SMOOTH",
"322 832 OFFCURVE",
"292 849 OFFCURVE",
"279 863 CURVE SMOOTH",
"271 873 OFFCURVE",
"267 881 OFFCURVE",
"248 881 CURVE SMOOTH",
"223 881 OFFCURVE",
"210 869 OFFCURVE",
"210 845 CURVE SMOOTH",
"210 791 OFFCURVE",
"271 741 OFFCURVE",
"366 741 CURVE SMOOTH"
);
},
{
closed = 1;
nodes = (
"493 893 OFFCURVE",
"539 931 OFFCURVE",
"555 967 CURVE SMOOTH",
"558 974 OFFCURVE",
"560 980 OFFCURVE",
"560 986 CURVE SMOOTH",
"560 1001 OFFCURVE",
"527 1014 OFFCURVE",
"516 1014 CURVE SMOOTH",
"499 1014 OFFCURVE",
"487 981 OFFCURVE",
"448 981 CURVE SMOOTH",
"411 981 OFFCURVE",
"373 1015 OFFCURVE",
"312 1015 CURVE SMOOTH",
"256 1015 OFFCURVE",
"212 977 OFFCURVE",
"198 941 CURVE SMOOTH",
"196 936 OFFCURVE",
"194 930 OFFCURVE",
"194 921 CURVE SMOOTH",
"194 908 OFFCURVE",
"221 894 OFFCURVE",
"239 894 CURVE SMOOTH",
"258 894 OFFCURVE",
"267 927 OFFCURVE",
"310 927 CURVE SMOOTH",
"337 927 OFFCURVE",
"382 893 OFFCURVE",
"441 893 CURVE SMOOTH"
);
}
);
width = 613;
}
);
leftKerningGroup = A;
rightKerningGroup = A;
unicode = 1EB4;
},
{
glyphname = Acaron;
layers = (
{
anchors = (
{
name = bottom;
position = "{279, 0}";
},
{
name = ogonek;
position = "{554, 0}";
},
{
name = top;
position = "{367, 842}";
}
);
layerId = master01;
paths = (
{
closed = 1;
nodes = (
"33 -2 LINE SMOOTH",
"53 -2 OFFCURVE",
"69 2 OFFCURVE",
"74 14 CURVE SMOOTH",
"148 178 LINE",
"442 178 LINE",
"484 14 LINE SMOOTH",
"487 2 OFFCURVE",
"503 -2 OFFCURVE",
"523 -2 CURVE SMOOTH",
"531 -2 LINE SMOOTH",
"565 -2 OFFCURVE",
"575 7 OFFCURVE",
"575 18 CURVE SMOOTH",
"575 21 OFFCURVE",
"575 24 OFFCURVE",
"574 28 CURVE SMOOTH",
"406 686 LINE SMOOTH",
"403 698 OFFCURVE",
"387 702 OFFCURVE",
"367 702 CURVE SMOOTH",
"338 702 LINE SMOOTH",
"317 702 OFFCURVE",
"302 698 OFFCURVE",
"297 686 CURVE SMOOTH",
"-8 29 LINE SMOOTH",
"-11 23 OFFCURVE",
"-13 18 OFFCURVE",
"-13 14 CURVE SMOOTH",
"-13 3 OFFCURVE",
"0 -2 OFFCURVE",
"28 -2 CURVE SMOOTH"
);
},
{
closed = 1;
nodes = (
"321 552 LINE SMOOTH",
"329 570 OFFCURVE",
"336 591 OFFCURVE",
"342 610 CURVE",
"344 610 LINE",
"344 591 OFFCURVE",
"345 571 OFFCURVE",
"350 552 CURVE SMOOTH",
"423 254 LINE",
"184 254 LINE"
);
},
{
closed = 1;
nodes = (
"371 752 LINE SMOOTH",
"402 752 OFFCURVE",
"415 755 OFFCURVE",
"433 775 CURVE SMOOTH",
"480 827 LINE SMOOTH",
"495 844 OFFCURVE",
"498 848 OFFCURVE",
"498 854 CURVE SMOOTH",
"498 860 OFFCURVE",
"492 864 OFFCURVE",
"477 864 CURVE SMOOTH",
"455 864 OFFCURVE",
"446 862 OFFCURVE",
"433 853 CURVE SMOOTH",
"363 807 LINE",
"306 851 LINE SMOOTH",
"293 861 OFFCURVE",
"283 864 OFFCURVE",
"261 864 CURVE SMOOTH",
"246 864 OFFCURVE",
"238 860 OFFCURVE",
"238 851 CURVE SMOOTH",
"238 848 OFFCURVE",
"240 841 OFFCURVE",
"249 829 CURVE SMOOTH",
"287 775 LINE SMOOTH",
"303 752 OFFCURVE",
"316 752 OFFCURVE",
"345 752 CURVE SMOOTH"
);
}
);
width = 613;
},
{
anchors = (
{
name = bottom;
position = "{279, 0}";
},
{
name = ogonek;
position = "{563, 0}";
},
{
name = top;
position = "{370, 877}";
}
);
layerId = "1564F15A-2B4C-4FFD-AA43-969DC22C29FF";
paths = (
{
closed = 1;
nodes = (
"73 -2 LINE SMOOTH",
"97 -2 OFFCURVE",
"114 4 OFFCURVE",
"121 19 CURVE SMOOTH",
"176 141 LINE",
"407 141 LINE",
"436 19 LINE SMOOTH",
"440 3 OFFCURVE",
"460 -2 OFFCURVE",
"490 -2 CURVE SMOOTH",
"534 -2 LINE SMOOTH",
"569 -2 OFFCURVE",
"588 7 OFFCURVE",
"588 21 CURVE SMOOTH",
"588 24 OFFCURVE",
"586 35 OFFCURVE",
"585 38 CURVE",
"433 681 LINE SMOOTH",
"429 697 OFFCURVE",
"407 702 OFFCURVE",
"378 702 CURVE SMOOTH",
"326 702 LINE SMOOTH",
"297 702 OFFCURVE",
"274 697 OFFCURVE",
"267 681 CURVE SMOOTH",
"-19 38 LINE",
"-23 30 OFFCURVE",
"-25 24 OFFCURVE",
"-25 18 CURVE SMOOTH",
"-25 5 OFFCURVE",
"-6 -2 OFFCURVE",
"33 -2 CURVE SMOOTH"
);
},
{
closed = 1;
nodes = (
"308 451 LINE SMOOTH",
"317 471 OFFCURVE",
"324 494 OFFCURVE",
"330 515 CURVE",
"334 515 LINE",
"335 494 OFFCURVE",
"337 472 OFFCURVE",
"342 451 CURVE",
"377 273 LINE",
"232 273 LINE"
);
},
{
closed = 1;
nodes = (
"370 749 LINE SMOOTH",
"414 749 OFFCURVE",
"429 755 OFFCURVE",
"449 778 CURVE SMOOTH",
"504 842 LINE SMOOTH",
"510 849 OFFCURVE",
"515 856 OFFCURVE",
"515 862 CURVE SMOOTH",
"515 871 OFFCURVE",
"505 875 OFFCURVE",
"472 875 CURVE SMOOTH",
"445 875 OFFCURVE",
"426 872 OFFCURVE",
"407 858 CURVE SMOOTH",
"364 826 LINE",
"329 858 LINE SMOOTH",
"313 873 OFFCURVE",
"294 875 OFFCURVE",
"268 875 CURVE SMOOTH",
"234 875 OFFCURVE",
"221 871 OFFCURVE",
"221 860 CURVE SMOOTH",
"221 854 OFFCURVE",
"224 848 OFFCURVE",
"228 842 CURVE SMOOTH",
"270 778 LINE SMOOTH",
"285 755 OFFCURVE",
"299 749 OFFCURVE",
"342 749 CURVE SMOOTH"
);
}
);
width = 613;
}
);
leftKerningGroup = A;
rightKerningGroup = A;
unicode = 01CD;
},
{
glyphname = Acircumflex;
layers = (
{
anchors = (
{
name = bottom;
position = "{279, 0}";
},
{
name = ogonek;
position = "{554, 0}";
},
{
name = top;
position = "{366, 837}";
}
);
layerId = master01;
paths = (
{
closed = 1;
nodes = (
"33 -2 LINE SMOOTH",
"53 -2 OFFCURVE",
"69 2 OFFCURVE",
"74 14 CURVE SMOOTH",
"148 178 LINE",
"442 178 LINE",
"484 14 LINE SMOOTH",
"487 2 OFFCURVE",
"503 -2 OFFCURVE",
"523 -2 CURVE SMOOTH",
"531 -2 LINE SMOOTH",
"565 -2 OFFCURVE",
"575 7 OFFCURVE",
"575 18 CURVE SMOOTH",
"575 21 OFFCURVE",
"575 24 OFFCURVE",
"574 28 CURVE SMOOTH",
"406 686 LINE SMOOTH",
"403 698 OFFCURVE",
"387 702 OFFCURVE",
"367 702 CURVE SMOOTH",
"338 702 LINE SMOOTH",
"317 702 OFFCURVE",
"302 698 OFFCURVE",
"297 686 CURVE SMOOTH",
"-8 29 LINE SMOOTH",
"-11 23 OFFCURVE",
"-13 18 OFFCURVE",
"-13 14 CURVE SMOOTH",
"-13 3 OFFCURVE",
"0 -2 OFFCURVE",
"28 -2 CURVE SMOOTH"
);
},
{
closed = 1;
nodes = (
"321 552 LINE SMOOTH",
"329 570 OFFCURVE",
"336 591 OFFCURVE",
"342 610 CURVE",
"344 610 LINE",
"344 591 OFFCURVE",
"345 571 OFFCURVE",
"350 552 CURVE SMOOTH",
"423 254 LINE",
"184 254 LINE"
);
},
{
closed = 1;
nodes = (
"259 742 OFFCURVE",
"277 747 OFFCURVE",
"293 757 CURVE SMOOTH",
"362 799 LINE",
"424 755 LINE SMOOTH",
"435 747 OFFCURVE",
"450 742 OFFCURVE",
"464 742 CURVE SMOOTH",
"480 742 OFFCURVE",
"487 747 OFFCURVE",
"487 753 CURVE SMOOTH",
"487 762 OFFCURVE",
"484 767 OFFCURVE",
"474 779 CURVE SMOOTH",
"429 832 LINE SMOOTH",
"415 849 OFFCURVE",
"404 854 OFFCURVE",
"378 854 CURVE SMOOTH",
"357 854 LINE SMOOTH",
"330 854 OFFCURVE",
"318 849 OFFCURVE",
"301 832 CURVE SMOOTH",
"244 777 LINE SMOOTH",
"231 764 OFFCURVE",
"227 758 OFFCURVE",
"227 752 CURVE SMOOTH",
"227 746 OFFCURVE",
"233 742 OFFCURVE",
"245 742 CURVE SMOOTH"
);
}
);
width = 613;
},
{
anchors = (
{
name = bottom;
position = "{279, 0}";
},
{
name = ogonek;
position = "{563, 0}";
},
{
name = top;
position = "{366, 842}";
}
);
layerId = "1564F15A-2B4C-4FFD-AA43-969DC22C29FF";
paths = (
{
closed = 1;
nodes = (
"73 -2 LINE SMOOTH",
"97 -2 OFFCURVE",
"114 4 OFFCURVE",
"121 19 CURVE SMOOTH",
"176 141 LINE",
"407 141 LINE",
"436 19 LINE SMOOTH",
"440 3 OFFCURVE",
"460 -2 OFFCURVE",
"490 -2 CURVE SMOOTH",
"534 -2 LINE SMOOTH",
"569 -2 OFFCURVE",
"588 7 OFFCURVE",
"588 21 CURVE SMOOTH",
"588 24 OFFCURVE",
"586 35 OFFCURVE",
"585 38 CURVE",
"433 681 LINE SMOOTH",
"429 697 OFFCURVE",
"407 702 OFFCURVE",
"378 702 CURVE SMOOTH",
"326 702 LINE SMOOTH",
"297 702 OFFCURVE",
"274 697 OFFCURVE",
"267 681 CURVE SMOOTH",
"-19 38 LINE",
"-23 30 OFFCURVE",
"-25 24 OFFCURVE",
"-25 18 CURVE SMOOTH",
"-25 5 OFFCURVE",
"-6 -2 OFFCURVE",
"33 -2 CURVE SMOOTH"
);
},
{
closed = 1;
nodes = (
"308 451 LINE SMOOTH",
"317 471 OFFCURVE",
"324 494 OFFCURVE",
"330 515 CURVE",
"334 515 LINE",
"335 494 OFFCURVE",
"337 472 OFFCURVE",
"342 451 CURVE",
"377 273 LINE",
"232 273 LINE"
);
},
{
closed = 1;
nodes = (
"275 734 OFFCURVE",
"289 741 OFFCURVE",
"308 751 CURVE SMOOTH",
"360 779 LINE",
"406 751 LINE SMOOTH",
"422 741 OFFCURVE",
"437 734 OFFCURVE",
"470 734 CURVE SMOOTH",
"495 734 OFFCURVE",
"503 738 OFFCURVE",
"503 745 CURVE SMOOTH",
"503 750 OFFCURVE",
"498 757 OFFCURVE",
"485 774 CURVE SMOOTH",
"437 836 LINE SMOOTH",
"422 855 OFFCURVE",
"409 860 OFFCURVE",
"378 860 CURVE SMOOTH",
"358 860 LINE SMOOTH",
"328 860 OFFCURVE",
"314 855 OFFCURVE",
"296 837 CURVE SMOOTH",
"233 774 LINE SMOOTH",
"219 760 OFFCURVE",
"209 749 OFFCURVE",
"209 743 CURVE SMOOTH",
"209 738 OFFCURVE",
"215 734 OFFCURVE",
"241 734 CURVE SMOOTH"
);
}
);
width = 613;
}
);
leftKerningGroup = A;
rightKerningGroup = A;
unicode = 00C2;
},
{
glyphname = Acircumflexacute;
layers = (
{
anchors = (
{
name = bottom;
position = "{279, 0}";
},
{
name = ogonek;
position = "{554, 0}";
},
{
name = top;
position = "{382, 989}";
}
);
layerId = master01;
paths = (
{
closed = 1;
nodes = (
"33 -2 LINE SMOOTH",
"53 -2 OFFCURVE",
"69 2 OFFCURVE",
"74 14 CURVE SMOOTH",
"148 178 LINE",
"442 178 LINE",
"484 14 LINE SMOOTH",
"487 2 OFFCURVE",
"503 -2 OFFCURVE",
"523 -2 CURVE SMOOTH",
"531 -2 LINE SMOOTH",
"565 -2 OFFCURVE",
"575 7 OFFCURVE",
"575 18 CURVE SMOOTH",
"575 21 OFFCURVE",
"575 24 OFFCURVE",
"574 28 CURVE SMOOTH",
"406 686 LINE SMOOTH",
"403 698 OFFCURVE",
"387 702 OFFCURVE",
"367 702 CURVE SMOOTH",
"338 702 LINE SMOOTH",
"317 702 OFFCURVE",
"302 698 OFFCURVE",
"297 686 CURVE SMOOTH",
"-8 29 LINE SMOOTH",
"-11 23 OFFCURVE",
"-13 18 OFFCURVE",
"-13 14 CURVE SMOOTH",
"-13 3 OFFCURVE",
"0 -2 OFFCURVE",
"28 -2 CURVE SMOOTH"
);
},
{
closed = 1;
nodes = (
"321 552 LINE SMOOTH",
"329 570 OFFCURVE",
"336 591 OFFCURVE",
"342 610 CURVE",
"344 610 LINE",
"344 591 OFFCURVE",
"345 571 OFFCURVE",
"350 552 CURVE SMOOTH",
"423 254 LINE",
"184 254 LINE"
);
},
{
closed = 1;
nodes = (
"259 742 OFFCURVE",
"277 747 OFFCURVE",
"293 757 CURVE SMOOTH",
"362 799 LINE",
"424 755 LINE SMOOTH",
"435 747 OFFCURVE",
"450 742 OFFCURVE",
"464 742 CURVE SMOOTH",
"480 742 OFFCURVE",
"487 747 OFFCURVE",
"487 753 CURVE SMOOTH",
"487 762 OFFCURVE",
"484 767 OFFCURVE",
"474 779 CURVE SMOOTH",
"429 832 LINE SMOOTH",
"415 849 OFFCURVE",
"404 854 OFFCURVE",
"378 854 CURVE SMOOTH",
"357 854 LINE SMOOTH",
"330 854 OFFCURVE",
"318 849 OFFCURVE",
"301 832 CURVE SMOOTH",
"244 777 LINE SMOOTH",
"231 764 OFFCURVE",
"227 758 OFFCURVE",
"227 752 CURVE SMOOTH",
"227 746 OFFCURVE",
"233 742 OFFCURVE",
"245 742 CURVE SMOOTH"
);
},
{
closed = 1;
nodes = (
"345 889 OFFCURVE",
"357 893 OFFCURVE",
"387 910 CURVE SMOOTH",
"444 943 LINE SMOOTH",
"479 963 OFFCURVE",
"489 972 OFFCURVE",
"489 984 CURVE SMOOTH",
"489 995 OFFCURVE",
"468 1001 OFFCURVE",
"437 1001 CURVE SMOOTH",
"396 1001 OFFCURVE",
"378 996 OFFCURVE",
"359 978 CURVE SMOOTH",
"299 921 LINE SMOOTH",
"293 915 OFFCURVE",
"286 908 OFFCURVE",
"286 901 CURVE SMOOTH",
"286 894 OFFCURVE",
"295 889 OFFCURVE",
"311 889 CURVE SMOOTH"
);
}
);
width = 613;
},
{
anchors = (
{
name = bottom;
position = "{279, 0}";
},
{
name = ogonek;
position = "{563, 0}";
},
{
name = top;
position = "{383, 1004}";
}
);
layerId = "1564F15A-2B4C-4FFD-AA43-969DC22C29FF";
paths = (
{
closed = 1;
nodes = (
"73 -2 LINE SMOOTH",
"97 -2 OFFCURVE",
"114 4 OFFCURVE",
"121 19 CURVE SMOOTH",
"176 141 LINE",
"407 141 LINE",
"436 19 LINE SMOOTH",
"440 3 OFFCURVE",
"460 -2 OFFCURVE",
"490 -2 CURVE SMOOTH",
"534 -2 LINE SMOOTH",
"569 -2 OFFCURVE",
"588 7 OFFCURVE",
"588 21 CURVE SMOOTH",
"588 24 OFFCURVE",
"586 35 OFFCURVE",
"585 38 CURVE",
"433 681 LINE SMOOTH",
"429 697 OFFCURVE",
"407 702 OFFCURVE",
"378 702 CURVE SMOOTH",
"326 702 LINE SMOOTH",
"297 702 OFFCURVE",
"274 697 OFFCURVE",
"267 681 CURVE SMOOTH",
"-19 38 LINE",
"-23 30 OFFCURVE",
"-25 24 OFFCURVE",
"-25 18 CURVE SMOOTH",
"-25 5 OFFCURVE",
"-6 -2 OFFCURVE",
"33 -2 CURVE SMOOTH"
);
},
{
closed = 1;
nodes = (
"308 451 LINE SMOOTH",
"317 471 OFFCURVE",
"324 494 OFFCURVE",
"330 515 CURVE",
"334 515 LINE",
"335 494 OFFCURVE",
"337 472 OFFCURVE",
"342 451 CURVE",
"377 273 LINE",
"232 273 LINE"
);
},
{
closed = 1;
nodes = (
"275 734 OFFCURVE",
"289 741 OFFCURVE",
"308 751 CURVE SMOOTH",
"360 779 LINE",
"406 751 LINE SMOOTH",
"422 741 OFFCURVE",
"437 734 OFFCURVE",
"470 734 CURVE SMOOTH",
"495 734 OFFCURVE",
"503 738 OFFCURVE",
"503 745 CURVE SMOOTH",
"503 750 OFFCURVE",
"498 757 OFFCURVE",
"485 774 CURVE SMOOTH",
"437 836 LINE SMOOTH",
"422 855 OFFCURVE",
"409 860 OFFCURVE",
"378 860 CURVE SMOOTH",
"358 860 LINE SMOOTH",
"328 860 OFFCURVE",
"314 855 OFFCURVE",
"296 837 CURVE SMOOTH",
"233 774 LINE SMOOTH",
"219 760 OFFCURVE",
"209 749 OFFCURVE",
"209 743 CURVE SMOOTH",
"209 738 OFFCURVE",
"215 734 OFFCURVE",
"241 734 CURVE SMOOTH"
);
},
{
closed = 1;
nodes = (
"346 891 OFFCURVE",
"361 896 OFFCURVE",
"384 910 CURVE SMOOTH",
"476 966 LINE SMOOTH",
"499 980 OFFCURVE",
"509 992 OFFCURVE",
"509 1000 CURVE SMOOTH",
"509 1014 OFFCURVE",
"486 1017 OFFCURVE",
"440 1017 CURVE SMOOTH",
"394 1017 OFFCURVE",
"374 1010 OFFCURVE",
"351 987 CURVE SMOOTH",
"290 927 LINE SMOOTH",
"280 917 OFFCURVE",
"275 909 OFFCURVE",
"275 903 CURVE SMOOTH",
"275 895 OFFCURVE",
"286 891 OFFCURVE",
"312 891 CURVE SMOOTH"
);
}
);
width = 613;
}
);
leftKerningGroup = A;
rightKerningGroup = A;
unicode = 1EA4;
},
{
glyphname = Acircumflexdotbelow;
layers = (
{
anchors = (
{
name = bottom;
position = "{263, -155}";
},
{
name = ogonek;
position = "{554, 0}";
},
{
name = top;
position = "{366, 837}";
}
);
layerId = master01;
paths = (
{
closed = 1;
nodes = (
"33 -2 LINE SMOOTH",
"53 -2 OFFCURVE",
"69 2 OFFCURVE",
"74 14 CURVE SMOOTH",
"148 178 LINE",
"442 178 LINE",
"484 14 LINE SMOOTH",
"487 2 OFFCURVE",
"503 -2 OFFCURVE",
"523 -2 CURVE SMOOTH",
"531 -2 LINE SMOOTH",
"565 -2 OFFCURVE",
"575 7 OFFCURVE",
"575 18 CURVE SMOOTH",
"575 21 OFFCURVE",
"575 24 OFFCURVE",
"574 28 CURVE SMOOTH",
"406 686 LINE SMOOTH",
"403 698 OFFCURVE",
"387 702 OFFCURVE",
"367 702 CURVE SMOOTH",
"338 702 LINE SMOOTH",
"317 702 OFFCURVE",
"302 698 OFFCURVE",
"297 686 CURVE SMOOTH",
"-8 29 LINE SMOOTH",
"-11 23 OFFCURVE",
"-13 18 OFFCURVE",
"-13 14 CURVE SMOOTH",
"-13 3 OFFCURVE",
"0 -2 OFFCURVE",
"28 -2 CURVE SMOOTH"
);
},
{
closed = 1;
nodes = (
"321 552 LINE SMOOTH",
"329 570 OFFCURVE",
"336 591 OFFCURVE",
"342 610 CURVE",
"344 610 LINE",
"344 591 OFFCURVE",
"345 571 OFFCURVE",
"350 552 CURVE SMOOTH",
"423 254 LINE",
"184 254 LINE"
);
},
{
closed = 1;
nodes = (
"294 -175 OFFCURVE",
"305 -166 OFFCURVE",
"306 -153 CURVE SMOOTH",
"311 -102 LINE SMOOTH",
"312 -92 OFFCURVE",
"308 -80 OFFCURVE",
"271 -80 CURVE SMOOTH",
"227 -80 OFFCURVE",
"225 -97 OFFCURVE",
"225 -102 CURVE SMOOTH",
"220 -153 LINE SMOOTH",
"219 -167 OFFCURVE",
"228 -175 OFFCURVE",
"261 -175 CURVE"
);
},
{
closed = 1;
nodes = (
"259 742 OFFCURVE",
"277 747 OFFCURVE",
"293 757 CURVE SMOOTH",
"362 799 LINE",
"424 755 LINE SMOOTH",
"435 747 OFFCURVE",
"450 742 OFFCURVE",
"464 742 CURVE SMOOTH",
"480 742 OFFCURVE",
"487 747 OFFCURVE",
"487 753 CURVE SMOOTH",
"487 762 OFFCURVE",
"484 767 OFFCURVE",
"474 779 CURVE SMOOTH",
"429 832 LINE SMOOTH",
"415 849 OFFCURVE",
"404 854 OFFCURVE",
"378 854 CURVE SMOOTH",
"357 854 LINE SMOOTH",
"330 854 OFFCURVE",
"318 849 OFFCURVE",
"301 832 CURVE SMOOTH",
"244 777 LINE SMOOTH",
"231 764 OFFCURVE",
"227 758 OFFCURVE",
"227 752 CURVE SMOOTH",
"227 746 OFFCURVE",
"233 742 OFFCURVE",
"245 742 CURVE SMOOTH"
);
}
);
width = 613;
},
{
anchors = (
{
name = bottom;
position = "{260, -185}";
},
{
name = ogonek;
position = "{563, 0}";
},
{
name = top;
position = "{366, 842}";
}
);
layerId = "1564F15A-2B4C-4FFD-AA43-969DC22C29FF";
paths = (
{
closed = 1;
nodes = (
"73 -2 LINE SMOOTH",
"97 -2 OFFCURVE",
"114 4 OFFCURVE",
"121 19 CURVE SMOOTH",
"176 141 LINE",
"407 141 LINE",
"436 19 LINE SMOOTH",
"440 3 OFFCURVE",
"460 -2 OFFCURVE",
"490 -2 CURVE SMOOTH",
"534 -2 LINE SMOOTH",
"569 -2 OFFCURVE",
"588 7 OFFCURVE",
"588 21 CURVE SMOOTH",
"588 24 OFFCURVE",
"586 35 OFFCURVE",
"585 38 CURVE",
"433 681 LINE SMOOTH",
"429 697 OFFCURVE",
"407 702 OFFCURVE",
"378 702 CURVE SMOOTH",
"326 702 LINE SMOOTH",
"297 702 OFFCURVE",
"274 697 OFFCURVE",
"267 681 CURVE SMOOTH",
"-19 38 LINE",
"-23 30 OFFCURVE",
"-25 24 OFFCURVE",
"-25 18 CURVE SMOOTH",
"-25 5 OFFCURVE",
"-6 -2 OFFCURVE",
"33 -2 CURVE SMOOTH"
);
},
{
closed = 1;
nodes = (
"308 451 LINE SMOOTH",
"317 471 OFFCURVE",
"324 494 OFFCURVE",
"330 515 CURVE",
"334 515 LINE",
"335 494 OFFCURVE",
"337 472 OFFCURVE",
"342 451 CURVE",
"377 273 LINE",
"232 273 LINE"
);
},
{
closed = 1;
nodes = (
"300 -204 OFFCURVE",
"320 -193 OFFCURVE",
"322 -172 CURVE SMOOTH",
"328 -112 LINE SMOOTH",
"329 -101 OFFCURVE",
"328 -80 OFFCURVE",
"270 -80 CURVE SMOOTH",
"228 -80 OFFCURVE",
"208 -91 OFFCURVE",
"206 -112 CURVE SMOOTH",
"200 -172 LINE SMOOTH",
"199 -182 OFFCURVE",
"199 -204 OFFCURVE",
"258 -204 CURVE SMOOTH"
);
},
{
closed = 1;
nodes = (
"275 734 OFFCURVE",
"289 741 OFFCURVE",
"308 751 CURVE SMOOTH",
"360 779 LINE",
"406 751 LINE SMOOTH",
"422 741 OFFCURVE",
"437 734 OFFCURVE",
"470 734 CURVE SMOOTH",
"495 734 OFFCURVE",
"503 738 OFFCURVE",
"503 745 CURVE SMOOTH",
"503 750 OFFCURVE",
"498 757 OFFCURVE",
"485 774 CURVE SMOOTH",
"437 836 LINE SMOOTH",
"422 855 OFFCURVE",
"409 860 OFFCURVE",
"378 860 CURVE SMOOTH",
"358 860 LINE SMOOTH",
"328 860 OFFCURVE",
"314 855 OFFCURVE",
"296 837 CURVE SMOOTH",
"233 774 LINE SMOOTH",
"219 760 OFFCURVE",
"209 749 OFFCURVE",
"209 743 CURVE SMOOTH",
"209 738 OFFCURVE",
"215 734 OFFCURVE",
"241 734 CURVE SMOOTH"
);
}
);
width = 613;
}
);
leftKerningGroup = A;
rightKerningGroup = A;
unicode = 1EAC;
},
{
glyphname = Acircumflexgrave;
layers = (
{
anchors = (
{
name = bottom;
position = "{279, 0}";
},
{
name = ogonek;
position = "{554, 0}";
},
{
name = top;
position = "{382, 989}";
}
);
layerId = master01;
paths = (
{
closed = 1;
nodes = (
"33 -2 LINE SMOOTH",
"53 -2 OFFCURVE",
"69 2 OFFCURVE",
"74 14 CURVE SMOOTH",
"148 178 LINE",
"442 178 LINE",
"484 14 LINE SMOOTH",
"487 2 OFFCURVE",
"503 -2 OFFCURVE",
"523 -2 CURVE SMOOTH",
"531 -2 LINE SMOOTH",
"565 -2 OFFCURVE",
"575 7 OFFCURVE",
"575 18 CURVE SMOOTH",
"575 21 OFFCURVE",
"575 24 OFFCURVE",
"574 28 CURVE SMOOTH",
"406 686 LINE SMOOTH",
"403 698 OFFCURVE",
"387 702 OFFCURVE",
"367 702 CURVE SMOOTH",
"338 702 LINE SMOOTH",
"317 702 OFFCURVE",
"302 698 OFFCURVE",
"297 686 CURVE SMOOTH",
"-8 29 LINE SMOOTH",
"-11 23 OFFCURVE",
"-13 18 OFFCURVE",
"-13 14 CURVE SMOOTH",
"-13 3 OFFCURVE",
"0 -2 OFFCURVE",
"28 -2 CURVE SMOOTH"
);
},
{
closed = 1;
nodes = (
"321 552 LINE SMOOTH",
"329 570 OFFCURVE",
"336 591 OFFCURVE",
"342 610 CURVE",
"344 610 LINE",
"344 591 OFFCURVE",
"345 571 OFFCURVE",
"350 552 CURVE SMOOTH",
"423 254 LINE",
"184 254 LINE"
);
},
{
closed = 1;
nodes = (
"259 742 OFFCURVE",
"277 747 OFFCURVE",
"293 757 CURVE SMOOTH",
"362 799 LINE",
"424 755 LINE SMOOTH",
"435 747 OFFCURVE",
"450 742 OFFCURVE",
"464 742 CURVE SMOOTH",
"480 742 OFFCURVE",
"487 747 OFFCURVE",
"487 753 CURVE SMOOTH",
"487 762 OFFCURVE",
"484 767 OFFCURVE",
"474 779 CURVE SMOOTH",
"429 832 LINE SMOOTH",
"415 849 OFFCURVE",
"404 854 OFFCURVE",
"378 854 CURVE SMOOTH",
"357 854 LINE SMOOTH",
"330 854 OFFCURVE",
"318 849 OFFCURVE",
"301 832 CURVE SMOOTH",
"244 777 LINE SMOOTH",
"231 764 OFFCURVE",
"227 758 OFFCURVE",
"227 752 CURVE SMOOTH",
"227 746 OFFCURVE",
"233 742 OFFCURVE",
"245 742 CURVE SMOOTH"
);
},
{
closed = 1;
nodes = (
"438 889 OFFCURVE",
"450 894 OFFCURVE",
"450 903 CURVE SMOOTH",
"450 909 OFFCURVE",
"447 914 OFFCURVE",
"441 921 CURVE SMOOTH",
"403 966 LINE SMOOTH",
"378 996 OFFCURVE",
"362 1001 OFFCURVE",
"319 1001 CURVE SMOOTH",
"284 1001 OFFCURVE",
"264 994 OFFCURVE",
"264 980 CURVE SMOOTH",
"264 971 OFFCURVE",
"269 963 OFFCURVE",
"300 943 CURVE SMOOTH",
"351 910 LINE SMOOTH",
"377 893 OFFCURVE",
"390 889 OFFCURVE",
"422 889 CURVE SMOOTH"
);
}
);
width = 613;
},
{
anchors = (
{
name = bottom;
position = "{279, 0}";
},
{
name = ogonek;
position = "{563, 0}";
},
{
name = top;
position = "{383, 1004}";
}
);
layerId = "1564F15A-2B4C-4FFD-AA43-969DC22C29FF";
paths = (
{
closed = 1;
nodes = (
"73 -2 LINE SMOOTH",
"97 -2 OFFCURVE",
"114 4 OFFCURVE",
"121 19 CURVE SMOOTH",
"176 141 LINE",
"407 141 LINE",
"436 19 LINE SMOOTH",
"440 3 OFFCURVE",
"460 -2 OFFCURVE",
"490 -2 CURVE SMOOTH",
"534 -2 LINE SMOOTH",
"569 -2 OFFCURVE",
"588 7 OFFCURVE",
"588 21 CURVE SMOOTH",
"588 24 OFFCURVE",
"586 35 OFFCURVE",
"585 38 CURVE",
"433 681 LINE SMOOTH",
"429 697 OFFCURVE",
"407 702 OFFCURVE",
"378 702 CURVE SMOOTH",
"326 702 LINE SMOOTH",
"297 702 OFFCURVE",
"274 697 OFFCURVE",
"267 681 CURVE SMOOTH",
"-19 38 LINE",
"-23 30 OFFCURVE",
"-25 24 OFFCURVE",
"-25 18 CURVE SMOOTH",
"-25 5 OFFCURVE",
"-6 -2 OFFCURVE",
"33 -2 CURVE SMOOTH"
);
},
{
closed = 1;
nodes = (
"308 451 LINE SMOOTH",
"317 471 OFFCURVE",
"324 494 OFFCURVE",
"330 515 CURVE",
"334 515 LINE",
"335 494 OFFCURVE",
"337 472 OFFCURVE",
"342 451 CURVE",
"377 273 LINE",
"232 273 LINE"
);
},
{
closed = 1;
nodes = (
"275 734 OFFCURVE",
"289 741 OFFCURVE",
"308 751 CURVE SMOOTH",
"360 779 LINE",
"406 751 LINE SMOOTH",
"422 741 OFFCURVE",
"437 734 OFFCURVE",
"470 734 CURVE SMOOTH",
"495 734 OFFCURVE",
"503 738 OFFCURVE",
"503 745 CURVE SMOOTH",
"503 750 OFFCURVE",
"498 757 OFFCURVE",
"485 774 CURVE SMOOTH",
"437 836 LINE SMOOTH",
"422 855 OFFCURVE",
"409 860 OFFCURVE",
"378 860 CURVE SMOOTH",
"358 860 LINE SMOOTH",
"328 860 OFFCURVE",
"314 855 OFFCURVE",
"296 837 CURVE SMOOTH",
"233 774 LINE SMOOTH",
"219 760 OFFCURVE",
"209 749 OFFCURVE",
"209 743 CURVE SMOOTH",
"209 738 OFFCURVE",
"215 734 OFFCURVE",
"241 734 CURVE SMOOTH"
);
},
{
closed = 1;
nodes = (
"451 891 OFFCURVE",
"464 895 OFFCURVE",
"464 905 CURVE SMOOTH",
"464 910 OFFCURVE",
"462 917 OFFCURVE",
"454 927 CURVE SMOOTH",
"406 987 LINE SMOOTH",
"388 1010 OFFCURVE",
"370 1017 OFFCURVE",
"323 1017 CURVE SMOOTH",
"276 1017 OFFCURVE",
"250 1014 OFFCURVE",
"250 998 CURVE SMOOTH",
"250 990 OFFCURVE",
"257 980 OFFCURVE",
"276 967 CURVE SMOOTH",
"357 910 LINE SMOOTH",
"377 896 OFFCURVE",
"390 891 OFFCURVE",
"425 891 CURVE SMOOTH"
);
}
);
width = 613;
}
);
leftKerningGroup = A;
rightKerningGroup = A;
unicode = 1EA6;
},
{
glyphname = Acircumflexhookabove;
layers = (
{
anchors = (
{
name = bottom;
position = "{279, 0}";
},
{
name = ogonek;
position = "{554, 0}";
},
{
name = top;
position = "{387, 1034}";
}
);
layerId = master01;
paths = (
{
closed = 1;
nodes = (
"33 -2 LINE SMOOTH",
"53 -2 OFFCURVE",
"69 2 OFFCURVE",
"74 14 CURVE SMOOTH",
"148 178 LINE",
"442 178 LINE",
"484 14 LINE SMOOTH",
"487 2 OFFCURVE",
"503 -2 OFFCURVE",
"523 -2 CURVE SMOOTH",
"531 -2 LINE SMOOTH",
"565 -2 OFFCURVE",
"575 7 OFFCURVE",
"575 18 CURVE SMOOTH",
"575 21 OFFCURVE",
"575 24 OFFCURVE",
"574 28 CURVE SMOOTH",
"406 686 LINE SMOOTH",
"403 698 OFFCURVE",
"387 702 OFFCURVE",
"367 702 CURVE SMOOTH",
"338 702 LINE SMOOTH",
"317 702 OFFCURVE",
"302 698 OFFCURVE",
"297 686 CURVE SMOOTH",
"-8 29 LINE SMOOTH",
"-11 23 OFFCURVE",
"-13 18 OFFCURVE",
"-13 14 CURVE SMOOTH",
"-13 3 OFFCURVE",
"0 -2 OFFCURVE",
"28 -2 CURVE SMOOTH"
);
},
{
closed = 1;
nodes = (
"321 552 LINE SMOOTH",
"329 570 OFFCURVE",
"336 591 OFFCURVE",
"342 610 CURVE",
"344 610 LINE",
"344 591 OFFCURVE",
"345 571 OFFCURVE",
"350 552 CURVE SMOOTH",
"423 254 LINE",
"184 254 LINE"
);
},
{
closed = 1;
nodes = (
"259 742 OFFCURVE",
"277 747 OFFCURVE",
"293 757 CURVE SMOOTH",
"362 799 LINE",
"424 755 LINE SMOOTH",
"435 747 OFFCURVE",
"450 742 OFFCURVE",
"464 742 CURVE SMOOTH",
"480 742 OFFCURVE",
"487 747 OFFCURVE",
"487 753 CURVE SMOOTH",
"487 762 OFFCURVE",
"484 767 OFFCURVE",
"474 779 CURVE SMOOTH",
"429 832 LINE SMOOTH",
"415 849 OFFCURVE",
"404 854 OFFCURVE",
"378 854 CURVE SMOOTH",
"357 854 LINE SMOOTH",
"330 854 OFFCURVE",
"318 849 OFFCURVE",
"301 832 CURVE SMOOTH",
"244 777 LINE SMOOTH",
"231 764 OFFCURVE",
"227 758 OFFCURVE",
"227 752 CURVE SMOOTH",
"227 746 OFFCURVE",
"233 742 OFFCURVE",
"245 742 CURVE SMOOTH"
);
},
{
closed = 1;
nodes = (
"373 875 OFFCURVE",
"476 912 OFFCURVE",
"476 976 CURVE SMOOTH",
"476 1014 OFFCURVE",
"439 1042 OFFCURVE",
"383 1042 CURVE SMOOTH",
"341 1042 OFFCURVE",
"279 1026 OFFCURVE",
"279 1006 CURVE SMOOTH",
"279 999 OFFCURVE",
"288 978 OFFCURVE",
"304 978 CURVE SMOOTH",
"316 978 OFFCURVE",
"341 991 OFFCURVE",
"370 991 CURVE SMOOTH",
"395 991 OFFCURVE",
"411 982 OFFCURVE",
"411 967 CURVE SMOOTH",
"411 931 OFFCURVE",
"317 922 OFFCURVE",
"317 906 CURVE SMOOTH",
"317 899 OFFCURVE",
"334 875 OFFCURVE",
"351 875 CURVE SMOOTH"
);
}
);
width = 613;
},
{
anchors = (
{
name = bottom;
position = "{279, 0}";
},
{
name = ogonek;
position = "{563, 0}";
},
{
name = top;
position = "{385, 1039}";
}
);
layerId = "1564F15A-2B4C-4FFD-AA43-969DC22C29FF";
paths = (
{
closed = 1;
nodes = (
"73 -2 LINE SMOOTH",
"97 -2 OFFCURVE",
"114 4 OFFCURVE",
"121 19 CURVE SMOOTH",
"176 141 LINE",
"407 141 LINE",
"436 19 LINE SMOOTH",
"440 3 OFFCURVE",
"460 -2 OFFCURVE",
"490 -2 CURVE SMOOTH",
"534 -2 LINE SMOOTH",
"569 -2 OFFCURVE",
"588 7 OFFCURVE",
"588 21 CURVE SMOOTH",
"588 24 OFFCURVE",
"586 35 OFFCURVE",
"585 38 CURVE",
"433 681 LINE SMOOTH",
"429 697 OFFCURVE",
"407 702 OFFCURVE",
"378 702 CURVE SMOOTH",
"326 702 LINE SMOOTH",
"297 702 OFFCURVE",
"274 697 OFFCURVE",
"267 681 CURVE SMOOTH",
"-19 38 LINE",
"-23 30 OFFCURVE",
"-25 24 OFFCURVE",
"-25 18 CURVE SMOOTH",
"-25 5 OFFCURVE",
"-6 -2 OFFCURVE",
"33 -2 CURVE SMOOTH"
);
},
{
closed = 1;
nodes = (
"308 451 LINE SMOOTH",
"317 471 OFFCURVE",
"324 494 OFFCURVE",
"330 515 CURVE",
"334 515 LINE",
"335 494 OFFCURVE",
"337 472 OFFCURVE",
"342 451 CURVE",
"377 273 LINE",
"232 273 LINE"
);
},
{
closed = 1;
nodes = (
"275 734 OFFCURVE",
"289 741 OFFCURVE",
"308 751 CURVE SMOOTH",
"360 779 LINE",
"406 751 LINE SMOOTH",
"422 741 OFFCURVE",
"437 734 OFFCURVE",
"470 734 CURVE SMOOTH",
"495 734 OFFCURVE",
"503 738 OFFCURVE",
"503 745 CURVE SMOOTH",
"503 750 OFFCURVE",
"498 757 OFFCURVE",
"485 774 CURVE SMOOTH",
"437 836 LINE SMOOTH",
"422 855 OFFCURVE",
"409 860 OFFCURVE",
"378 860 CURVE SMOOTH",
"358 860 LINE SMOOTH",
"328 860 OFFCURVE",
"314 855 OFFCURVE",
"296 837 CURVE SMOOTH",
"233 774 LINE SMOOTH",
"219 760 OFFCURVE",
"209 749 OFFCURVE",
"209 743 CURVE SMOOTH",
"209 738 OFFCURVE",
"215 734 OFFCURVE",
"241 734 CURVE SMOOTH"
);
},
{
closed = 1;
nodes = (
"380 879 OFFCURVE",
"481 917 OFFCURVE",
"481 985 CURVE SMOOTH",
"481 1027 OFFCURVE",
"442 1055 OFFCURVE",
"376 1055 CURVE SMOOTH",
"326 1055 OFFCURVE",
"274 1039 OFFCURVE",
"274 1017 CURVE SMOOTH",
"274 1008 OFFCURVE",
"284 982 OFFCURVE",
"303 982 CURVE SMOOTH",
"314 982 OFFCURVE",
"341 992 OFFCURVE",
"367 992 CURVE SMOOTH",
"383 992 OFFCURVE",
"397 988 OFFCURVE",
"397 972 CURVE SMOOTH",
"397 933 OFFCURVE",
"312 926 OFFCURVE",
"312 907 CURVE SMOOTH",
"312 896 OFFCURVE",
"338 879 OFFCURVE",
"355 879 CURVE SMOOTH"
);
}
);
width = 613;
}
);
leftKerningGroup = A;
rightKerningGroup = A;
unicode = 1EA8;
},
{
glyphname = Acircumflextilde;
layers = (
{
anchors = (
{
name = bottom;
position = "{279, 0}";
},
{
name = ogonek;
position = "{554, 0}";
},
{
name = top;
position = "{380, 974}";
}
);
layerId = master01;
paths = (
{
closed = 1;
nodes = (
"33 -2 LINE SMOOTH",
"53 -2 OFFCURVE",
"69 2 OFFCURVE",
"74 14 CURVE SMOOTH",
"148 178 LINE",
"442 178 LINE",
"484 14 LINE SMOOTH",
"487 2 OFFCURVE",
"503 -2 OFFCURVE",
"523 -2 CURVE SMOOTH",
"531 -2 LINE SMOOTH",
"565 -2 OFFCURVE",
"575 7 OFFCURVE",
"575 18 CURVE SMOOTH",
"575 21 OFFCURVE",
"575 24 OFFCURVE",
"574 28 CURVE SMOOTH",
"406 686 LINE SMOOTH",
"403 698 OFFCURVE",
"387 702 OFFCURVE",
"367 702 CURVE SMOOTH",
"338 702 LINE SMOOTH",
"317 702 OFFCURVE",
"302 698 OFFCURVE",
"297 686 CURVE SMOOTH",
"-8 29 LINE SMOOTH",
"-11 23 OFFCURVE",
"-13 18 OFFCURVE",
"-13 14 CURVE SMOOTH",
"-13 3 OFFCURVE",
"0 -2 OFFCURVE",
"28 -2 CURVE SMOOTH"
);
},
{
closed = 1;
nodes = (
"321 552 LINE SMOOTH",
"329 570 OFFCURVE",
"336 591 OFFCURVE",
"342 610 CURVE",
"344 610 LINE",
"344 591 OFFCURVE",
"345 571 OFFCURVE",
"350 552 CURVE SMOOTH",
"423 254 LINE",
"184 254 LINE"
);
},
{
closed = 1;
nodes = (
"259 742 OFFCURVE",
"277 747 OFFCURVE",
"293 757 CURVE SMOOTH",
"362 799 LINE",
"424 755 LINE SMOOTH",
"435 747 OFFCURVE",
"450 742 OFFCURVE",
"464 742 CURVE SMOOTH",
"480 742 OFFCURVE",
"487 747 OFFCURVE",
"487 753 CURVE SMOOTH",
"487 762 OFFCURVE",
"484 767 OFFCURVE",
"474 779 CURVE SMOOTH",
"429 832 LINE SMOOTH",
"415 849 OFFCURVE",
"404 854 OFFCURVE",
"378 854 CURVE SMOOTH",
"357 854 LINE SMOOTH",
"330 854 OFFCURVE",
"318 849 OFFCURVE",
"301 832 CURVE SMOOTH",
"244 777 LINE SMOOTH",
"231 764 OFFCURVE",
"227 758 OFFCURVE",
"227 752 CURVE SMOOTH",
"227 746 OFFCURVE",
"233 742 OFFCURVE",
"245 742 CURVE SMOOTH"
);
},
{
closed = 1;
nodes = (
"499 893 OFFCURVE",
"535 917 OFFCURVE",
"557 964 CURVE SMOOTH",
"561 972 OFFCURVE",
"562 977 OFFCURVE",
"562 979 CURVE SMOOTH",
"562 987 OFFCURVE",
"545 998 OFFCURVE",
"536 998 CURVE SMOOTH",
"521 998 OFFCURVE",
"507 955 OFFCURVE",
"460 955 CURVE SMOOTH",
"418 955 OFFCURVE",
"355 998 OFFCURVE",
"297 998 CURVE SMOOTH",
"250 998 OFFCURVE",
"215 971 OFFCURVE",
"197 930 CURVE SMOOTH",
"193 921 OFFCURVE",
"192 916 OFFCURVE",
"192 914 CURVE SMOOTH",
"192 904 OFFCURVE",
"210 895 OFFCURVE",
"220 895 CURVE SMOOTH",
"237 895 OFFCURVE",
"248 934 OFFCURVE",
"291 934 CURVE SMOOTH",
"332 934 OFFCURVE",
"391 893 OFFCURVE",
"453 893 CURVE SMOOTH"
);
}
);
width = 613;
},
{
anchors = (
{
name = bottom;
position = "{279, 0}";
},
{
name = ogonek;
position = "{563, 0}";
},
{
name = top;
position = "{381, 989}";
}
);
layerId = "1564F15A-2B4C-4FFD-AA43-969DC22C29FF";
paths = (
{
closed = 1;
nodes = (
"73 -2 LINE SMOOTH",
"97 -2 OFFCURVE",
"114 4 OFFCURVE",
"121 19 CURVE SMOOTH",
"176 141 LINE",
"407 141 LINE",
"436 19 LINE SMOOTH",
"440 3 OFFCURVE",
"460 -2 OFFCURVE",
"490 -2 CURVE SMOOTH",
"534 -2 LINE SMOOTH",
"569 -2 OFFCURVE",
"588 7 OFFCURVE",
"588 21 CURVE SMOOTH",
"588 24 OFFCURVE",
"586 35 OFFCURVE",
"585 38 CURVE",
"433 681 LINE SMOOTH",
"429 697 OFFCURVE",
"407 702 OFFCURVE",
"378 702 CURVE SMOOTH",
"326 702 LINE SMOOTH",
"297 702 OFFCURVE",
"274 697 OFFCURVE",
"267 681 CURVE SMOOTH",
"-19 38 LINE",
"-23 30 OFFCURVE",
"-25 24 OFFCURVE",
"-25 18 CURVE SMOOTH",
"-25 5 OFFCURVE",
"-6 -2 OFFCURVE",
"33 -2 CURVE SMOOTH"
);
},
{
closed = 1;
nodes = (
"308 451 LINE SMOOTH",
"317 471 OFFCURVE",
"324 494 OFFCURVE",
"330 515 CURVE",
"334 515 LINE",
"335 494 OFFCURVE",
"337 472 OFFCURVE",
"342 451 CURVE",
"377 273 LINE",
"232 273 LINE"
);
},
{
closed = 1;
nodes = (
"275 734 OFFCURVE",
"289 741 OFFCURVE",
"308 751 CURVE SMOOTH",
"360 779 LINE",
"406 751 LINE SMOOTH",
"422 741 OFFCURVE",
"437 734 OFFCURVE",
"470 734 CURVE SMOOTH",
"495 734 OFFCURVE",
"503 738 OFFCURVE",
"503 745 CURVE SMOOTH",
"503 750 OFFCURVE",
"498 757 OFFCURVE",
"485 774 CURVE SMOOTH",
"437 836 LINE SMOOTH",
"422 855 OFFCURVE",
"409 860 OFFCURVE",
"378 860 CURVE SMOOTH",
"358 860 LINE SMOOTH",
"328 860 OFFCURVE",
"314 855 OFFCURVE",
"296 837 CURVE SMOOTH",
"233 774 LINE SMOOTH",
"219 760 OFFCURVE",
"209 749 OFFCURVE",
"209 743 CURVE SMOOTH",
"209 738 OFFCURVE",
"215 734 OFFCURVE",
"241 734 CURVE SMOOTH"
);
},
{
closed = 1;
nodes = (
"493 893 OFFCURVE",
"539 931 OFFCURVE",
"555 967 CURVE SMOOTH",
"558 974 OFFCURVE",
"560 980 OFFCURVE",
"560 986 CURVE SMOOTH",
"560 1001 OFFCURVE",
"527 1014 OFFCURVE",
"516 1014 CURVE SMOOTH",
"499 1014 OFFCURVE",
"487 981 OFFCURVE",
"448 981 CURVE SMOOTH",
"411 981 OFFCURVE",
"373 1015 OFFCURVE",
"312 1015 CURVE SMOOTH",
"256 1015 OFFCURVE",
"212 977 OFFCURVE",
"198 941 CURVE SMOOTH",
"196 936 OFFCURVE",
"194 930 OFFCURVE",
"194 921 CURVE SMOOTH",
"194 908 OFFCURVE",
"221 894 OFFCURVE",
"239 894 CURVE SMOOTH",
"258 894 OFFCURVE",
"267 927 OFFCURVE",
"310 927 CURVE SMOOTH",
"337 927 OFFCURVE",
"382 893 OFFCURVE",
"441 893 CURVE SMOOTH"
);
}
);
width = 613;
}
);
leftKerningGroup = A;
rightKerningGroup = A;
unicode = 1EAA;
},
{
glyphname = Adblgrave;
layers = (
{
anchors = (
{
name = bottom;
position = "{279, 0}";
},
{
name = ogonek;
position = "{554, 0}";
},
{
name = top;
position = "{367, 852}";
}
);
layerId = master01;
paths = (
{
closed = 1;
nodes = (
"33 -2 LINE SMOOTH",
"53 -2 OFFCURVE",
"69 2 OFFCURVE",
"74 14 CURVE SMOOTH",
"148 178 LINE",
"442 178 LINE",
"484 14 LINE SMOOTH",
"487 2 OFFCURVE",
"503 -2 OFFCURVE",
"523 -2 CURVE SMOOTH",
"531 -2 LINE SMOOTH",
"565 -2 OFFCURVE",
"575 7 OFFCURVE",
"575 18 CURVE SMOOTH",
"575 21 OFFCURVE",
"575 24 OFFCURVE",
"574 28 CURVE SMOOTH",
"406 686 LINE SMOOTH",
"403 698 OFFCURVE",
"387 702 OFFCURVE",
"367 702 CURVE SMOOTH",
"338 702 LINE SMOOTH",
"317 702 OFFCURVE",
"302 698 OFFCURVE",
"297 686 CURVE SMOOTH",
"-8 29 LINE SMOOTH",
"-11 23 OFFCURVE",
"-13 18 OFFCURVE",
"-13 14 CURVE SMOOTH",
"-13 3 OFFCURVE",
"0 -2 OFFCURVE",
"28 -2 CURVE SMOOTH"
);
},
{
closed = 1;
nodes = (
"321 552 LINE SMOOTH",
"329 570 OFFCURVE",
"336 591 OFFCURVE",
"342 610 CURVE",
"344 610 LINE",
"344 591 OFFCURVE",
"345 571 OFFCURVE",
"350 552 CURVE SMOOTH",
"423 254 LINE",
"184 254 LINE"
);
},
{
closed = 1;
nodes = (
"338 752 OFFCURVE",
"350 757 OFFCURVE",
"350 766 CURVE SMOOTH",
"350 772 OFFCURVE",
"347 777 OFFCURVE",
"341 784 CURVE SMOOTH",
"303 829 LINE SMOOTH",
"278 859 OFFCURVE",
"262 864 OFFCURVE",
"219 864 CURVE SMOOTH",
"184 864 OFFCURVE",
"164 857 OFFCURVE",
"164 843 CURVE SMOOTH",
"164 834 OFFCURVE",
"169 826 OFFCURVE",
"200 806 CURVE SMOOTH",
"251 773 LINE SMOOTH",
"277 756 OFFCURVE",
"290 752 OFFCURVE",
"322 752 CURVE SMOOTH"
);
},
{
closed = 1;
nodes = (
"498 752 OFFCURVE",
"510 757 OFFCURVE",
"510 766 CURVE SMOOTH",
"510 772 OFFCURVE",
"507 777 OFFCURVE",
"501 784 CURVE SMOOTH",
"463 829 LINE SMOOTH",
"438 859 OFFCURVE",
"422 864 OFFCURVE",
"379 864 CURVE SMOOTH",
"344 864 OFFCURVE",
"324 857 OFFCURVE",
"324 843 CURVE SMOOTH",
"324 834 OFFCURVE",
"329 826 OFFCURVE",
"360 806 CURVE SMOOTH",
"411 773 LINE SMOOTH",
"437 756 OFFCURVE",
"450 752 OFFCURVE",
"482 752 CURVE SMOOTH"
);
}
);
width = 613;
},
{
anchors = (
{
name = bottom;
position = "{279, 0}";
},
{
name = ogonek;
position = "{563, 0}";
},
{
name = top;
position = "{369, 862}";
}
);
layerId = "1564F15A-2B4C-4FFD-AA43-969DC22C29FF";
paths = (
{
closed = 1;
nodes = (
"73 -2 LINE SMOOTH",
"97 -2 OFFCURVE",
"114 4 OFFCURVE",
"121 19 CURVE SMOOTH",
"176 141 LINE",
"407 141 LINE",
"436 19 LINE SMOOTH",
"440 3 OFFCURVE",
"460 -2 OFFCURVE",
"490 -2 CURVE SMOOTH",
"534 -2 LINE SMOOTH",
"569 -2 OFFCURVE",
"588 7 OFFCURVE",
"588 21 CURVE SMOOTH",
"588 24 OFFCURVE",
"586 35 OFFCURVE",
"585 38 CURVE",
"433 681 LINE SMOOTH",
"429 697 OFFCURVE",
"407 702 OFFCURVE",
"378 702 CURVE SMOOTH",
"326 702 LINE SMOOTH",
"297 702 OFFCURVE",
"274 697 OFFCURVE",
"267 681 CURVE SMOOTH",
"-19 38 LINE",
"-23 30 OFFCURVE",
"-25 24 OFFCURVE",
"-25 18 CURVE SMOOTH",
"-25 5 OFFCURVE",
"-6 -2 OFFCURVE",
"33 -2 CURVE SMOOTH"
);
},
{
closed = 1;
nodes = (
"308 451 LINE SMOOTH",
"317 471 OFFCURVE",
"324 494 OFFCURVE",
"330 515 CURVE",
"334 515 LINE",
"335 494 OFFCURVE",
"337 472 OFFCURVE",
"342 451 CURVE",
"377 273 LINE",
"232 273 LINE"
);
},
{
closed = 1;
nodes = (
"317 749 OFFCURVE",
"330 753 OFFCURVE",
"330 763 CURVE SMOOTH",
"330 768 OFFCURVE",
"328 775 OFFCURVE",
"320 785 CURVE SMOOTH",
"272 845 LINE SMOOTH",
"254 868 OFFCURVE",
"236 875 OFFCURVE",
"189 875 CURVE SMOOTH",
"142 875 OFFCURVE",
"116 872 OFFCURVE",
"116 856 CURVE SMOOTH",
"116 848 OFFCURVE",
"123 838 OFFCURVE",
"142 825 CURVE SMOOTH",
"223 768 LINE SMOOTH",
"243 754 OFFCURVE",
"256 749 OFFCURVE",
"291 749 CURVE SMOOTH"
);
},
{
closed = 1;
nodes = (
"497 749 OFFCURVE",
"510 753 OFFCURVE",
"510 763 CURVE SMOOTH",
"510 768 OFFCURVE",
"508 775 OFFCURVE",
"500 785 CURVE SMOOTH",
"452 845 LINE SMOOTH",
"434 868 OFFCURVE",
"416 875 OFFCURVE",
"369 875 CURVE SMOOTH",
"322 875 OFFCURVE",
"296 872 OFFCURVE",
"296 856 CURVE SMOOTH",
"296 848 OFFCURVE",
"303 838 OFFCURVE",
"322 825 CURVE SMOOTH",
"403 768 LINE SMOOTH",
"423 754 OFFCURVE",
"436 749 OFFCURVE",
"471 749 CURVE SMOOTH"
);
}
);
width = 613;
}
);
leftKerningGroup = A;
rightKerningGroup = A;
unicode = 0200;
},
{
glyphname = Adieresis;
layers = (
{
anchors = (
{
name = bottom;
position = "{279, 0}";
},
{
name = ogonek;
position = "{554, 0}";
},
{
name = top;
position = "{367, 842}";
}
);
layerId = master01;
paths = (
{
closed = 1;
nodes = (
"33 -2 LINE SMOOTH",
"53 -2 OFFCURVE",
"69 2 OFFCURVE",
"74 14 CURVE SMOOTH",
"148 178 LINE",
"442 178 LINE",
"484 14 LINE SMOOTH",
"487 2 OFFCURVE",
"503 -2 OFFCURVE",
"523 -2 CURVE SMOOTH",
"531 -2 LINE SMOOTH",
"565 -2 OFFCURVE",
"575 7 OFFCURVE",
"575 18 CURVE SMOOTH",
"575 21 OFFCURVE",
"575 24 OFFCURVE",
"574 28 CURVE SMOOTH",
"406 686 LINE SMOOTH",
"403 698 OFFCURVE",
"387 702 OFFCURVE",
"367 702 CURVE SMOOTH",
"338 702 LINE SMOOTH",
"317 702 OFFCURVE",
"302 698 OFFCURVE",
"297 686 CURVE SMOOTH",
"-8 29 LINE SMOOTH",
"-11 23 OFFCURVE",
"-13 18 OFFCURVE",
"-13 14 CURVE SMOOTH",
"-13 3 OFFCURVE",
"0 -2 OFFCURVE",
"28 -2 CURVE SMOOTH"
);
},
{
closed = 1;
nodes = (
"321 552 LINE SMOOTH",
"329 570 OFFCURVE",
"336 591 OFFCURVE",
"342 610 CURVE",
"344 610 LINE",
"344 591 OFFCURVE",
"345 571 OFFCURVE",
"350 552 CURVE SMOOTH",
"423 254 LINE",
"184 254 LINE"
);
},
{
closed = 1;
nodes = (
"481 758 OFFCURVE",
"483 772 OFFCURVE",
"484 780 CURVE SMOOTH",
"490 836 LINE SMOOTH",
"491 845 OFFCURVE",
"489 858 OFFCURVE",
"448 858 CURVE SMOOTH",
"402 858 OFFCURVE",
"403 841 OFFCURVE",
"402 836 CURVE SMOOTH",
"396 780 LINE SMOOTH",
"395 772 OFFCURVE",
"396 758 OFFCURVE",
"438 758 CURVE SMOOTH"
);
},
{
closed = 1;
nodes = (
"324 758 OFFCURVE",
"323 775 OFFCURVE",
"324 780 CURVE SMOOTH",
"330 836 LINE SMOOTH",
"331 844 OFFCURVE",
"331 858 OFFCURVE",
"288 858 CURVE SMOOTH",
"245 858 OFFCURVE",
"243 844 OFFCURVE",
"242 836 CURVE SMOOTH",
"236 780 LINE SMOOTH",
"235 771 OFFCURVE",
"237 758 OFFCURVE",
"278 758 CURVE SMOOTH"
);
}
);
width = 613;
},
{
anchors = (
{
name = bottom;
position = "{279, 0}";
},
{
name = ogonek;
position = "{563, 0}";
},
{
name = top;
position = "{368, 852}";
}
);
layerId = "1564F15A-2B4C-4FFD-AA43-969DC22C29FF";
paths = (
{
closed = 1;
nodes = (
"73 -2 LINE SMOOTH",
"97 -2 OFFCURVE",
"114 4 OFFCURVE",
"121 19 CURVE SMOOTH",
"176 141 LINE",
"407 141 LINE",
"436 19 LINE SMOOTH",
"440 3 OFFCURVE",
"460 -2 OFFCURVE",
"490 -2 CURVE SMOOTH",
"534 -2 LINE SMOOTH",
"569 -2 OFFCURVE",
"588 7 OFFCURVE",
"588 21 CURVE SMOOTH",
"588 24 OFFCURVE",
"586 35 OFFCURVE",
"585 38 CURVE",
"433 681 LINE SMOOTH",
"429 697 OFFCURVE",
"407 702 OFFCURVE",
"378 702 CURVE SMOOTH",
"326 702 LINE SMOOTH",
"297 702 OFFCURVE",
"274 697 OFFCURVE",
"267 681 CURVE SMOOTH",
"-19 38 LINE",
"-23 30 OFFCURVE",
"-25 24 OFFCURVE",
"-25 18 CURVE SMOOTH",
"-25 5 OFFCURVE",
"-6 -2 OFFCURVE",
"33 -2 CURVE SMOOTH"
);
},
{
closed = 1;
nodes = (
"308 451 LINE SMOOTH",
"317 471 OFFCURVE",
"324 494 OFFCURVE",
"330 515 CURVE",
"334 515 LINE",
"335 494 OFFCURVE",
"337 472 OFFCURVE",
"342 451 CURVE",
"377 273 LINE",
"232 273 LINE"
);
},
{
closed = 1;
nodes = (
"514 746 OFFCURVE",
"516 769 OFFCURVE",
"517 778 CURVE SMOOTH",
"524 846 LINE SMOOTH",
"525 856 OFFCURVE",
"527 878 OFFCURVE",
"464 878 CURVE SMOOTH",
"399 878 OFFCURVE",
"397 855 OFFCURVE",
"396 846 CURVE SMOOTH",
"389 778 LINE SMOOTH",
"388 768 OFFCURVE",
"386 746 OFFCURVE",
"449 746 CURVE SMOOTH"
);
},
{
closed = 1;
nodes = (
"329 746 OFFCURVE",
"330 770 OFFCURVE",
"331 778 CURVE SMOOTH",
"338 846 LINE SMOOTH",
"339 857 OFFCURVE",
"339 878 OFFCURVE",
"278 878 CURVE SMOOTH",
"213 878 OFFCURVE",
"211 855 OFFCURVE",
"210 846 CURVE SMOOTH",
"203 778 LINE SMOOTH",
"202 769 OFFCURVE",
"199 746 OFFCURVE",
"264 746 CURVE SMOOTH"
);
}
);
width = 613;
}
);
leftKerningGroup = A;
rightKerningGroup = A;
unicode = 00C4;
},
{
glyphname = Adotbelow;
layers = (
{
anchors = (
{
name = bottom;
position = "{263, -155}";
},
{
name = ogonek;
position = "{554, 0}";
},
{
name = top;
position = "{352, 700}";
}
);
layerId = master01;
paths = (
{
closed = 1;
nodes = (
"33 -2 LINE SMOOTH",
"53 -2 OFFCURVE",
"69 2 OFFCURVE",
"74 14 CURVE SMOOTH",
"148 178 LINE",
"442 178 LINE",
"484 14 LINE SMOOTH",
"487 2 OFFCURVE",
"503 -2 OFFCURVE",
"523 -2 CURVE SMOOTH",
"531 -2 LINE SMOOTH",
"565 -2 OFFCURVE",
"575 7 OFFCURVE",
"575 18 CURVE SMOOTH",
"575 21 OFFCURVE",
"575 24 OFFCURVE",
"574 28 CURVE SMOOTH",
"406 686 LINE SMOOTH",
"403 698 OFFCURVE",
"387 702 OFFCURVE",
"367 702 CURVE SMOOTH",
"338 702 LINE SMOOTH",
"317 702 OFFCURVE",
"302 698 OFFCURVE",
"297 686 CURVE SMOOTH",
"-8 29 LINE SMOOTH",
"-11 23 OFFCURVE",
"-13 18 OFFCURVE",
"-13 14 CURVE SMOOTH",
"-13 3 OFFCURVE",
"0 -2 OFFCURVE",
"28 -2 CURVE SMOOTH"
);
},
{
closed = 1;
nodes = (
"321 552 LINE SMOOTH",
"329 570 OFFCURVE",
"336 591 OFFCURVE",
"342 610 CURVE",
"344 610 LINE",
"344 591 OFFCURVE",
"345 571 OFFCURVE",
"350 552 CURVE SMOOTH",
"423 254 LINE",
"184 254 LINE"
);
},
{
closed = 1;
nodes = (
"294 -175 OFFCURVE",
"305 -166 OFFCURVE",
"306 -153 CURVE SMOOTH",
"311 -102 LINE SMOOTH",
"312 -92 OFFCURVE",
"308 -80 OFFCURVE",
"271 -80 CURVE SMOOTH",
"227 -80 OFFCURVE",
"225 -97 OFFCURVE",
"225 -102 CURVE SMOOTH",
"220 -153 LINE SMOOTH",
"219 -167 OFFCURVE",
"228 -175 OFFCURVE",
"261 -175 CURVE"
);
}
);
width = 613;
},
{
anchors = (
{
name = bottom;
position = "{260, -185}";
},
{
name = ogonek;
position = "{563, 0}";
},
{
name = top;
position = "{352, 700}";
}
);
layerId = "1564F15A-2B4C-4FFD-AA43-969DC22C29FF";
paths = (
{
closed = 1;
nodes = (
"73 -2 LINE SMOOTH",
"97 -2 OFFCURVE",
"114 4 OFFCURVE",
"121 19 CURVE SMOOTH",
"176 141 LINE",
"407 141 LINE",
"436 19 LINE SMOOTH",
"440 3 OFFCURVE",
"460 -2 OFFCURVE",
"490 -2 CURVE SMOOTH",
"534 -2 LINE SMOOTH",
"569 -2 OFFCURVE",
"588 7 OFFCURVE",
"588 21 CURVE SMOOTH",
"588 24 OFFCURVE",
"586 35 OFFCURVE",
"585 38 CURVE",
"433 681 LINE SMOOTH",
"429 697 OFFCURVE",
"407 702 OFFCURVE",
"378 702 CURVE SMOOTH",
"326 702 LINE SMOOTH",
"297 702 OFFCURVE",
"274 697 OFFCURVE",
"267 681 CURVE SMOOTH",
"-19 38 LINE",
"-23 30 OFFCURVE",
"-25 24 OFFCURVE",
"-25 18 CURVE SMOOTH",
"-25 5 OFFCURVE",
"-6 -2 OFFCURVE",
"33 -2 CURVE SMOOTH"
);
},
{
closed = 1;
nodes = (
"308 451 LINE SMOOTH",
"317 471 OFFCURVE",
"324 494 OFFCURVE",
"330 515 CURVE",
"334 515 LINE",
"335 494 OFFCURVE",
"337 472 OFFCURVE",
"342 451 CURVE",
"377 273 LINE",
"232 273 LINE"
);
},
{
closed = 1;
nodes = (
"300 -204 OFFCURVE",
"320 -193 OFFCURVE",
"322 -172 CURVE SMOOTH",
"328 -112 LINE SMOOTH",
"329 -101 OFFCURVE",
"328 -80 OFFCURVE",
"270 -80 CURVE SMOOTH",
"228 -80 OFFCURVE",
"208 -91 OFFCURVE",
"206 -112 CURVE SMOOTH",
"200 -172 LINE SMOOTH",
"199 -182 OFFCURVE",
"199 -204 OFFCURVE",
"258 -204 CURVE SMOOTH"
);
}
);
width = 613;
}
);
leftKerningGroup = A;
rightKerningGroup = A;
unicode = 1EA0;
},
{
glyphname = Agrave;
layers = (
{
anchors = (
{
name = bottom;
position = "{279, 0}";
},
{
name = ogonek;
position = "{554, 0}";
},
{
name = top;
position = "{368, 852}";
}
);
layerId = master01;
paths = (
{
closed = 1;
nodes = (
"33 -2 LINE SMOOTH",
"53 -2 OFFCURVE",
"69 2 OFFCURVE",
"74 14 CURVE SMOOTH",
"148 178 LINE",
"442 178 LINE",
"484 14 LINE SMOOTH",
"487 2 OFFCURVE",
"503 -2 OFFCURVE",
"523 -2 CURVE SMOOTH",
"531 -2 LINE SMOOTH",
"565 -2 OFFCURVE",
"575 7 OFFCURVE",
"575 18 CURVE SMOOTH",
"575 21 OFFCURVE",
"575 24 OFFCURVE",
"574 28 CURVE SMOOTH",
"406 686 LINE SMOOTH",
"403 698 OFFCURVE",
"387 702 OFFCURVE",
"367 702 CURVE SMOOTH",
"338 702 LINE SMOOTH",
"317 702 OFFCURVE",
"302 698 OFFCURVE",
"297 686 CURVE SMOOTH",
"-8 29 LINE SMOOTH",
"-11 23 OFFCURVE",
"-13 18 OFFCURVE",
"-13 14 CURVE SMOOTH",
"-13 3 OFFCURVE",
"0 -2 OFFCURVE",
"28 -2 CURVE SMOOTH"
);
},
{
closed = 1;
nodes = (
"321 552 LINE SMOOTH",
"329 570 OFFCURVE",
"336 591 OFFCURVE",
"342 610 CURVE",
"344 610 LINE",
"344 591 OFFCURVE",
"345 571 OFFCURVE",
"350 552 CURVE SMOOTH",
"423 254 LINE",
"184 254 LINE"
);
},
{
closed = 1;
nodes = (
"424 752 OFFCURVE",
"436 757 OFFCURVE",
"436 766 CURVE SMOOTH",
"436 772 OFFCURVE",
"433 777 OFFCURVE",
"427 784 CURVE SMOOTH",
"389 829 LINE SMOOTH",
"364 859 OFFCURVE",
"348 864 OFFCURVE",
"305 864 CURVE SMOOTH",
"270 864 OFFCURVE",
"250 857 OFFCURVE",
"250 843 CURVE SMOOTH",
"250 834 OFFCURVE",
"255 826 OFFCURVE",
"286 806 CURVE SMOOTH",
"337 773 LINE SMOOTH",
"363 756 OFFCURVE",
"376 752 OFFCURVE",
"408 752 CURVE SMOOTH"
);
}
);
width = 613;
},
{
anchors = (
{
name = bottom;
position = "{279, 0}";
},
{
name = ogonek;
position = "{563, 0}";
},
{
name = top;
position = "{369, 862}";
}
);
layerId = "1564F15A-2B4C-4FFD-AA43-969DC22C29FF";
paths = (
{
closed = 1;
nodes = (
"73 -2 LINE SMOOTH",
"97 -2 OFFCURVE",
"114 4 OFFCURVE",
"121 19 CURVE SMOOTH",
"176 141 LINE",
"407 141 LINE",
"436 19 LINE SMOOTH",
"440 3 OFFCURVE",
"460 -2 OFFCURVE",
"490 -2 CURVE SMOOTH",
"534 -2 LINE SMOOTH",
"569 -2 OFFCURVE",
"588 7 OFFCURVE",
"588 21 CURVE SMOOTH",
"588 24 OFFCURVE",
"586 35 OFFCURVE",
"585 38 CURVE",
"433 681 LINE SMOOTH",
"429 697 OFFCURVE",
"407 702 OFFCURVE",
"378 702 CURVE SMOOTH",
"326 702 LINE SMOOTH",
"297 702 OFFCURVE",
"274 697 OFFCURVE",
"267 681 CURVE SMOOTH",
"-19 38 LINE",
"-23 30 OFFCURVE",
"-25 24 OFFCURVE",
"-25 18 CURVE SMOOTH",
"-25 5 OFFCURVE",
"-6 -2 OFFCURVE",
"33 -2 CURVE SMOOTH"
);
},
{
closed = 1;
nodes = (
"308 451 LINE SMOOTH",
"317 471 OFFCURVE",
"324 494 OFFCURVE",
"330 515 CURVE",
"334 515 LINE",
"335 494 OFFCURVE",
"337 472 OFFCURVE",
"342 451 CURVE",
"377 273 LINE",
"232 273 LINE"
);
},
{
closed = 1;
nodes = (
"437 749 OFFCURVE",
"450 753 OFFCURVE",
"450 763 CURVE SMOOTH",
"450 768 OFFCURVE",
"448 775 OFFCURVE",
"440 785 CURVE SMOOTH",
"392 845 LINE SMOOTH",
"374 868 OFFCURVE",
"356 875 OFFCURVE",
"309 875 CURVE SMOOTH",
"262 875 OFFCURVE",
"236 872 OFFCURVE",
"236 856 CURVE SMOOTH",
"236 848 OFFCURVE",
"243 838 OFFCURVE",
"262 825 CURVE SMOOTH",
"343 768 LINE SMOOTH",
"363 754 OFFCURVE",
"376 749 OFFCURVE",
"411 749 CURVE SMOOTH"
);
}
);
width = 613;
}
);
leftKerningGroup = A;
rightKerningGroup = A;
unicode = 00C0;
},
{
glyphname = Ahookabove;
layers = (
{
anchors = (
{
name = bottom;
position = "{279, 0}";
},
{
name = ogonek;
position = "{554, 0}";
},
{
name = top;
position = "{373, 897}";
}
);
layerId = master01;
paths = (
{
closed = 1;
nodes = (
"33 -2 LINE SMOOTH",
"53 -2 OFFCURVE",
"69 2 OFFCURVE",
"74 14 CURVE SMOOTH",
"148 178 LINE",
"442 178 LINE",
"484 14 LINE SMOOTH",
"487 2 OFFCURVE",
"503 -2 OFFCURVE",
"523 -2 CURVE SMOOTH",
"531 -2 LINE SMOOTH",
"565 -2 OFFCURVE",
"575 7 OFFCURVE",
"575 18 CURVE SMOOTH",
"575 21 OFFCURVE",
"575 24 OFFCURVE",
"574 28 CURVE SMOOTH",
"406 686 LINE SMOOTH",
"403 698 OFFCURVE",
"387 702 OFFCURVE",
"367 702 CURVE SMOOTH",
"338 702 LINE SMOOTH",
"317 702 OFFCURVE",
"302 698 OFFCURVE",
"297 686 CURVE SMOOTH",
"-8 29 LINE SMOOTH",
"-11 23 OFFCURVE",
"-13 18 OFFCURVE",
"-13 14 CURVE SMOOTH",
"-13 3 OFFCURVE",
"0 -2 OFFCURVE",
"28 -2 CURVE SMOOTH"
);
},
{
closed = 1;
nodes = (
"321 552 LINE SMOOTH",
"329 570 OFFCURVE",
"336 591 OFFCURVE",
"342 610 CURVE",
"344 610 LINE",
"344 591 OFFCURVE",
"345 571 OFFCURVE",
"350 552 CURVE SMOOTH",
"423 254 LINE",
"184 254 LINE"
);
},
{
closed = 1;
nodes = (
"359 738 OFFCURVE",
"462 775 OFFCURVE",
"462 839 CURVE SMOOTH",
"462 877 OFFCURVE",
"425 905 OFFCURVE",
"369 905 CURVE SMOOTH",
"327 905 OFFCURVE",
"265 889 OFFCURVE",
"265 869 CURVE SMOOTH",
"265 862 OFFCURVE",
"274 841 OFFCURVE",
"290 841 CURVE SMOOTH",
"302 841 OFFCURVE",
"327 854 OFFCURVE",
"356 854 CURVE SMOOTH",
"381 854 OFFCURVE",
"397 845 OFFCURVE",
"397 830 CURVE SMOOTH",
"397 794 OFFCURVE",
"303 785 OFFCURVE",
"303 769 CURVE SMOOTH",
"303 762 OFFCURVE",
"320 738 OFFCURVE",
"337 738 CURVE SMOOTH"
);
}
);
width = 613;
},
{
anchors = (
{
name = bottom;
position = "{279, 0}";
},
{
name = ogonek;
position = "{563, 0}";
},
{
name = top;
position = "{371, 897}";
}
);
layerId = "1564F15A-2B4C-4FFD-AA43-969DC22C29FF";
paths = (
{
closed = 1;
nodes = (
"73 -2 LINE SMOOTH",
"97 -2 OFFCURVE",
"114 4 OFFCURVE",
"121 19 CURVE SMOOTH",
"176 141 LINE",
"407 141 LINE",
"436 19 LINE SMOOTH",
"440 3 OFFCURVE",
"460 -2 OFFCURVE",
"490 -2 CURVE SMOOTH",
"534 -2 LINE SMOOTH",
"569 -2 OFFCURVE",
"588 7 OFFCURVE",
"588 21 CURVE SMOOTH",
"588 24 OFFCURVE",
"586 35 OFFCURVE",
"585 38 CURVE",
"433 681 LINE SMOOTH",
"429 697 OFFCURVE",
"407 702 OFFCURVE",
"378 702 CURVE SMOOTH",
"326 702 LINE SMOOTH",
"297 702 OFFCURVE",
"274 697 OFFCURVE",
"267 681 CURVE SMOOTH",
"-19 38 LINE",
"-23 30 OFFCURVE",
"-25 24 OFFCURVE",
"-25 18 CURVE SMOOTH",
"-25 5 OFFCURVE",
"-6 -2 OFFCURVE",
"33 -2 CURVE SMOOTH"
);
},
{
closed = 1;
nodes = (
"308 451 LINE SMOOTH",
"317 471 OFFCURVE",
"324 494 OFFCURVE",
"330 515 CURVE",
"334 515 LINE",
"335 494 OFFCURVE",
"337 472 OFFCURVE",
"342 451 CURVE",
"377 273 LINE",
"232 273 LINE"
);
},
{
closed = 1;
nodes = (
"366 737 OFFCURVE",
"467 775 OFFCURVE",
"467 843 CURVE SMOOTH",
"467 885 OFFCURVE",
"428 913 OFFCURVE",
"362 913 CURVE SMOOTH",
"312 913 OFFCURVE",
"260 897 OFFCURVE",
"260 875 CURVE SMOOTH",
"260 866 OFFCURVE",
"270 840 OFFCURVE",
"289 840 CURVE SMOOTH",
"300 840 OFFCURVE",
"327 850 OFFCURVE",
"353 850 CURVE SMOOTH",
"369 850 OFFCURVE",
"383 846 OFFCURVE",
"383 830 CURVE SMOOTH",
"383 791 OFFCURVE",
"298 784 OFFCURVE",
"298 765 CURVE SMOOTH",
"298 754 OFFCURVE",
"324 737 OFFCURVE",
"341 737 CURVE SMOOTH"
);
}
);
width = 613;
}
);
leftKerningGroup = A;
rightKerningGroup = A;
unicode = 1EA2;
},
{
glyphname = Ainvertedbreve;
layers = (
{
anchors = (
{
name = bottom;
position = "{279, 0}";
},
{
name = ogonek;
position = "{554, 0}";
},
{
name = top;
position = "{368, 852}";
}
);
layerId = master01;
paths = (
{
closed = 1;
nodes = (
"33 -2 LINE SMOOTH",
"53 -2 OFFCURVE",
"69 2 OFFCURVE",
"74 14 CURVE SMOOTH",
"148 178 LINE",
"442 178 LINE",
"484 14 LINE SMOOTH",
"487 2 OFFCURVE",
"503 -2 OFFCURVE",
"523 -2 CURVE SMOOTH",
"531 -2 LINE SMOOTH",
"565 -2 OFFCURVE",
"575 7 OFFCURVE",
"575 18 CURVE SMOOTH",
"575 21 OFFCURVE",
"575 24 OFFCURVE",
"574 28 CURVE SMOOTH",
"406 686 LINE SMOOTH",
"403 698 OFFCURVE",
"387 702 OFFCURVE",
"367 702 CURVE SMOOTH",
"338 702 LINE SMOOTH",
"317 702 OFFCURVE",
"302 698 OFFCURVE",
"297 686 CURVE SMOOTH",
"-8 29 LINE SMOOTH",
"-11 23 OFFCURVE",
"-13 18 OFFCURVE",
"-13 14 CURVE SMOOTH",
"-13 3 OFFCURVE",
"0 -2 OFFCURVE",
"28 -2 CURVE SMOOTH"
);
},
{
closed = 1;
nodes = (
"321 552 LINE SMOOTH",
"329 570 OFFCURVE",
"336 591 OFFCURVE",
"342 610 CURVE",
"344 610 LINE",
"344 591 OFFCURVE",
"345 571 OFFCURVE",
"350 552 CURVE SMOOTH",
"423 254 LINE",
"184 254 LINE"
);
},
{
closed = 1;
nodes = (
"279 885 OFFCURVE",
"210 836 OFFCURVE",
"210 772 CURVE SMOOTH",
"210 759 OFFCURVE",
"215 755 OFFCURVE",
"226 755 CURVE SMOOTH",
"236 755 OFFCURVE",
"243 757 OFFCURVE",
"247 767 CURVE SMOOTH",
"258 792 OFFCURVE",
"283 819 OFFCURVE",
"365 819 CURVE SMOOTH",
"445 819 OFFCURVE",
"467 792 OFFCURVE",
"472 767 CURVE SMOOTH",
"474 757 OFFCURVE",
"480 755 OFFCURVE",
"490 755 CURVE SMOOTH",
"504 755 OFFCURVE",
"511 763 OFFCURVE",
"511 790 CURVE SMOOTH",
"511 851 OFFCURVE",
"447 885 OFFCURVE",
"372 885 CURVE SMOOTH"
);
}
);
width = 613;
},
{
anchors = (
{
name = bottom;
position = "{279, 0}";
},
{
name = ogonek;
position = "{563, 0}";
},
{
name = top;
position = "{369, 862}";
}
);
layerId = "1564F15A-2B4C-4FFD-AA43-969DC22C29FF";
paths = (
{
closed = 1;
nodes = (
"73 -2 LINE SMOOTH",
"97 -2 OFFCURVE",
"114 4 OFFCURVE",
"121 19 CURVE SMOOTH",
"176 141 LINE",
"407 141 LINE",
"436 19 LINE SMOOTH",
"440 3 OFFCURVE",
"460 -2 OFFCURVE",
"490 -2 CURVE SMOOTH",
"534 -2 LINE SMOOTH",
"569 -2 OFFCURVE",
"588 7 OFFCURVE",
"588 21 CURVE SMOOTH",
"588 24 OFFCURVE",
"586 35 OFFCURVE",
"585 38 CURVE",
"433 681 LINE SMOOTH",
"429 697 OFFCURVE",
"407 702 OFFCURVE",
"378 702 CURVE SMOOTH",
"326 702 LINE SMOOTH",
"297 702 OFFCURVE",
"274 697 OFFCURVE",
"267 681 CURVE SMOOTH",
"-19 38 LINE",
"-23 30 OFFCURVE",
"-25 24 OFFCURVE",
"-25 18 CURVE SMOOTH",
"-25 5 OFFCURVE",
"-6 -2 OFFCURVE",
"33 -2 CURVE SMOOTH"
);
},
{
closed = 1;
nodes = (
"308 451 LINE SMOOTH",
"317 471 OFFCURVE",
"324 494 OFFCURVE",
"330 515 CURVE",
"334 515 LINE",
"335 494 OFFCURVE",
"337 472 OFFCURVE",
"342 451 CURVE",
"377 273 LINE",
"232 273 LINE"
);
},
{
closed = 1;
nodes = (
"278 885 OFFCURVE",
"202 829 OFFCURVE",
"202 769 CURVE SMOOTH",
"202 754 OFFCURVE",
"214 745 OFFCURVE",
"235 745 CURVE SMOOTH",
"255 745 OFFCURVE",
"261 752 OFFCURVE",
"271 761 CURVE SMOOTH",
"285 773 OFFCURVE",
"309 794 OFFCURVE",
"352 794 CURVE SMOOTH",
"405 794 OFFCURVE",
"435 777 OFFCURVE",
"448 763 CURVE SMOOTH",
"456 753 OFFCURVE",
"460 745 OFFCURVE",
"479 745 CURVE SMOOTH",
"504 745 OFFCURVE",
"517 757 OFFCURVE",
"517 781 CURVE SMOOTH",
"517 835 OFFCURVE",
"456 885 OFFCURVE",
"361 885 CURVE SMOOTH"
);
}
);
width = 613;
}
);
leftKerningGroup = A;
rightKerningGroup = A;
unicode = 0202;
},
{
glyphname = Amacron;
layers = (
{
anchors = (
{
name = bottom;
position = "{279, 0}";
},
{
name = ogonek;
position = "{554, 0}";
},
{
name = top;
position = "{366, 835}";
}
);
layerId = master01;
paths = (
{
closed = 1;
nodes = (
"33 -2 LINE SMOOTH",
"53 -2 OFFCURVE",
"69 2 OFFCURVE",
"74 14 CURVE SMOOTH",
"148 178 LINE",
"442 178 LINE",
"484 14 LINE SMOOTH",
"487 2 OFFCURVE",
"503 -2 OFFCURVE",
"523 -2 CURVE SMOOTH",
"531 -2 LINE SMOOTH",
"565 -2 OFFCURVE",
"575 7 OFFCURVE",
"575 18 CURVE SMOOTH",
"575 21 OFFCURVE",
"575 24 OFFCURVE",
"574 28 CURVE SMOOTH",
"406 686 LINE SMOOTH",
"403 698 OFFCURVE",
"387 702 OFFCURVE",
"367 702 CURVE SMOOTH",
"338 702 LINE SMOOTH",
"317 702 OFFCURVE",
"302 698 OFFCURVE",
"297 686 CURVE SMOOTH",
"-8 29 LINE SMOOTH",
"-11 23 OFFCURVE",
"-13 18 OFFCURVE",
"-13 14 CURVE SMOOTH",
"-13 3 OFFCURVE",
"0 -2 OFFCURVE",
"28 -2 CURVE SMOOTH"
);
},
{
closed = 1;
nodes = (
"321 552 LINE SMOOTH",
"329 570 OFFCURVE",
"336 591 OFFCURVE",
"342 610 CURVE",
"344 610 LINE",
"344 591 OFFCURVE",
"345 571 OFFCURVE",
"350 552 CURVE SMOOTH",
"423 254 LINE",
"184 254 LINE"
);
},
{
closed = 1;
nodes = (
"473 775 LINE SMOOTH",
"490 775 OFFCURVE",
"497 784 OFFCURVE",
"499 805 CURVE SMOOTH",
"500 815 LINE SMOOTH",
"502 836 OFFCURVE",
"497 845 OFFCURVE",
"483 845 CURVE SMOOTH",
"255 845 LINE SMOOTH",
"240 845 OFFCURVE",
"231 836 OFFCURVE",
"229 815 CURVE SMOOTH",
"228 805 LINE SMOOTH",
"226 784 OFFCURVE",
"230 775 OFFCURVE",
"249 775 CURVE SMOOTH"
);
}
);
width = 613;
},
{
anchors = (
{
name = bottom;
position = "{279, 0}";
},
{
name = ogonek;
position = "{563, 0}";
},
{
name = top;
position = "{366, 841}";
}
);
layerId = "1564F15A-2B4C-4FFD-AA43-969DC22C29FF";
paths = (
{
closed = 1;
nodes = (
"73 -2 LINE SMOOTH",
"97 -2 OFFCURVE",
"114 4 OFFCURVE",
"121 19 CURVE SMOOTH",
"176 141 LINE",
"407 141 LINE",
"436 19 LINE SMOOTH",
"440 3 OFFCURVE",
"460 -2 OFFCURVE",
"490 -2 CURVE SMOOTH",
"534 -2 LINE SMOOTH",
"569 -2 OFFCURVE",
"588 7 OFFCURVE",
"588 21 CURVE SMOOTH",
"588 24 OFFCURVE",
"586 35 OFFCURVE",
"585 38 CURVE",
"433 681 LINE SMOOTH",
"429 697 OFFCURVE",
"407 702 OFFCURVE",
"378 702 CURVE SMOOTH",
"326 702 LINE SMOOTH",
"297 702 OFFCURVE",
"274 697 OFFCURVE",
"267 681 CURVE SMOOTH",
"-19 38 LINE",
"-23 30 OFFCURVE",
"-25 24 OFFCURVE",
"-25 18 CURVE SMOOTH",
"-25 5 OFFCURVE",
"-6 -2 OFFCURVE",
"33 -2 CURVE SMOOTH"
);
},
{
closed = 1;
nodes = (
"308 451 LINE SMOOTH",
"317 471 OFFCURVE",
"324 494 OFFCURVE",
"330 515 CURVE",
"334 515 LINE",
"335 494 OFFCURVE",
"337 472 OFFCURVE",
"342 451 CURVE",
"377 273 LINE",
"232 273 LINE"
);
},
{
closed = 1;
nodes = (
"494 766 LINE SMOOTH",
"517 766 OFFCURVE",
"525 781 OFFCURVE",
"528 806 CURVE SMOOTH",
"530 821 LINE SMOOTH",
"534 849 OFFCURVE",
"522 861 OFFCURVE",
"504 861 CURVE SMOOTH",
"233 861 LINE SMOOTH",
"210 861 OFFCURVE",
"202 844 OFFCURVE",
"199 821 CURVE SMOOTH",
"197 806 LINE SMOOTH",
"193 778 OFFCURVE",
"204 766 OFFCURVE",
"223 766 CURVE SMOOTH"
);
}
);
width = 613;
}
);
leftKerningGroup = A;
rightKerningGroup = A;
unicode = 0100;
},
{
glyphname = Aogonek;
layers = (
{
anchors = (
{
name = bottom;
position = "{279, 0}";
},
{
name = ogonek;
position = "{554, 0}";
},
{
name = top;
position = "{352, 700}";
}
);
layerId = master01;
paths = (
{
closed = 1;
nodes = (
"33 -2 LINE SMOOTH",
"53 -2 OFFCURVE",
"69 2 OFFCURVE",
"74 14 CURVE SMOOTH",
"148 178 LINE",
"442 178 LINE",
"484 14 LINE SMOOTH",
"487 2 OFFCURVE",
"503 -2 OFFCURVE",
"523 -2 CURVE SMOOTH",
"531 -2 LINE SMOOTH",
"565 -2 OFFCURVE",
"575 7 OFFCURVE",
"575 18 CURVE SMOOTH",
"575 21 OFFCURVE",
"575 24 OFFCURVE",
"574 28 CURVE SMOOTH",
"406 686 LINE SMOOTH",
"403 698 OFFCURVE",
"387 702 OFFCURVE",
"367 702 CURVE SMOOTH",
"338 702 LINE SMOOTH",
"317 702 OFFCURVE",
"302 698 OFFCURVE",
"297 686 CURVE SMOOTH",
"-8 29 LINE SMOOTH",
"-11 23 OFFCURVE",
"-13 18 OFFCURVE",
"-13 14 CURVE SMOOTH",
"-13 3 OFFCURVE",
"0 -2 OFFCURVE",
"28 -2 CURVE SMOOTH"
);
},
{
closed = 1;
nodes = (
"321 552 LINE SMOOTH",
"329 570 OFFCURVE",
"336 591 OFFCURVE",
"342 610 CURVE",
"344 610 LINE",
"344 591 OFFCURVE",
"345 571 OFFCURVE",
"350 552 CURVE SMOOTH",
"423 254 LINE",
"184 254 LINE"
);
},
{
closed = 1;
nodes = (
"541 -184 OFFCURVE",
"578 -158 OFFCURVE",
"578 -136 CURVE SMOOTH",
"578 -121 OFFCURVE",
"568 -104 OFFCURVE",
"558 -104 CURVE SMOOTH",
"542 -104 OFFCURVE",
"532 -114 OFFCURVE",
"505 -114 CURVE SMOOTH",
"481 -114 OFFCURVE",
"469 -103 OFFCURVE",
"469 -88 CURVE SMOOTH",
"469 -58 OFFCURVE",
"505 -15 OFFCURVE",
"552 9 CURVE",
"503 16 LINE",
"440 -10 OFFCURVE",
"396 -63 OFFCURVE",
"396 -112 CURVE SMOOTH",
"396 -151 OFFCURVE",
"427 -184 OFFCURVE",
"491 -184 CURVE SMOOTH"
);
}
);
width = 613;
},
{
anchors = (
{
name = bottom;
position = "{279, 0}";
},
{
name = ogonek;
position = "{563, 0}";
},
{
name = top;
position = "{352, 700}";
}
);
layerId = "1564F15A-2B4C-4FFD-AA43-969DC22C29FF";
paths = (
{
closed = 1;
nodes = (
"73 -2 LINE SMOOTH",
"97 -2 OFFCURVE",
"114 4 OFFCURVE",
"121 19 CURVE SMOOTH",
"176 141 LINE",
"407 141 LINE",
"436 19 LINE SMOOTH",
"440 3 OFFCURVE",
"460 -2 OFFCURVE",
"490 -2 CURVE SMOOTH",
"534 -2 LINE SMOOTH",
"569 -2 OFFCURVE",
"588 7 OFFCURVE",
"588 21 CURVE SMOOTH",
"588 24 OFFCURVE",
"586 35 OFFCURVE",
"585 38 CURVE",
"433 681 LINE SMOOTH",
"429 697 OFFCURVE",
"407 702 OFFCURVE",
"378 702 CURVE SMOOTH",
"326 702 LINE SMOOTH",
"297 702 OFFCURVE",
"274 697 OFFCURVE",
"267 681 CURVE SMOOTH",
"-19 38 LINE",
"-23 30 OFFCURVE",
"-25 24 OFFCURVE",
"-25 18 CURVE SMOOTH",
"-25 5 OFFCURVE",
"-6 -2 OFFCURVE",
"33 -2 CURVE SMOOTH"
);
},
{
closed = 1;
nodes = (
"308 451 LINE SMOOTH",
"317 471 OFFCURVE",
"324 494 OFFCURVE",
"330 515 CURVE",
"334 515 LINE",
"335 494 OFFCURVE",
"337 472 OFFCURVE",
"342 451 CURVE",
"377 273 LINE",
"232 273 LINE"
);
},
{
closed = 1;
nodes = (
"538 -196 OFFCURVE",
"578 -167 OFFCURVE",
"578 -148 CURVE SMOOTH",
"578 -128 OFFCURVE",
"567 -99 OFFCURVE",
"554 -99 CURVE SMOOTH",
"539 -99 OFFCURVE",
"535 -108 OFFCURVE",
"507 -108 CURVE SMOOTH",
"486 -108 OFFCURVE",
"475 -97 OFFCURVE",
"475 -83 CURVE SMOOTH",
"475 -54 OFFCURVE",
"509 -13 OFFCURVE",
"554 10 CURVE",
"499 17 LINE",
"430 -10 OFFCURVE",
"387 -61 OFFCURVE",
"387 -116 CURVE SMOOTH",
"387 -168 OFFCURVE",
"423 -196 OFFCURVE",
"485 -196 CURVE SMOOTH"
);
}
);
width = 613;
}
);
leftKerningGroup = A;
rightKerningGroup = A;
unicode = 0104;
},
{
glyphname = Aring;
layers = (
{
anchors = (
{
name = bottom;
position = "{279, 0}";
},
{
name = ogonek;
position = "{554, 0}";
},
{
name = top;
position = "{371, 877}";
}
);
layerId = master01;
paths = (
{
closed = 1;
nodes = (
"33 -2 LINE SMOOTH",
"53 -2 OFFCURVE",
"69 2 OFFCURVE",
"74 14 CURVE SMOOTH",
"148 178 LINE",
"442 178 LINE",
"484 14 LINE SMOOTH",
"487 2 OFFCURVE",
"503 -2 OFFCURVE",
"523 -2 CURVE SMOOTH",
"531 -2 LINE SMOOTH",
"565 -2 OFFCURVE",
"575 7 OFFCURVE",
"575 18 CURVE SMOOTH",
"575 21 OFFCURVE",
"575 24 OFFCURVE",
"574 28 CURVE SMOOTH",
"406 686 LINE SMOOTH",
"403 698 OFFCURVE",
"387 702 OFFCURVE",
"367 702 CURVE SMOOTH",
"338 702 LINE SMOOTH",
"317 702 OFFCURVE",
"302 698 OFFCURVE",
"297 686 CURVE SMOOTH",
"-8 29 LINE SMOOTH",
"-11 23 OFFCURVE",
"-13 18 OFFCURVE",
"-13 14 CURVE SMOOTH",
"-13 3 OFFCURVE",
"0 -2 OFFCURVE",
"28 -2 CURVE SMOOTH"
);
},
{
closed = 1;
nodes = (
"321 552 LINE SMOOTH",
"329 570 OFFCURVE",
"336 591 OFFCURVE",
"342 610 CURVE",
"344 610 LINE",
"344 591 OFFCURVE",
"345 571 OFFCURVE",
"350 552 CURVE SMOOTH",
"423 254 LINE",
"184 254 LINE"
);
},
{
closed = 1;
nodes = (
"409 747 OFFCURVE",
"451 787 OFFCURVE",
"451 838 CURVE SMOOTH",
"451 882 OFFCURVE",
"418 916 OFFCURVE",
"374 916 CURVE SMOOTH",
"322 916 OFFCURVE",
"281 875 OFFCURVE",
"281 824 CURVE SMOOTH",
"281 781 OFFCURVE",
"313 747 OFFCURVE",
"358 747 CURVE SMOOTH"
);
},
{
closed = 1;
nodes = (
"343 792 OFFCURVE",
"329 807 OFFCURVE",
"329 827 CURVE SMOOTH",
"329 851 OFFCURVE",
"348 871 OFFCURVE",
"370 871 CURVE SMOOTH",
"389 871 OFFCURVE",
"403 856 OFFCURVE",
"403 836 CURVE SMOOTH",
"403 812 OFFCURVE",
"384 792 OFFCURVE",
"361 792 CURVE SMOOTH"
);
}
);
width = 613;
},
{
anchors = (
{
name = bottom;
position = "{279, 0}";
},
{
name = ogonek;
position = "{563, 0}";
},
{
name = top;
position = "{372, 892}";
}
);
layerId = "1564F15A-2B4C-4FFD-AA43-969DC22C29FF";
paths = (
{
closed = 1;
nodes = (
"73 -2 LINE SMOOTH",
"97 -2 OFFCURVE",
"114 4 OFFCURVE",
"121 19 CURVE SMOOTH",
"176 141 LINE",
"407 141 LINE",
"436 19 LINE SMOOTH",
"440 3 OFFCURVE",
"460 -2 OFFCURVE",
"490 -2 CURVE SMOOTH",
"534 -2 LINE SMOOTH",
"569 -2 OFFCURVE",
"588 7 OFFCURVE",
"588 21 CURVE SMOOTH",
"588 24 OFFCURVE",
"586 35 OFFCURVE",
"585 38 CURVE",
"433 681 LINE SMOOTH",
"429 697 OFFCURVE",
"407 702 OFFCURVE",
"378 702 CURVE SMOOTH",
"326 702 LINE SMOOTH",
"297 702 OFFCURVE",
"274 697 OFFCURVE",
"267 681 CURVE SMOOTH",
"-19 38 LINE",
"-23 30 OFFCURVE",
"-25 24 OFFCURVE",
"-25 18 CURVE SMOOTH",
"-25 5 OFFCURVE",
"-6 -2 OFFCURVE",
"33 -2 CURVE SMOOTH"
);
},
{
closed = 1;
nodes = (
"308 451 LINE SMOOTH",
"317 471 OFFCURVE",
"324 494 OFFCURVE",
"330 515 CURVE",
"334 515 LINE",
"335 494 OFFCURVE",
"337 472 OFFCURVE",
"342 451 CURVE",
"377 273 LINE",
"232 273 LINE"
);
},
{
closed = 1;
nodes = (
"417 718 OFFCURVE",
"464 768 OFFCURVE",
"464 827 CURVE SMOOTH",
"464 878 OFFCURVE",
"425 917 OFFCURVE",
"372 917 CURVE SMOOTH",
"312 917 OFFCURVE",
"264 868 OFFCURVE",
"264 807 CURVE SMOOTH",
"264 757 OFFCURVE",
"303 718 OFFCURVE",
"355 718 CURVE SMOOTH"
);
},
{
closed = 1;
nodes = (
"343 779 OFFCURVE",
"329 793 OFFCURVE",
"329 812 CURVE SMOOTH",
"329 835 OFFCURVE",
"347 854 OFFCURVE",
"367 854 CURVE SMOOTH",
"385 854 OFFCURVE",
"399 840 OFFCURVE",
"399 820 CURVE SMOOTH",
"399 797 OFFCURVE",
"381 779 OFFCURVE",
"360 779 CURVE SMOOTH"
);
}
);
width = 613;
}
);
leftKerningGroup = A;
rightKerningGroup = A;
unicode = 00C5;
},
{
glyphname = Aringacute;
layers = (
{
anchors = (
{
name = _top;
position = "{338, 583}";
},
{
name = top;
position = "{357, 760}";
}
);
layerId = master01;
paths = (
{
closed = 1;
nodes = (
"33 -2 LINE SMOOTH",
"53 -2 OFFCURVE",
"69 2 OFFCURVE",
"74 14 CURVE SMOOTH",
"148 178 LINE",
"442 178 LINE",
"484 14 LINE SMOOTH",
"487 2 OFFCURVE",
"503 -2 OFFCURVE",
"523 -2 CURVE SMOOTH",
"531 -2 LINE SMOOTH",
"565 -2 OFFCURVE",
"575 7 OFFCURVE",
"575 18 CURVE SMOOTH",
"575 21 OFFCURVE",
"575 24 OFFCURVE",
"574 28 CURVE SMOOTH",
"406 686 LINE",
"365 642 LINE",
"336 642 LINE",
"297 686 LINE",
"-8 29 LINE SMOOTH",
"-11 23 OFFCURVE",
"-13 18 OFFCURVE",
"-13 14 CURVE SMOOTH",
"-13 3 OFFCURVE",
"0 -2 OFFCURVE",
"28 -2 CURVE SMOOTH"
);
},
{
closed = 1;
nodes = (
"321 552 LINE SMOOTH",
"329 570 OFFCURVE",
"336 591 OFFCURVE",
"342 610 CURVE",
"344 610 LINE",
"344 591 OFFCURVE",
"345 571 OFFCURVE",
"350 552 CURVE SMOOTH",
"423 254 LINE",
"184 254 LINE"
);
},
{
closed = 1;
nodes = (
"384 822 OFFCURVE",
"404 828 OFFCURVE",
"416 840 CURVE SMOOTH",
"487 904 OFFCURVE",
"497 909 OFFCURVE",
"497 916 CURVE SMOOTH",
"498 926 OFFCURVE",
"483 929 OFFCURVE",
"451 929 CURVE SMOOTH",
"419 929 OFFCURVE",
"399 923 OFFCURVE",
"386 903 CURVE SMOOTH",
"372 881 OFFCURVE",
"363 868 OFFCURVE",
"341 832 CURVE SMOOTH",
"341 825 OFFCURVE",
"347 822 OFFCURVE",
"363 822 CURVE SMOOTH"
);
},
{
closed = 1;
nodes = (
"395 630 OFFCURVE",
"437 670 OFFCURVE",
"437 721 CURVE SMOOTH",
"437 765 OFFCURVE",
"404 799 OFFCURVE",
"360 799 CURVE SMOOTH",
"308 799 OFFCURVE",
"267 758 OFFCURVE",
"267 707 CURVE SMOOTH",
"267 664 OFFCURVE",
"299 630 OFFCURVE",
"344 630 CURVE SMOOTH"
);
},
{
closed = 1;
nodes = (
"329 675 OFFCURVE",
"315 690 OFFCURVE",
"315 710 CURVE SMOOTH",
"315 734 OFFCURVE",
"334 754 OFFCURVE",
"356 754 CURVE SMOOTH",
"375 754 OFFCURVE",
"389 739 OFFCURVE",
"389 719 CURVE SMOOTH",
"389 695 OFFCURVE",
"370 675 OFFCURVE",
"347 675 CURVE SMOOTH"
);
}
);
userData = {
com.schriftgestaltung.Glyphs.glyph.leftMetricsKey = A;
com.schriftgestaltung.Glyphs.glyph.rightMetricsKey = A;
};
width = 613;
},
{
anchors = (
{
name = _top;
position = "{344, 570}";
},
{
name = top;
position = "{364, 762}";
}
);
layerId = "1564F15A-2B4C-4FFD-AA43-969DC22C29FF";
paths = (
{
closed = 1;
nodes = (
"73 -2 LINE SMOOTH",
"97 -2 OFFCURVE",
"114 4 OFFCURVE",
"121 19 CURVE SMOOTH",
"176 141 LINE",
"418 141 LINE",
"447 19 LINE SMOOTH",
"451 3 OFFCURVE",
"471 -2 OFFCURVE",
"501 -2 CURVE SMOOTH",
"545 -2 LINE SMOOTH",
"580 -2 OFFCURVE",
"599 7 OFFCURVE",
"599 21 CURVE SMOOTH",
"599 24 OFFCURVE",
"597 35 OFFCURVE",
"596 38 CURVE SMOOTH",
"438 681 LINE",
"381 632 LINE",
"329 632 LINE",
"272 681 LINE",
"-19 38 LINE SMOOTH",
"-23 30 OFFCURVE",
"-25 24 OFFCURVE",
"-25 18 CURVE SMOOTH",
"-25 5 OFFCURVE",
"-6 -2 OFFCURVE",
"33 -2 CURVE SMOOTH"
);
},
{
closed = 1;
nodes = (
"313 451 LINE SMOOTH",
"322 471 OFFCURVE",
"329 494 OFFCURVE",
"335 515 CURVE",
"339 515 LINE",
"340 494 OFFCURVE",
"342 472 OFFCURVE",
"347 451 CURVE SMOOTH",
"387 273 LINE",
"233 273 LINE"
);
},
{
closed = 1;
nodes = (
"401 812 OFFCURVE",
"419 825 OFFCURVE",
"431 837 CURVE SMOOTH",
"514 907 OFFCURVE",
"519 909 OFFCURVE",
"520 917 CURVE SMOOTH",
"521 928 OFFCURVE",
"501 931 OFFCURVE",
"461 931 CURVE SMOOTH",
"421 931 OFFCURVE",
"388 925 OFFCURVE",
"373 904 CURVE SMOOTH",
"356 881 OFFCURVE",
"344 864 OFFCURVE",
"324 827 CURVE SMOOTH",
"323 816 OFFCURVE",
"330 812 OFFCURVE",
"354 812 CURVE SMOOTH"
);
},
{
closed = 1;
nodes = (
"409 588 OFFCURVE",
"456 638 OFFCURVE",
"456 697 CURVE SMOOTH",
"456 748 OFFCURVE",
"417 787 OFFCURVE",
"364 787 CURVE SMOOTH",
"304 787 OFFCURVE",
"256 738 OFFCURVE",
"256 677 CURVE SMOOTH",
"256 627 OFFCURVE",
"295 588 OFFCURVE",
"347 588 CURVE SMOOTH"
);
},
{
closed = 1;
nodes = (
"335 649 OFFCURVE",
"321 663 OFFCURVE",
"321 682 CURVE SMOOTH",
"321 705 OFFCURVE",
"339 724 OFFCURVE",
"359 724 CURVE SMOOTH",
"377 724 OFFCURVE",
"391 710 OFFCURVE",
"391 690 CURVE SMOOTH",
"391 667 OFFCURVE",
"373 649 OFFCURVE",
"352 649 CURVE SMOOTH"
);
}
);
userData = {
com.schriftgestaltung.Glyphs.glyph.leftMetricsKey = A;
com.schriftgestaltung.Glyphs.glyph.rightMetricsKey = A;
};
width = 624;
}
);
leftKerningGroup = A;
rightKerningGroup = A;
unicode = 01FA;
},
{
glyphname = Atilde;
layers = (
{
anchors = (
{
name = bottom;
position = "{279, 0}";
},
{
name = ogonek;
position = "{554, 0}";
},
{
name = top;
position = "{366, 837}";
}
);
layerId = master01;
paths = (
{
closed = 1;
nodes = (
"33 -2 LINE SMOOTH",
"53 -2 OFFCURVE",
"69 2 OFFCURVE",
"74 14 CURVE SMOOTH",
"148 178 LINE",
"442 178 LINE",
"484 14 LINE SMOOTH",
"487 2 OFFCURVE",
"503 -2 OFFCURVE",
"523 -2 CURVE SMOOTH",
"531 -2 LINE SMOOTH",
"565 -2 OFFCURVE",
"575 7 OFFCURVE",
"575 18 CURVE SMOOTH",
"575 21 OFFCURVE",
"575 24 OFFCURVE",
"574 28 CURVE SMOOTH",
"406 686 LINE SMOOTH",
"403 698 OFFCURVE",
"387 702 OFFCURVE",
"367 702 CURVE SMOOTH",
"338 702 LINE SMOOTH",
"317 702 OFFCURVE",
"302 698 OFFCURVE",
"297 686 CURVE SMOOTH",
"-8 29 LINE SMOOTH",
"-11 23 OFFCURVE",
"-13 18 OFFCURVE",
"-13 14 CURVE SMOOTH",
"-13 3 OFFCURVE",
"0 -2 OFFCURVE",
"28 -2 CURVE SMOOTH"
);
},
{
closed = 1;
nodes = (
"321 552 LINE SMOOTH",
"329 570 OFFCURVE",
"336 591 OFFCURVE",
"342 610 CURVE",
"344 610 LINE",
"344 591 OFFCURVE",
"345 571 OFFCURVE",
"350 552 CURVE SMOOTH",
"423 254 LINE",
"184 254 LINE"
);
},
{
closed = 1;
nodes = (
"485 756 OFFCURVE",
"521 780 OFFCURVE",
"543 827 CURVE SMOOTH",
"547 835 OFFCURVE",
"548 840 OFFCURVE",
"548 842 CURVE SMOOTH",
"548 850 OFFCURVE",
"531 861 OFFCURVE",
"522 861 CURVE SMOOTH",
"507 861 OFFCURVE",
"493 818 OFFCURVE",
"446 818 CURVE SMOOTH",
"404 818 OFFCURVE",
"341 861 OFFCURVE",
"283 861 CURVE SMOOTH",
"236 861 OFFCURVE",
"201 834 OFFCURVE",
"183 793 CURVE SMOOTH",
"179 784 OFFCURVE",
"178 779 OFFCURVE",
"178 777 CURVE SMOOTH",
"178 767 OFFCURVE",
"196 758 OFFCURVE",
"206 758 CURVE SMOOTH",
"223 758 OFFCURVE",
"234 797 OFFCURVE",
"277 797 CURVE SMOOTH",
"318 797 OFFCURVE",
"377 756 OFFCURVE",
"439 756 CURVE SMOOTH"
);
}
);
width = 613;
},
{
anchors = (
{
name = bottom;
position = "{279, 0}";
},
{
name = ogonek;
position = "{563, 0}";
},
{
name = top;
position = "{367, 847}";
}
);
layerId = "1564F15A-2B4C-4FFD-AA43-969DC22C29FF";
paths = (
{
closed = 1;
nodes = (
"73 -2 LINE SMOOTH",
"97 -2 OFFCURVE",
"114 4 OFFCURVE",
"121 19 CURVE SMOOTH",
"176 141 LINE",
"407 141 LINE",
"436 19 LINE SMOOTH",
"440 3 OFFCURVE",
"460 -2 OFFCURVE",
"490 -2 CURVE SMOOTH",
"534 -2 LINE SMOOTH",
"569 -2 OFFCURVE",
"588 7 OFFCURVE",
"588 21 CURVE SMOOTH",
"588 24 OFFCURVE",
"586 35 OFFCURVE",
"585 38 CURVE",
"433 681 LINE SMOOTH",
"429 697 OFFCURVE",
"407 702 OFFCURVE",
"378 702 CURVE SMOOTH",
"326 702 LINE SMOOTH",
"297 702 OFFCURVE",
"274 697 OFFCURVE",
"267 681 CURVE SMOOTH",
"-19 38 LINE",
"-23 30 OFFCURVE",
"-25 24 OFFCURVE",
"-25 18 CURVE SMOOTH",
"-25 5 OFFCURVE",
"-6 -2 OFFCURVE",
"33 -2 CURVE SMOOTH"
);
},
{
closed = 1;
nodes = (
"308 451 LINE SMOOTH",
"317 471 OFFCURVE",
"324 494 OFFCURVE",
"330 515 CURVE",
"334 515 LINE",
"335 494 OFFCURVE",
"337 472 OFFCURVE",
"342 451 CURVE",
"377 273 LINE",
"232 273 LINE"
);
},
{
closed = 1;
nodes = (
"479 751 OFFCURVE",
"525 789 OFFCURVE",
"541 825 CURVE SMOOTH",
"544 832 OFFCURVE",
"546 838 OFFCURVE",
"546 844 CURVE SMOOTH",
"546 859 OFFCURVE",
"513 872 OFFCURVE",
"502 872 CURVE SMOOTH",
"485 872 OFFCURVE",
"473 839 OFFCURVE",
"434 839 CURVE SMOOTH",
"397 839 OFFCURVE",
"359 873 OFFCURVE",
"298 873 CURVE SMOOTH",
"242 873 OFFCURVE",
"198 835 OFFCURVE",
"184 799 CURVE SMOOTH",
"182 794 OFFCURVE",
"180 788 OFFCURVE",
"180 779 CURVE SMOOTH",
"180 766 OFFCURVE",
"207 752 OFFCURVE",
"225 752 CURVE SMOOTH",
"244 752 OFFCURVE",
"253 785 OFFCURVE",
"296 785 CURVE SMOOTH",
"323 785 OFFCURVE",
"368 751 OFFCURVE",
"427 751 CURVE SMOOTH"
);
}
);
width = 613;
}
);
leftKerningGroup = A;
rightKerningGroup = A;
unicode = 00C3;
},
{
glyphname = AE;
layers = (
{
anchors = (
{
name = top;
position = "{458, 700}";
}
);
background = {
paths = (
{
closed = 1;
nodes = (
"392 700 LINE SMOOTH",
"371 700 OFFCURVE",
"358 692 OFFCURVE",
"347 673 CURVE SMOOTH",
"-41 31 LINE SMOOTH",
"-45 24 OFFCURVE",
"-47 17 OFFCURVE",
"-47 13 CURVE SMOOTH",
"-47 3 OFFCURVE",
"-38 -2 OFFCURVE",
"-9 -2 CURVE SMOOTH",
"-4 -2 LINE SMOOTH",
"14 -2 OFFCURVE",
"30 3 OFFCURVE",
"37 14 CURVE SMOOTH",
"134 178 LINE",
"429 178 LINE",
"445 29 LINE SMOOTH",
"447 9 OFFCURVE",
"457 0 OFFCURVE",
"478 0 CURVE SMOOTH",
"770 0 LINE SMOOTH",
"795 0 OFFCURVE",
"795 31 OFFCURVE",
"795 54 CURVE SMOOTH",
"795 69 OFFCURVE",
"790 76 OFFCURVE",
"778 76 CURVE SMOOTH",
"530 76 LINE",
"502 320 LINE",
"771 320 LINE SMOOTH",
"796 320 OFFCURVE",
"796 351 OFFCURVE",
"796 374 CURVE SMOOTH",
"796 389 OFFCURVE",
"791 396 OFFCURVE",
"779 396 CURVE SMOOTH",
"494 396 LINE",
"468 624 LINE",
"834 624 LINE SMOOTH",
"859 624 OFFCURVE",
"859 655 OFFCURVE",
"859 678 CURVE SMOOTH",
"859 693 OFFCURVE",
"854 700 OFFCURVE",
"842 700 CURVE SMOOTH"
);
},
{
closed = 1;
nodes = (
"389 552 LINE",
"419 253 LINE",
"180 253 LINE",
"360 552 LINE",
"387 610 LINE",
"389 610 LINE"
);
},
{
closed = 1;
nodes = (
"845 624 LINE SMOOTH",
"859 624 OFFCURVE",
"866 630 OFFCURVE",
"868 654 CURVE SMOOTH",
"870 675 LINE SMOOTH",
"872 696 OFFCURVE",
"867 700 OFFCURVE",
"853 700 CURVE SMOOTH",
"836 700 LINE",
"828 624 LINE"
);
},
{
closed = 1;
nodes = (
"782 320 LINE SMOOTH",
"796 320 OFFCURVE",
"803 326 OFFCURVE",
"805 350 CURVE SMOOTH",
"807 371 LINE SMOOTH",
"809 392 OFFCURVE",
"804 396 OFFCURVE",
"790 396 CURVE SMOOTH",
"773 396 LINE",
"765 320 LINE"
);
},
{
closed = 1;
nodes = (
"781 0 LINE SMOOTH",
"795 0 OFFCURVE",
"802 6 OFFCURVE",
"804 30 CURVE SMOOTH",
"806 51 LINE SMOOTH",
"808 72 OFFCURVE",
"803 76 OFFCURVE",
"789 76 CURVE SMOOTH",
"772 76 LINE",
"764 0 LINE"
);
}
);
};
layerId = master01;
paths = (
{
closed = 1;
nodes = (
"-4 -2 LINE SMOOTH",
"14 -2 OFFCURVE",
"30 3 OFFCURVE",
"37 14 CURVE SMOOTH",
"134 178 LINE",
"429 178 LINE",
"445 29 LINE SMOOTH",
"447 9 OFFCURVE",
"457 0 OFFCURVE",
"478 0 CURVE SMOOTH",
"766 0 LINE SMOOTH",
"780 0 OFFCURVE",
"792 6 OFFCURVE",
"794 30 CURVE SMOOTH",
"796 51 LINE SMOOTH",
"798 72 OFFCURVE",
"788 76 OFFCURVE",
"774 76 CURVE SMOOTH",
"530 76 LINE",
"502 320 LINE",
"767 320 LINE SMOOTH",
"781 320 OFFCURVE",
"793 326 OFFCURVE",
"795 350 CURVE SMOOTH",
"797 371 LINE SMOOTH",
"799 392 OFFCURVE",
"789 396 OFFCURVE",
"775 396 CURVE SMOOTH",
"494 396 LINE",
"468 624 LINE",
"830 624 LINE SMOOTH",
"844 624 OFFCURVE",
"856 630 OFFCURVE",
"858 654 CURVE SMOOTH",
"860 675 LINE SMOOTH",
"862 696 OFFCURVE",
"852 700 OFFCURVE",
"838 700 CURVE SMOOTH",
"392 700 LINE SMOOTH",
"371 700 OFFCURVE",
"358 692 OFFCURVE",
"347 673 CURVE SMOOTH",
"-41 31 LINE SMOOTH",
"-45 24 OFFCURVE",
"-47 17 OFFCURVE",
"-47 13 CURVE SMOOTH",
"-47 3 OFFCURVE",
"-38 -2 OFFCURVE",
"-9 -2 CURVE SMOOTH"
);
},
{
closed = 1;
nodes = (
"360 552 LINE",
"387 610 LINE",
"389 610 LINE",
"389 552 LINE",
"419 253 LINE",
"180 253 LINE"
);
}
);
width = 915;
},
{
anchors = (
{
name = top;
position = "{578, 700}";
}
);
layerId = "1564F15A-2B4C-4FFD-AA43-969DC22C29FF";
paths = (
{
closed = 1;
nodes = (
"62 -2 LINE SMOOTH",
"86 -2 OFFCURVE",
"101 5 OFFCURVE",
"110 19 CURVE SMOOTH",
"183 141 LINE",
"426 141 LINE",
"435 30 LINE SMOOTH",
"437 9 OFFCURVE",
"445 0 OFFCURVE",
"467 0 CURVE SMOOTH",
"792 0 LINE SMOOTH",
"823 0 OFFCURVE",
"834 15 OFFCURVE",
"837 50 CURVE SMOOTH",
"840 81 LINE SMOOTH",
"843 116 OFFCURVE",
"837 131 OFFCURVE",
"806 131 CURVE SMOOTH",
"579 131 LINE",
"565 293 LINE",
"795 293 LINE SMOOTH",
"826 293 OFFCURVE",
"837 308 OFFCURVE",
"840 343 CURVE SMOOTH",
"843 374 LINE SMOOTH",
"846 409 OFFCURVE",
"840 424 OFFCURVE",
"809 424 CURVE SMOOTH",
"552 424 LINE",
"540 569 LINE",
"851 569 LINE SMOOTH",
"882 569 OFFCURVE",
"893 584 OFFCURVE",
"896 619 CURVE SMOOTH",
"899 650 LINE SMOOTH",
"902 685 OFFCURVE",
"896 700 OFFCURVE",
"865 700 CURVE SMOOTH",
"406 700 LINE SMOOTH",
"385 700 OFFCURVE",
"372 692 OFFCURVE",
"360 673 CURVE SMOOTH",
"-27 38 LINE",
"-32 31 OFFCURVE",
"-35 25 OFFCURVE",
"-35 20 CURVE SMOOTH",
"-35 0 OFFCURVE",
"1 -2 OFFCURVE",
"25 -2 CURVE SMOOTH"
);
},
{
closed = 1;
nodes = (
"370 455 LINE",
"406 537 LINE",
"410 537 LINE",
"402 454 LINE",
"416 273 LINE",
"262 273 LINE"
);
}
);
width = 915;
}
);
leftKerningGroup = AE;
rightKerningGroup = E;
unicode = 00C6;
},
{
glyphname = AEacute;
layers = (
{
anchors = (
{
name = top;
position = "{474, 852}";
}
);
layerId = master01;
paths = (
{
closed = 1;
nodes = (
"-4 -2 LINE SMOOTH",
"14 -2 OFFCURVE",
"30 3 OFFCURVE",
"37 14 CURVE SMOOTH",
"134 178 LINE",
"429 178 LINE",
"445 29 LINE SMOOTH",
"447 9 OFFCURVE",
"457 0 OFFCURVE",
"478 0 CURVE SMOOTH",
"766 0 LINE SMOOTH",
"780 0 OFFCURVE",
"792 6 OFFCURVE",
"794 30 CURVE SMOOTH",
"796 51 LINE SMOOTH",
"798 72 OFFCURVE",
"788 76 OFFCURVE",
"774 76 CURVE SMOOTH",
"530 76 LINE",
"502 320 LINE",
"767 320 LINE SMOOTH",
"781 320 OFFCURVE",
"793 326 OFFCURVE",
"795 350 CURVE SMOOTH",
"797 371 LINE SMOOTH",
"799 392 OFFCURVE",
"789 396 OFFCURVE",
"775 396 CURVE SMOOTH",
"494 396 LINE",
"468 624 LINE",
"830 624 LINE SMOOTH",
"844 624 OFFCURVE",
"856 630 OFFCURVE",
"858 654 CURVE SMOOTH",
"860 675 LINE SMOOTH",
"862 696 OFFCURVE",
"852 700 OFFCURVE",
"838 700 CURVE SMOOTH",
"392 700 LINE SMOOTH",
"371 700 OFFCURVE",
"358 692 OFFCURVE",
"347 673 CURVE SMOOTH",
"-41 31 LINE SMOOTH",
"-45 24 OFFCURVE",
"-47 17 OFFCURVE",
"-47 13 CURVE SMOOTH",
"-47 3 OFFCURVE",
"-38 -2 OFFCURVE",
"-9 -2 CURVE SMOOTH"
);
},
{
closed = 1;
nodes = (
"360 552 LINE",
"387 610 LINE",
"389 610 LINE",
"389 552 LINE",
"419 253 LINE",
"180 253 LINE"
);
},
{
closed = 1;
nodes = (
"437 752 OFFCURVE",
"449 756 OFFCURVE",
"479 773 CURVE SMOOTH",
"536 806 LINE SMOOTH",
"571 826 OFFCURVE",
"581 835 OFFCURVE",
"581 847 CURVE SMOOTH",
"581 858 OFFCURVE",
"560 864 OFFCURVE",
"529 864 CURVE SMOOTH",
"488 864 OFFCURVE",
"470 859 OFFCURVE",
"451 841 CURVE SMOOTH",
"391 784 LINE SMOOTH",
"385 778 OFFCURVE",
"378 771 OFFCURVE",
"378 764 CURVE SMOOTH",
"378 757 OFFCURVE",
"387 752 OFFCURVE",
"403 752 CURVE SMOOTH"
);
}
);
width = 915;
},
{
anchors = (
{
name = top;
position = "{595, 862}";
}
);
layerId = "1564F15A-2B4C-4FFD-AA43-969DC22C29FF";
paths = (
{
closed = 1;
nodes = (
"62 -2 LINE SMOOTH",
"86 -2 OFFCURVE",
"101 5 OFFCURVE",
"110 19 CURVE SMOOTH",
"183 141 LINE",
"426 141 LINE",
"435 30 LINE SMOOTH",
"437 9 OFFCURVE",
"445 0 OFFCURVE",
"467 0 CURVE SMOOTH",
"792 0 LINE SMOOTH",
"823 0 OFFCURVE",
"834 15 OFFCURVE",
"837 50 CURVE SMOOTH",
"840 81 LINE SMOOTH",
"843 116 OFFCURVE",
"837 131 OFFCURVE",
"806 131 CURVE SMOOTH",
"579 131 LINE",
"565 293 LINE",
"795 293 LINE SMOOTH",
"826 293 OFFCURVE",
"837 308 OFFCURVE",
"840 343 CURVE SMOOTH",
"843 374 LINE SMOOTH",
"846 409 OFFCURVE",
"840 424 OFFCURVE",
"809 424 CURVE SMOOTH",
"552 424 LINE",
"540 569 LINE",
"851 569 LINE SMOOTH",
"882 569 OFFCURVE",
"893 584 OFFCURVE",
"896 619 CURVE SMOOTH",
"899 650 LINE SMOOTH",
"902 685 OFFCURVE",
"896 700 OFFCURVE",
"865 700 CURVE SMOOTH",
"406 700 LINE SMOOTH",
"385 700 OFFCURVE",
"372 692 OFFCURVE",
"360 673 CURVE SMOOTH",
"-27 38 LINE",
"-32 31 OFFCURVE",
"-35 25 OFFCURVE",
"-35 20 CURVE SMOOTH",
"-35 0 OFFCURVE",
"1 -2 OFFCURVE",
"25 -2 CURVE SMOOTH"
);
},
{
closed = 1;
nodes = (
"370 455 LINE",
"406 537 LINE",
"410 537 LINE",
"402 454 LINE",
"416 273 LINE",
"262 273 LINE"
);
},
{
closed = 1;
nodes = (
"558 749 OFFCURVE",
"573 754 OFFCURVE",
"596 768 CURVE SMOOTH",
"688 824 LINE SMOOTH",
"711 838 OFFCURVE",
"721 850 OFFCURVE",
"721 858 CURVE SMOOTH",
"721 872 OFFCURVE",
"698 875 OFFCURVE",
"652 875 CURVE SMOOTH",
"606 875 OFFCURVE",
"586 868 OFFCURVE",
"563 845 CURVE SMOOTH",
"502 785 LINE SMOOTH",
"492 775 OFFCURVE",
"487 767 OFFCURVE",
"487 761 CURVE SMOOTH",
"487 753 OFFCURVE",
"498 749 OFFCURVE",
"524 749 CURVE SMOOTH"
);
}
);
width = 915;
}
);
leftKerningGroup = AE;
rightKerningGroup = E;
unicode = 01FC;
},
{
glyphname = B;
layers = (
{
anchors = (
{
name = bottom;
position = "{270, 0}";
},
{
name = top;
position = "{343, 700}";
}
);
layerId = master01;
paths = (
{
closed = 1;
nodes = (
"263 0 LINE SMOOTH",
"442 0 OFFCURVE",
"549 67 OFFCURVE",
"549 219 CURVE SMOOTH",
"549 336 OFFCURVE",
"422 367 OFFCURVE",
"422 367 CURVE",
"423 371 LINE",
"491 389 OFFCURVE",
"553 459 OFFCURVE",
"553 544 CURVE SMOOTH",
"553 637 OFFCURVE",
"482 700 OFFCURVE",
"343 700 CURVE SMOOTH",
"159 700 LINE SMOOTH",
"138 700 OFFCURVE",
"128 691 OFFCURVE",
"126 670 CURVE SMOOTH",
"59 24 LINE SMOOTH",
"57 7 OFFCURVE",
"67 0 OFFCURVE",
"86 0 CURVE SMOOTH"
);
},
{
closed = 1;
nodes = (
"178 322 LINE",
"312 322 LINE SMOOTH",
"408 322 OFFCURVE",
"458 284 OFFCURVE",
"458 220 CURVE SMOOTH",
"458 132 OFFCURVE",
"406 76 OFFCURVE",
"303 76 CURVE SMOOTH",
"152 76 LINE"
);
},
{
closed = 1;
nodes = (
"209 624 LINE",
"326 624 LINE SMOOTH",
"418 624 OFFCURVE",
"461 594 OFFCURVE",
"461 532 CURVE SMOOTH",
"461 449 OFFCURVE",
"397 398 OFFCURVE",
"307 398 CURVE SMOOTH",
"186 398 LINE"
);
}
);
width = 593;
},
{
anchors = (
{
name = bottom;
position = "{270, 0}";
},
{
name = top;
position = "{343, 700}";
}
);
layerId = "1564F15A-2B4C-4FFD-AA43-969DC22C29FF";
paths = (
{
closed = 1;
nodes = (
"297 0 LINE SMOOTH",
"477 0 OFFCURVE",
"569 80 OFFCURVE",
"569 220 CURVE SMOOTH",
"569 290 OFFCURVE",
"523 352 OFFCURVE",
"450 367 CURVE",
"450 371 LINE",
"521 400 OFFCURVE",
"575 457 OFFCURVE",
"575 546 CURVE SMOOTH",
"575 638 OFFCURVE",
"512 700 OFFCURVE",
"356 700 CURVE SMOOTH",
"158 700 LINE SMOOTH",
"130 700 OFFCURVE",
"117 688 OFFCURVE",
"114 660 CURVE SMOOTH",
"49 32 LINE SMOOTH",
"47 8 OFFCURVE",
"58 0 OFFCURVE",
"85 0 CURVE SMOOTH"
);
},
{
closed = 1;
nodes = (
"229 290 LINE",
"311 290 LINE SMOOTH",
"376 290 OFFCURVE",
"411 267 OFFCURVE",
"411 221 CURVE SMOOTH",
"411 163 OFFCURVE",
"380 131 OFFCURVE",
"310 131 CURVE SMOOTH",
"212 131 LINE"
);
},
{
closed = 1;
nodes = (
"259 570 LINE",
"330 570 LINE SMOOTH",
"386 570 OFFCURVE",
"413 549 OFFCURVE",
"413 507 CURVE SMOOTH",
"413 450 OFFCURVE",
"377 421 OFFCURVE",
"312 421 CURVE SMOOTH",
"243 421 LINE"
);
}
);
width = 593;
}
);
leftKerningGroup = H;
rightKerningGroup = B;
unicode = 0042;
},
{
glyphname = C;
layers = (
{
anchors = (
{
name = bottom;
position = "{330, 0}";
},
{
name = top;
position = "{383, 700}";
}
);
background = {
paths = (
{
closed = 1;
nodes = (
"407 -6 OFFCURVE",
"522 14 OFFCURVE",
"522 62 CURVE SMOOTH",
"522 93 OFFCURVE",
"518 104 OFFCURVE",
"505 104 CURVE SMOOTH",
"485 104 OFFCURVE",
"433 70 OFFCURVE",
"334 70 CURVE SMOOTH",
"195 70 OFFCURVE",
"128 138 OFFCURVE",
"128 286 CURVE SMOOTH",
"128 481 OFFCURVE",
"200 630 OFFCURVE",
"392 630 CURVE SMOOTH",
"488 630 OFFCURVE",
"539 586 OFFCURVE",
"550 586 CURVE SMOOTH",
"563 586 OFFCURVE",
"590 629 OFFCURVE",
"590 645 CURVE SMOOTH",
"590 672 OFFCURVE",
"504 706 OFFCURVE",
"407 706 CURVE SMOOTH",
"125 706 OFFCURVE",
"38 501 OFFCURVE",
"38 274 CURVE SMOOTH",
"38 83 OFFCURVE",
"131 -6 OFFCURVE",
"326 -6 CURVE SMOOTH"
);
}
);
};
layerId = master01;
paths = (
{
closed = 1;
nodes = (
"401 -6 OFFCURVE",
"468 13 OFFCURVE",
"506 33 CURVE SMOOTH",
"527 44 OFFCURVE",
"541 57 OFFCURVE",
"541 67 CURVE SMOOTH",
"541 81 OFFCURVE",
"524 120 OFFCURVE",
"512 120 CURVE SMOOTH",
"499 120 OFFCURVE",
"438 70 OFFCURVE",
"335 70 CURVE SMOOTH",
"196 70 OFFCURVE",
"130 138 OFFCURVE",
"130 285 CURVE SMOOTH",
"130 514 OFFCURVE",
"222 630 OFFCURVE",
"398 630 CURVE SMOOTH",
"494 630 OFFCURVE",
"537 586 OFFCURVE",
"548 586 CURVE SMOOTH",
"560 586 OFFCURVE",
"588 629 OFFCURVE",
"588 645 CURVE SMOOTH",
"588 654 OFFCURVE",
"577 664 OFFCURVE",
"567 670 CURVE SMOOTH",
"535 689 OFFCURVE",
"471 706 OFFCURVE",
"404 706 CURVE SMOOTH",
"167 706 OFFCURVE",
"38 553 OFFCURVE",
"38 275 CURVE SMOOTH",
"38 83 OFFCURVE",
"132 -6 OFFCURVE",
"327 -6 CURVE SMOOTH"
);
}
);
width = 619;
},
{
anchors = (
{
name = bottom;
position = "{370, 0}";
},
{
name = top;
position = "{403, 700}";
}
);
background = {
paths = (
{
closed = 1;
nodes = (
"133 708 OFFCURVE",
"42 506 OFFCURVE",
"42 276 CURVE SMOOTH",
"42 82 OFFCURVE",
"137 -8 OFFCURVE",
"337 -8 CURVE SMOOTH",
"386 -8 OFFCURVE",
"542 6 OFFCURVE",
"554 68 CURVE SMOOTH",
"563 116 OFFCURVE",
"564 156 OFFCURVE",
"564 163 CURVE SMOOTH",
"564 176 OFFCURVE",
"558 178 OFFCURVE",
"552 178 CURVE SMOOTH",
"538 178 OFFCURVE",
"464 123 OFFCURVE",
"351 123 CURVE SMOOTH",
"250 123 OFFCURVE",
"201 183 OFFCURVE",
"201 298 CURVE SMOOTH",
"201 483 OFFCURVE",
"272 576 OFFCURVE",
"400 576 CURVE SMOOTH",
"495 576 OFFCURVE",
"532 544 OFFCURVE",
"544 544 CURVE SMOOTH",
"569 544 OFFCURVE",
"619 613 OFFCURVE",
"619 640 CURVE SMOOTH",
"619 681 OFFCURVE",
"503 708 OFFCURVE",
"417 708 CURVE SMOOTH"
);
}
);
};
layerId = "1564F15A-2B4C-4FFD-AA43-969DC22C29FF";
paths = (
{
closed = 1;
nodes = (
"396 -8 OFFCURVE",
"482 5 OFFCURVE",
"529 30 CURVE SMOOTH",
"550 41 OFFCURVE",
"568 60 OFFCURVE",
"568 78 CURVE SMOOTH",
"568 98 OFFCURVE",
"549 163 OFFCURVE",
"518 163 CURVE SMOOTH",
"503 163 OFFCURVE",
"445 123 OFFCURVE",
"350 123 CURVE SMOOTH",
"250 123 OFFCURVE",
"200 183 OFFCURVE",
"200 299 CURVE SMOOTH",
"200 477 OFFCURVE",
"272 576 OFFCURVE",
"400 576 CURVE SMOOTH",
"495 576 OFFCURVE",
"531 544 OFFCURVE",
"543 544 CURVE SMOOTH",
"566 544 OFFCURVE",
"618 611 OFFCURVE",
"618 640 CURVE SMOOTH",
"618 651 OFFCURVE",
"610 661 OFFCURVE",
"596 670 CURVE SMOOTH",
"558 694 OFFCURVE",
"479 708 OFFCURVE",
"417 708 CURVE SMOOTH",
"173 708 OFFCURVE",
"41 557 OFFCURVE",
"41 276 CURVE SMOOTH",
"41 82 OFFCURVE",
"137 -8 OFFCURVE",
"336 -8 CURVE SMOOTH"
);
}
);
width = 619;
}
);
leftKerningGroup = O;
rightKerningGroup = C;
unicode = 0043;
},
{
glyphname = Cacute;
layers = (
{
anchors = (
{
name = bottom;
position = "{330, 0}";
},
{
name = top;
position = "{399, 852}";
}
);
layerId = master01;
paths = (
{
closed = 1;
nodes = (
"401 -6 OFFCURVE",
"468 13 OFFCURVE",
"506 33 CURVE SMOOTH",
"527 44 OFFCURVE",
"541 57 OFFCURVE",
"541 67 CURVE SMOOTH",
"541 81 OFFCURVE",
"524 120 OFFCURVE",
"512 120 CURVE SMOOTH",
"499 120 OFFCURVE",
"438 70 OFFCURVE",
"335 70 CURVE SMOOTH",
"196 70 OFFCURVE",
"130 138 OFFCURVE",
"130 285 CURVE SMOOTH",
"130 514 OFFCURVE",
"222 630 OFFCURVE",
"398 630 CURVE SMOOTH",
"494 630 OFFCURVE",
"537 586 OFFCURVE",
"548 586 CURVE SMOOTH",
"560 586 OFFCURVE",
"588 629 OFFCURVE",
"588 645 CURVE SMOOTH",
"588 654 OFFCURVE",
"577 664 OFFCURVE",
"567 670 CURVE SMOOTH",
"535 689 OFFCURVE",
"471 706 OFFCURVE",
"404 706 CURVE SMOOTH",
"167 706 OFFCURVE",
"38 553 OFFCURVE",
"38 275 CURVE SMOOTH",
"38 83 OFFCURVE",
"132 -6 OFFCURVE",
"327 -6 CURVE SMOOTH"
);
},
{
closed = 1;
nodes = (
"362 752 OFFCURVE",
"374 756 OFFCURVE",
"404 773 CURVE SMOOTH",
"461 806 LINE SMOOTH",
"496 826 OFFCURVE",
"506 835 OFFCURVE",
"506 847 CURVE SMOOTH",
"506 858 OFFCURVE",
"485 864 OFFCURVE",
"454 864 CURVE SMOOTH",
"413 864 OFFCURVE",
"395 859 OFFCURVE",
"376 841 CURVE SMOOTH",
"316 784 LINE SMOOTH",
"310 778 OFFCURVE",
"303 771 OFFCURVE",
"303 764 CURVE SMOOTH",
"303 757 OFFCURVE",
"312 752 OFFCURVE",
"328 752 CURVE SMOOTH"
);
}
);
width = 619;
},
{
anchors = (
{
name = bottom;
position = "{370, 0}";
},
{
name = top;
position = "{420, 862}";
}
);
layerId = "1564F15A-2B4C-4FFD-AA43-969DC22C29FF";
paths = (
{
closed = 1;
nodes = (
"396 -8 OFFCURVE",
"482 5 OFFCURVE",
"529 30 CURVE SMOOTH",
"550 41 OFFCURVE",
"568 60 OFFCURVE",
"568 78 CURVE SMOOTH",
"568 98 OFFCURVE",
"549 163 OFFCURVE",
"518 163 CURVE SMOOTH",
"503 163 OFFCURVE",
"445 123 OFFCURVE",
"350 123 CURVE SMOOTH",
"250 123 OFFCURVE",
"200 183 OFFCURVE",
"200 299 CURVE SMOOTH",
"200 477 OFFCURVE",
"272 576 OFFCURVE",
"400 576 CURVE SMOOTH",
"495 576 OFFCURVE",
"531 544 OFFCURVE",
"543 544 CURVE SMOOTH",
"566 544 OFFCURVE",
"618 611 OFFCURVE",
"618 640 CURVE SMOOTH",
"618 651 OFFCURVE",
"610 661 OFFCURVE",
"596 670 CURVE SMOOTH",
"558 694 OFFCURVE",
"479 708 OFFCURVE",
"417 708 CURVE SMOOTH",
"173 708 OFFCURVE",
"41 557 OFFCURVE",
"41 276 CURVE SMOOTH",
"41 82 OFFCURVE",
"137 -8 OFFCURVE",
"336 -8 CURVE SMOOTH"
);
},
{
closed = 1;
nodes = (
"383 749 OFFCURVE",
"398 754 OFFCURVE",
"421 768 CURVE SMOOTH",
"513 824 LINE SMOOTH",
"536 838 OFFCURVE",
"546 850 OFFCURVE",
"546 858 CURVE SMOOTH",
"546 872 OFFCURVE",
"523 875 OFFCURVE",
"477 875 CURVE SMOOTH",
"431 875 OFFCURVE",
"411 868 OFFCURVE",
"388 845 CURVE SMOOTH",
"327 785 LINE SMOOTH",
"317 775 OFFCURVE",
"312 767 OFFCURVE",
"312 761 CURVE SMOOTH",
"312 753 OFFCURVE",
"323 749 OFFCURVE",
"349 749 CURVE SMOOTH"
);
}
);
width = 619;
}
);
leftKerningGroup = O;
rightKerningGroup = C;
unicode = 0106;
},
{
glyphname = Ccaron;
layers = (
{
anchors = (
{
name = bottom;
position = "{330, 0}";
},
{
name = top;
position = "{398, 842}";
}
);
layerId = master01;
paths = (
{
closed = 1;
nodes = (
"401 -6 OFFCURVE",
"468 13 OFFCURVE",
"506 33 CURVE SMOOTH",
"527 44 OFFCURVE",
"541 57 OFFCURVE",
"541 67 CURVE SMOOTH",
"541 81 OFFCURVE",
"524 120 OFFCURVE",
"512 120 CURVE SMOOTH",
"499 120 OFFCURVE",
"438 70 OFFCURVE",
"335 70 CURVE SMOOTH",
"196 70 OFFCURVE",
"130 138 OFFCURVE",
"130 285 CURVE SMOOTH",
"130 514 OFFCURVE",
"222 630 OFFCURVE",
"398 630 CURVE SMOOTH",
"494 630 OFFCURVE",
"537 586 OFFCURVE",
"548 586 CURVE SMOOTH",
"560 586 OFFCURVE",
"588 629 OFFCURVE",
"588 645 CURVE SMOOTH",
"588 654 OFFCURVE",
"577 664 OFFCURVE",
"567 670 CURVE SMOOTH",
"535 689 OFFCURVE",
"471 706 OFFCURVE",
"404 706 CURVE SMOOTH",
"167 706 OFFCURVE",
"38 553 OFFCURVE",
"38 275 CURVE SMOOTH",
"38 83 OFFCURVE",
"132 -6 OFFCURVE",
"327 -6 CURVE SMOOTH"
);
},
{
closed = 1;
nodes = (
"402 752 LINE SMOOTH",
"433 752 OFFCURVE",
"446 755 OFFCURVE",
"464 775 CURVE SMOOTH",
"511 827 LINE SMOOTH",
"526 844 OFFCURVE",
"529 848 OFFCURVE",
"529 854 CURVE SMOOTH",
"529 860 OFFCURVE",
"523 864 OFFCURVE",
"508 864 CURVE SMOOTH",
"486 864 OFFCURVE",
"477 862 OFFCURVE",
"464 853 CURVE SMOOTH",
"394 807 LINE",
"337 851 LINE SMOOTH",
"324 861 OFFCURVE",
"314 864 OFFCURVE",
"292 864 CURVE SMOOTH",
"277 864 OFFCURVE",
"269 860 OFFCURVE",
"269 851 CURVE SMOOTH",
"269 848 OFFCURVE",
"271 841 OFFCURVE",
"280 829 CURVE SMOOTH",
"318 775 LINE SMOOTH",
"334 752 OFFCURVE",
"347 752 OFFCURVE",
"376 752 CURVE SMOOTH"
);
}
);
width = 619;
},
{
anchors = (
{
name = bottom;
position = "{370, 0}";
},
{
name = top;
position = "{421, 877}";
}
);
layerId = "1564F15A-2B4C-4FFD-AA43-969DC22C29FF";
paths = (
{
closed = 1;
nodes = (
"396 -8 OFFCURVE",
"482 5 OFFCURVE",
"529 30 CURVE SMOOTH",
"550 41 OFFCURVE",
"568 60 OFFCURVE",
"568 78 CURVE SMOOTH",
"568 98 OFFCURVE",
"549 163 OFFCURVE",
"518 163 CURVE SMOOTH",
"503 163 OFFCURVE",
"445 123 OFFCURVE",
"350 123 CURVE SMOOTH",
"250 123 OFFCURVE",
"200 183 OFFCURVE",
"200 299 CURVE SMOOTH",
"200 477 OFFCURVE",
"272 576 OFFCURVE",
"400 576 CURVE SMOOTH",
"495 576 OFFCURVE",
"531 544 OFFCURVE",
"543 544 CURVE SMOOTH",
"566 544 OFFCURVE",
"618 611 OFFCURVE",
"618 640 CURVE SMOOTH",
"618 651 OFFCURVE",
"610 661 OFFCURVE",
"596 670 CURVE SMOOTH",
"558 694 OFFCURVE",
"479 708 OFFCURVE",
"417 708 CURVE SMOOTH",
"173 708 OFFCURVE",
"41 557 OFFCURVE",
"41 276 CURVE SMOOTH",
"41 82 OFFCURVE",
"137 -8 OFFCURVE",
"336 -8 CURVE SMOOTH"
);
},
{
closed = 1;
nodes = (
"421 749 LINE SMOOTH",
"465 749 OFFCURVE",
"480 755 OFFCURVE",
"500 778 CURVE SMOOTH",
"555 842 LINE SMOOTH",
"561 849 OFFCURVE",
"566 856 OFFCURVE",
"566 862 CURVE SMOOTH",
"566 871 OFFCURVE",
"556 875 OFFCURVE",
"523 875 CURVE SMOOTH",
"496 875 OFFCURVE",
"477 872 OFFCURVE",
"458 858 CURVE SMOOTH",
"415 826 LINE",
"380 858 LINE SMOOTH",
"364 873 OFFCURVE",
"345 875 OFFCURVE",
"319 875 CURVE SMOOTH",
"285 875 OFFCURVE",
"272 871 OFFCURVE",
"272 860 CURVE SMOOTH",
"272 854 OFFCURVE",
"275 848 OFFCURVE",
"279 842 CURVE SMOOTH",
"321 778 LINE SMOOTH",
"336 755 OFFCURVE",
"350 749 OFFCURVE",
"393 749 CURVE SMOOTH"
);
}
);
width = 619;
}
);
leftKerningGroup = O;
rightKerningGroup = C;
unicode = 010C;
},
{
glyphname = Ccedilla;
layers = (
{
anchors = (
{
name = bottom;
position = "{268, -210}";
},
{
name = top;
position = "{383, 700}";
}
);
layerId = master01;
paths = (
{
closed = 1;
nodes = (
"401 -6 OFFCURVE",
"468 13 OFFCURVE",
"506 33 CURVE SMOOTH",
"527 44 OFFCURVE",
"541 57 OFFCURVE",
"541 67 CURVE SMOOTH",
"541 81 OFFCURVE",
"524 120 OFFCURVE",
"512 120 CURVE SMOOTH",
"499 120 OFFCURVE",
"438 70 OFFCURVE",
"335 70 CURVE SMOOTH",
"196 70 OFFCURVE",
"130 138 OFFCURVE",
"130 285 CURVE SMOOTH",
"130 514 OFFCURVE",
"222 630 OFFCURVE",
"398 630 CURVE SMOOTH",
"494 630 OFFCURVE",
"537 586 OFFCURVE",
"548 586 CURVE SMOOTH",
"560 586 OFFCURVE",
"588 629 OFFCURVE",
"588 645 CURVE SMOOTH",
"588 654 OFFCURVE",
"577 664 OFFCURVE",
"567 670 CURVE SMOOTH",
"535 689 OFFCURVE",
"471 706 OFFCURVE",
"404 706 CURVE SMOOTH",
"167 706 OFFCURVE",
"38 553 OFFCURVE",
"38 275 CURVE SMOOTH",
"38 83 OFFCURVE",
"132 -6 OFFCURVE",
"327 -6 CURVE SMOOTH"
);
},
{
closed = 1;
nodes = (
"347 -210 OFFCURVE",
"392 -174 OFFCURVE",
"392 -121 CURVE SMOOTH",
"392 -75 OFFCURVE",
"359 -54 OFFCURVE",
"298 -54 CURVE",
"306 -59 LINE",
"330 0 LINE",
"283 0 LINE",
"262 -53 OFFCURVE",
"256 -71 OFFCURVE",
"256 -77 CURVE SMOOTH",
"256 -101 OFFCURVE",
"328 -83 OFFCURVE",
"328 -124 CURVE SMOOTH",
"328 -146 OFFCURVE",
"306 -161 OFFCURVE",
"268 -161 CURVE SMOOTH",
"224 -161 OFFCURVE",
"195 -141 OFFCURVE",
"179 -141 CURVE SMOOTH",
"165 -141 OFFCURVE",
"157 -156 OFFCURVE",
"157 -166 CURVE SMOOTH",
"157 -196 OFFCURVE",
"225 -210 OFFCURVE",
"272 -210 CURVE SMOOTH"
);
}
);
width = 619;
},
{
anchors = (
{
name = bottom;
position = "{297, -212}";
},
{
name = top;
position = "{403, 700}";
}
);
layerId = "1564F15A-2B4C-4FFD-AA43-969DC22C29FF";
paths = (
{
closed = 1;
nodes = (
"396 -8 OFFCURVE",
"482 5 OFFCURVE",
"529 30 CURVE SMOOTH",
"550 41 OFFCURVE",
"568 60 OFFCURVE",
"568 78 CURVE SMOOTH",
"568 98 OFFCURVE",
"549 163 OFFCURVE",
"518 163 CURVE SMOOTH",
"503 163 OFFCURVE",
"445 123 OFFCURVE",
"350 123 CURVE SMOOTH",
"250 123 OFFCURVE",
"200 183 OFFCURVE",
"200 299 CURVE SMOOTH",
"200 477 OFFCURVE",
"272 576 OFFCURVE",
"400 576 CURVE SMOOTH",
"495 576 OFFCURVE",
"531 544 OFFCURVE",
"543 544 CURVE SMOOTH",
"566 544 OFFCURVE",
"618 611 OFFCURVE",
"618 640 CURVE SMOOTH",
"618 651 OFFCURVE",
"610 661 OFFCURVE",
"596 670 CURVE SMOOTH",
"558 694 OFFCURVE",
"479 708 OFFCURVE",
"417 708 CURVE SMOOTH",
"173 708 OFFCURVE",
"41 557 OFFCURVE",
"41 276 CURVE SMOOTH",
"41 82 OFFCURVE",
"137 -8 OFFCURVE",
"336 -8 CURVE SMOOTH"
);
},
{
closed = 1;
nodes = (
"383 -212 OFFCURVE",
"432 -173 OFFCURVE",
"432 -117 CURVE SMOOTH",
"432 -66 OFFCURVE",
"390 -45 OFFCURVE",
"329 -45 CURVE",
"350 -57 LINE",
"375 10 LINE",
"308 10 LINE",
"284 -58 OFFCURVE",
"280 -73 OFFCURVE",
"280 -78 CURVE SMOOTH",
"280 -97 OFFCURVE",
"346 -87 OFFCURVE",
"346 -121 CURVE SMOOTH",
"346 -136 OFFCURVE",
"334 -144 OFFCURVE",
"308 -144 CURVE SMOOTH",
"264 -144 OFFCURVE",
"221 -122 OFFCURVE",
"205 -122 CURVE SMOOTH",
"191 -122 OFFCURVE",
"177 -148 OFFCURVE",
"177 -166 CURVE SMOOTH",
"177 -195 OFFCURVE",
"248 -212 OFFCURVE",
"302 -212 CURVE SMOOTH"
);
}
);
width = 619;
}
);
leftKerningGroup = O;
rightKerningGroup = C;
unicode = 00C7;
},
{
glyphname = Ccircumflex;
layers = (
{
anchors = (
{
name = bottom;
position = "{330, 0}";
},
{
name = top;
position = "{397, 837}";
}
);
layerId = master01;
paths = (
{
closed = 1;
nodes = (
"401 -6 OFFCURVE",
"468 13 OFFCURVE",
"506 33 CURVE SMOOTH",
"527 44 OFFCURVE",
"541 57 OFFCURVE",
"541 67 CURVE SMOOTH",
"541 81 OFFCURVE",
"524 120 OFFCURVE",
"512 120 CURVE SMOOTH",
"499 120 OFFCURVE",
"438 70 OFFCURVE",
"335 70 CURVE SMOOTH",
"196 70 OFFCURVE",
"130 138 OFFCURVE",
"130 285 CURVE SMOOTH",
"130 514 OFFCURVE",
"222 630 OFFCURVE",
"398 630 CURVE SMOOTH",
"494 630 OFFCURVE",
"537 586 OFFCURVE",
"548 586 CURVE SMOOTH",
"560 586 OFFCURVE",
"588 629 OFFCURVE",
"588 645 CURVE SMOOTH",
"588 654 OFFCURVE",
"577 664 OFFCURVE",
"567 670 CURVE SMOOTH",
"535 689 OFFCURVE",
"471 706 OFFCURVE",
"404 706 CURVE SMOOTH",
"167 706 OFFCURVE",
"38 553 OFFCURVE",
"38 275 CURVE SMOOTH",
"38 83 OFFCURVE",
"132 -6 OFFCURVE",
"327 -6 CURVE SMOOTH"
);
},
{
closed = 1;
nodes = (
"290 742 OFFCURVE",
"308 747 OFFCURVE",
"324 757 CURVE SMOOTH",
"393 799 LINE",
"455 755 LINE SMOOTH",
"466 747 OFFCURVE",
"481 742 OFFCURVE",
"495 742 CURVE SMOOTH",
"511 742 OFFCURVE",
"518 747 OFFCURVE",
"518 753 CURVE SMOOTH",
"518 762 OFFCURVE",
"515 767 OFFCURVE",
"505 779 CURVE SMOOTH",
"460 832 LINE SMOOTH",
"446 849 OFFCURVE",
"435 854 OFFCURVE",
"409 854 CURVE SMOOTH",
"388 854 LINE SMOOTH",
"361 854 OFFCURVE",
"349 849 OFFCURVE",
"332 832 CURVE SMOOTH",
"275 777 LINE SMOOTH",
"262 764 OFFCURVE",
"258 758 OFFCURVE",
"258 752 CURVE SMOOTH",
"258 746 OFFCURVE",
"264 742 OFFCURVE",
"276 742 CURVE SMOOTH"
);
}
);
width = 619;
},
{
anchors = (
{
name = bottom;
position = "{370, 0}";
},
{
name = top;
position = "{417, 842}";
}
);
layerId = "1564F15A-2B4C-4FFD-AA43-969DC22C29FF";
paths = (
{
closed = 1;
nodes = (
"396 -8 OFFCURVE",
"482 5 OFFCURVE",
"529 30 CURVE SMOOTH",
"550 41 OFFCURVE",
"568 60 OFFCURVE",
"568 78 CURVE SMOOTH",
"568 98 OFFCURVE",
"549 163 OFFCURVE",
"518 163 CURVE SMOOTH",
"503 163 OFFCURVE",
"445 123 OFFCURVE",
"350 123 CURVE SMOOTH",
"250 123 OFFCURVE",
"200 183 OFFCURVE",
"200 299 CURVE SMOOTH",
"200 477 OFFCURVE",
"272 576 OFFCURVE",
"400 576 CURVE SMOOTH",
"495 576 OFFCURVE",
"531 544 OFFCURVE",
"543 544 CURVE SMOOTH",
"566 544 OFFCURVE",
"618 611 OFFCURVE",
"618 640 CURVE SMOOTH",
"618 651 OFFCURVE",
"610 661 OFFCURVE",
"596 670 CURVE SMOOTH",
"558 694 OFFCURVE",
"479 708 OFFCURVE",
"417 708 CURVE SMOOTH",
"173 708 OFFCURVE",
"41 557 OFFCURVE",
"41 276 CURVE SMOOTH",
"41 82 OFFCURVE",
"137 -8 OFFCURVE",
"336 -8 CURVE SMOOTH"
);
},
{
closed = 1;
nodes = (
"326 734 OFFCURVE",
"340 741 OFFCURVE",
"359 751 CURVE SMOOTH",
"411 779 LINE",
"457 751 LINE SMOOTH",
"473 741 OFFCURVE",
"488 734 OFFCURVE",
"521 734 CURVE SMOOTH",
"546 734 OFFCURVE",
"554 738 OFFCURVE",
"554 745 CURVE SMOOTH",
"554 750 OFFCURVE",
"549 757 OFFCURVE",
"536 774 CURVE SMOOTH",
"488 836 LINE SMOOTH",
"473 855 OFFCURVE",
"460 860 OFFCURVE",
"429 860 CURVE SMOOTH",
"409 860 LINE SMOOTH",
"379 860 OFFCURVE",
"365 855 OFFCURVE",
"347 837 CURVE SMOOTH",
"284 774 LINE SMOOTH",
"270 760 OFFCURVE",
"260 749 OFFCURVE",
"260 743 CURVE SMOOTH",
"260 738 OFFCURVE",
"266 734 OFFCURVE",
"292 734 CURVE SMOOTH"
);
}
);
width = 619;
}
);
leftKerningGroup = O;
rightKerningGroup = C;
unicode = 0108;
},
{
glyphname = Cdotaccent;
layers = (
{
anchors = (
{
name = bottom;
position = "{330, 0}";
},
{
name = top;
position = "{397, 842}";
}
);
layerId = master01;
paths = (
{
closed = 1;
nodes = (
"401 -6 OFFCURVE",
"468 13 OFFCURVE",
"506 33 CURVE SMOOTH",
"527 44 OFFCURVE",
"541 57 OFFCURVE",
"541 67 CURVE SMOOTH",
"541 81 OFFCURVE",
"524 120 OFFCURVE",
"512 120 CURVE SMOOTH",
"499 120 OFFCURVE",
"438 70 OFFCURVE",
"335 70 CURVE SMOOTH",
"196 70 OFFCURVE",
"130 138 OFFCURVE",
"130 285 CURVE SMOOTH",
"130 514 OFFCURVE",
"222 630 OFFCURVE",
"398 630 CURVE SMOOTH",
"494 630 OFFCURVE",
"537 586 OFFCURVE",
"548 586 CURVE SMOOTH",
"560 586 OFFCURVE",
"588 629 OFFCURVE",
"588 645 CURVE SMOOTH",
"588 654 OFFCURVE",
"577 664 OFFCURVE",
"567 670 CURVE SMOOTH",
"535 689 OFFCURVE",
"471 706 OFFCURVE",
"404 706 CURVE SMOOTH",
"167 706 OFFCURVE",
"38 553 OFFCURVE",
"38 275 CURVE SMOOTH",
"38 83 OFFCURVE",
"132 -6 OFFCURVE",
"327 -6 CURVE SMOOTH"
);
},
{
closed = 1;
nodes = (
"420 757 OFFCURVE",
"434 766 OFFCURVE",
"435 779 CURVE SMOOTH",
"441 839 LINE SMOOTH",
"442 849 OFFCURVE",
"439 861 OFFCURVE",
"401 861 CURVE SMOOTH",
"368 861 OFFCURVE",
"354 852 OFFCURVE",
"353 839 CURVE SMOOTH",
"347 779 LINE SMOOTH",
"347 774 OFFCURVE",
"343 757 OFFCURVE",
"388 757 CURVE SMOOTH"
);
}
);
width = 619;
},
{
anchors = (
{
name = bottom;
position = "{370, 0}";
},
{
name = top;
position = "{419, 852}";
}
);
layerId = "1564F15A-2B4C-4FFD-AA43-969DC22C29FF";
paths = (
{
closed = 1;
nodes = (
"396 -8 OFFCURVE",
"482 5 OFFCURVE",
"529 30 CURVE SMOOTH",
"550 41 OFFCURVE",
"568 60 OFFCURVE",
"568 78 CURVE SMOOTH",
"568 98 OFFCURVE",
"549 163 OFFCURVE",
"518 163 CURVE SMOOTH",
"503 163 OFFCURVE",
"445 123 OFFCURVE",
"350 123 CURVE SMOOTH",
"250 123 OFFCURVE",
"200 183 OFFCURVE",
"200 299 CURVE SMOOTH",
"200 477 OFFCURVE",
"272 576 OFFCURVE",
"400 576 CURVE SMOOTH",
"495 576 OFFCURVE",
"531 544 OFFCURVE",
"543 544 CURVE SMOOTH",
"566 544 OFFCURVE",
"618 611 OFFCURVE",
"618 640 CURVE SMOOTH",
"618 651 OFFCURVE",
"610 661 OFFCURVE",
"596 670 CURVE SMOOTH",
"558 694 OFFCURVE",
"479 708 OFFCURVE",
"417 708 CURVE SMOOTH",
"173 708 OFFCURVE",
"41 557 OFFCURVE",
"41 276 CURVE SMOOTH",
"41 82 OFFCURVE",
"137 -8 OFFCURVE",
"336 -8 CURVE SMOOTH"
);
},
{
closed = 1;
nodes = (
"484 741 OFFCURVE",
"483 767 OFFCURVE",
"484 773 CURVE SMOOTH",
"492 851 LINE SMOOTH",
"493 862 OFFCURVE",
"492 883 OFFCURVE",
"422 883 CURVE SMOOTH",
"348 883 OFFCURVE",
"345 860 OFFCURVE",
"344 851 CURVE SMOOTH",
"336 773 LINE SMOOTH",
"335 764 OFFCURVE",
"334 741 OFFCURVE",
"407 741 CURVE SMOOTH"
);
}
);
width = 619;
}
);
leftKerningGroup = O;
rightKerningGroup = C;
unicode = 010A;
},
{
glyphname = D;
layers = (
{
anchors = (
{
name = bottom;
position = "{291, 0}";
},
{
name = center;
position = "{348, 350}";
},
{
name = top;
position = "{348, 700}";
}
);
layerId = master01;
paths = (
{
closed = 1;
nodes = (
"302 0 LINE SMOOTH",
"481 0 OFFCURVE",
"653 105 OFFCURVE",
"653 415 CURVE SMOOTH",
"653 624 OFFCURVE",
"532 700 OFFCURVE",
"375 700 CURVE SMOOTH",
"160 700 LINE SMOOTH",
"139 700 OFFCURVE",
"129 691 OFFCURVE",
"127 670 CURVE SMOOTH",
"60 24 LINE SMOOTH",
"58 7 OFFCURVE",
"68 0 OFFCURVE",
"87 0 CURVE SMOOTH"
);
},
{
closed = 1;
nodes = (
"210 624 LINE",
"360 624 LINE SMOOTH",
"474 624 OFFCURVE",
"562 567 OFFCURVE",
"562 401 CURVE SMOOTH",
"562 163 OFFCURVE",
"433 76 OFFCURVE",
"303 76 CURVE SMOOTH",
"153 76 LINE"
);
}
);
width = 695;
},
{
anchors = (
{
name = bottom;
position = "{306, 0}";
},
{
name = center;
position = "{363, 350}";
},
{
name = top;
position = "{363, 700}";
}
);
layerId = "1564F15A-2B4C-4FFD-AA43-969DC22C29FF";
paths = (
{
closed = 1;
nodes = (
"315 0 LINE SMOOTH",
"534 0 OFFCURVE",
"675 146 OFFCURVE",
"675 411 CURVE SMOOTH",
"675 598 OFFCURVE",
"575 700 OFFCURVE",
"388 700 CURVE SMOOTH",
"164 700 LINE SMOOTH",
"136 700 OFFCURVE",
"123 688 OFFCURVE",
"120 660 CURVE SMOOTH",
"56 43 LINE SMOOTH",
"53 9 OFFCURVE",
"64 0 OFFCURVE",
"91 0 CURVE SMOOTH"
);
},
{
closed = 1;
nodes = (
"266 569 LINE",
"375 569 LINE SMOOTH",
"469 569 OFFCURVE",
"516 509 OFFCURVE",
"516 397 CURVE SMOOTH",
"516 225 OFFCURVE",
"443 131 OFFCURVE",
"328 131 CURVE SMOOTH",
"219 131 LINE"
);
}
);
width = 695;
}
);
leftKerningGroup = H;
rightKerningGroup = O;
unicode = 0044;
},
{
glyphname = DZ;
layers = (
{
anchors = (
{
name = bottom;
position = "{992, 0}";
},
{
name = center;
position = "{348, 350}";
},
{
name = top;
position = "{1051, 700}";
}
);
layerId = master01;
paths = (
{
closed = 1;
nodes = (
"302 0 LINE SMOOTH",
"481 0 OFFCURVE",
"653 105 OFFCURVE",
"653 415 CURVE SMOOTH",
"653 624 OFFCURVE",
"532 700 OFFCURVE",
"375 700 CURVE SMOOTH",
"160 700 LINE SMOOTH",
"139 700 OFFCURVE",
"129 691 OFFCURVE",
"127 670 CURVE SMOOTH",
"60 24 LINE SMOOTH",
"58 7 OFFCURVE",
"68 0 OFFCURVE",
"87 0 CURVE SMOOTH"
);
},
{
closed = 1;
nodes = (
"210 624 LINE",
"360 624 LINE SMOOTH",
"474 624 OFFCURVE",
"562 567 OFFCURVE",
"562 401 CURVE SMOOTH",
"562 163 OFFCURVE",
"433 76 OFFCURVE",
"303 76 CURVE SMOOTH",
"153 76 LINE"
);
},
{
closed = 1;
nodes = (
"1218 0 LINE SMOOTH",
"1232 0 OFFCURVE",
"1241 9 OFFCURVE",
"1244 33 CURVE SMOOTH",
"1246 48 LINE SMOOTH",
"1249 67 OFFCURVE",
"1240 76 OFFCURVE",
"1226 76 CURVE SMOOTH",
"836 76 LINE",
"1304 635 LINE SMOOTH",
"1308 640 OFFCURVE",
"1309 645 OFFCURVE",
"1309 652 CURVE SMOOTH",
"1309 673 OFFCURVE",
"1303 700 OFFCURVE",
"1286 700 CURVE SMOOTH",
"835 700 LINE SMOOTH",
"821 700 OFFCURVE",
"812 695 OFFCURVE",
"809 671 CURVE SMOOTH",
"807 654 LINE SMOOTH",
"805 635 OFFCURVE",
"813 624 OFFCURVE",
"827 624 CURVE SMOOTH",
"1186 624 LINE",
"721 69 LINE SMOOTH",
"715 62 OFFCURVE",
"713 53 OFFCURVE",
"713 47 CURVE SMOOTH",
"713 27 OFFCURVE",
"720 0 OFFCURVE",
"736 0 CURVE SMOOTH"
);
}
);
width = 1311;
},
{
anchors = (
{
name = bottom;
position = "{992, 0}";
},
{
name = center;
position = "{363, 350}";
},
{
name = top;
position = "{1054, 700}";
}
);
layerId = "1564F15A-2B4C-4FFD-AA43-969DC22C29FF";
paths = (
{
closed = 1;
nodes = (
"315 0 LINE SMOOTH",
"534 0 OFFCURVE",
"675 146 OFFCURVE",
"675 411 CURVE SMOOTH",
"675 598 OFFCURVE",
"575 700 OFFCURVE",
"388 700 CURVE SMOOTH",
"164 700 LINE SMOOTH",
"136 700 OFFCURVE",
"123 688 OFFCURVE",
"120 660 CURVE SMOOTH",
"56 43 LINE SMOOTH",
"53 9 OFFCURVE",
"64 0 OFFCURVE",
"91 0 CURVE SMOOTH"
);
},
{
closed = 1;
nodes = (
"266 569 LINE",
"375 569 LINE SMOOTH",
"469 569 OFFCURVE",
"516 509 OFFCURVE",
"516 397 CURVE SMOOTH",
"516 225 OFFCURVE",
"443 131 OFFCURVE",
"328 131 CURVE SMOOTH",
"219 131 LINE"
);
},
{
closed = 1;
nodes = (
"1220 0 LINE SMOOTH",
"1241 0 OFFCURVE",
"1255 15 OFFCURVE",
"1259 60 CURVE SMOOTH",
"1260 71 LINE SMOOTH",
"1264 116 OFFCURVE",
"1255 131 OFFCURVE",
"1234 131 CURVE SMOOTH",
"929 131 LINE",
"1307 593 LINE SMOOTH",
"1312 599 OFFCURVE",
"1314 605 OFFCURVE",
"1314 613 CURVE SMOOTH",
"1314 641 OFFCURVE",
"1301 700 OFFCURVE",
"1282 700 CURVE SMOOTH",
"831 700 LINE SMOOTH",
"810 700 OFFCURVE",
"796 685 OFFCURVE",
"792 640 CURVE SMOOTH",
"791 629 LINE SMOOTH",
"787 584 OFFCURVE",
"796 569 OFFCURVE",
"817 569 CURVE SMOOTH",
"1095 569 LINE",
"718 107 LINE SMOOTH",
"714 103 OFFCURVE",
"711 95 OFFCURVE",
"711 87 CURVE SMOOTH",
"711 59 OFFCURVE",
"724 0 OFFCURVE",
"748 0 CURVE SMOOTH"
);
}
);
width = 1311;
}
);
leftKerningGroup = H;
rightKerningGroup = Z;
unicode = 01F1;
},
{
glyphname = DZcaron;
layers = (
{
anchors = (
{
name = bottom;
position = "{992, 0}";
},
{
name = center;
position = "{348, 350}";
},
{
name = top;
position = "{1066, 842}";
}
);
layerId = master01;
paths = (
{
closed = 1;
nodes = (
"302 0 LINE SMOOTH",
"481 0 OFFCURVE",
"653 105 OFFCURVE",
"653 415 CURVE SMOOTH",
"653 624 OFFCURVE",
"532 700 OFFCURVE",
"375 700 CURVE SMOOTH",
"160 700 LINE SMOOTH",
"139 700 OFFCURVE",
"129 691 OFFCURVE",
"127 670 CURVE SMOOTH",
"60 24 LINE SMOOTH",
"58 7 OFFCURVE",
"68 0 OFFCURVE",
"87 0 CURVE SMOOTH"
);
},
{
closed = 1;
nodes = (
"210 624 LINE",
"360 624 LINE SMOOTH",
"474 624 OFFCURVE",
"562 567 OFFCURVE",
"562 401 CURVE SMOOTH",
"562 163 OFFCURVE",
"433 76 OFFCURVE",
"303 76 CURVE SMOOTH",
"153 76 LINE"
);
},
{
closed = 1;
nodes = (
"1218 0 LINE SMOOTH",
"1232 0 OFFCURVE",
"1241 9 OFFCURVE",
"1244 33 CURVE SMOOTH",
"1246 48 LINE SMOOTH",
"1249 67 OFFCURVE",
"1240 76 OFFCURVE",
"1226 76 CURVE SMOOTH",
"836 76 LINE",
"1304 635 LINE SMOOTH",
"1308 640 OFFCURVE",
"1309 645 OFFCURVE",
"1309 652 CURVE SMOOTH",
"1309 673 OFFCURVE",
"1303 700 OFFCURVE",
"1286 700 CURVE SMOOTH",
"835 700 LINE SMOOTH",
"821 700 OFFCURVE",
"812 695 OFFCURVE",
"809 671 CURVE SMOOTH",
"807 654 LINE SMOOTH",
"805 635 OFFCURVE",
"813 624 OFFCURVE",
"827 624 CURVE SMOOTH",
"1186 624 LINE",
"721 69 LINE SMOOTH",
"715 62 OFFCURVE",
"713 53 OFFCURVE",
"713 47 CURVE SMOOTH",
"713 27 OFFCURVE",
"720 0 OFFCURVE",
"736 0 CURVE SMOOTH"
);
},
{
closed = 1;
nodes = (
"1070 752 LINE SMOOTH",
"1101 752 OFFCURVE",
"1114 755 OFFCURVE",
"1132 775 CURVE SMOOTH",
"1179 827 LINE SMOOTH",
"1194 844 OFFCURVE",
"1197 848 OFFCURVE",
"1197 854 CURVE SMOOTH",
"1197 860 OFFCURVE",
"1191 864 OFFCURVE",
"1176 864 CURVE SMOOTH",
"1154 864 OFFCURVE",
"1145 862 OFFCURVE",
"1132 853 CURVE SMOOTH",
"1062 807 LINE",
"1005 851 LINE SMOOTH",
"992 861 OFFCURVE",
"982 864 OFFCURVE",
"960 864 CURVE SMOOTH",
"945 864 OFFCURVE",
"937 860 OFFCURVE",
"937 851 CURVE SMOOTH",
"937 848 OFFCURVE",
"939 841 OFFCURVE",
"948 829 CURVE SMOOTH",
"986 775 LINE SMOOTH",
"1002 752 OFFCURVE",
"1015 752 OFFCURVE",
"1044 752 CURVE SMOOTH"
);
}
);
width = 1311;
},
{
anchors = (
{
name = bottom;
position = "{992, 0}";
},
{
name = center;
position = "{363, 350}";
},
{
name = top;
position = "{1072, 877}";
}
);
layerId = "1564F15A-2B4C-4FFD-AA43-969DC22C29FF";
paths = (
{
closed = 1;
nodes = (
"315 0 LINE SMOOTH",
"534 0 OFFCURVE",
"675 146 OFFCURVE",
"675 411 CURVE SMOOTH",
"675 598 OFFCURVE",
"575 700 OFFCURVE",
"388 700 CURVE SMOOTH",
"164 700 LINE SMOOTH",
"136 700 OFFCURVE",
"123 688 OFFCURVE",
"120 660 CURVE SMOOTH",
"56 43 LINE SMOOTH",
"53 9 OFFCURVE",
"64 0 OFFCURVE",
"91 0 CURVE SMOOTH"
);
},
{
closed = 1;
nodes = (
"266 569 LINE",
"375 569 LINE SMOOTH",
"469 569 OFFCURVE",
"516 509 OFFCURVE",
"516 397 CURVE SMOOTH",
"516 225 OFFCURVE",
"443 131 OFFCURVE",
"328 131 CURVE SMOOTH",
"219 131 LINE"
);
},
{
closed = 1;
nodes = (
"1220 0 LINE SMOOTH",
"1241 0 OFFCURVE",
"1255 15 OFFCURVE",
"1259 60 CURVE SMOOTH",
"1260 71 LINE SMOOTH",
"1264 116 OFFCURVE",
"1255 131 OFFCURVE",
"1234 131 CURVE SMOOTH",
"929 131 LINE",
"1307 593 LINE SMOOTH",
"1312 599 OFFCURVE",
"1314 605 OFFCURVE",
"1314 613 CURVE SMOOTH",
"1314 641 OFFCURVE",
"1301 700 OFFCURVE",
"1282 700 CURVE SMOOTH",
"831 700 LINE SMOOTH",
"810 700 OFFCURVE",
"796 685 OFFCURVE",
"792 640 CURVE SMOOTH",
"791 629 LINE SMOOTH",
"787 584 OFFCURVE",
"796 569 OFFCURVE",
"817 569 CURVE SMOOTH",
"1095 569 LINE",
"718 107 LINE SMOOTH",
"714 103 OFFCURVE",
"711 95 OFFCURVE",
"711 87 CURVE SMOOTH",
"711 59 OFFCURVE",
"724 0 OFFCURVE",
"748 0 CURVE SMOOTH"
);
},
{
closed = 1;
nodes = (
"1072 749 LINE SMOOTH",
"1116 749 OFFCURVE",
"1131 755 OFFCURVE",
"1151 778 CURVE SMOOTH",
"1206 842 LINE SMOOTH",
"1212 849 OFFCURVE",
"1217 856 OFFCURVE",
"1217 862 CURVE SMOOTH",
"1217 871 OFFCURVE",
"1207 875 OFFCURVE",
"1174 875 CURVE SMOOTH",
"1147 875 OFFCURVE",
"1128 872 OFFCURVE",
"1109 858 CURVE SMOOTH",
"1066 826 LINE",
"1031 858 LINE SMOOTH",
"1015 873 OFFCURVE",
"996 875 OFFCURVE",
"970 875 CURVE SMOOTH",
"936 875 OFFCURVE",
"923 871 OFFCURVE",
"923 860 CURVE SMOOTH",
"923 854 OFFCURVE",
"926 848 OFFCURVE",
"930 842 CURVE SMOOTH",
"972 778 LINE SMOOTH",
"987 755 OFFCURVE",
"1001 749 OFFCURVE",
"1044 749 CURVE SMOOTH"
);
}
);
width = 1311;
}
);
leftKerningGroup = H;
rightKerningGroup = Z;
unicode = 01C4;
},
{
glyphname = Eth;
layers = (
{
anchors = (
{
name = bottom;
position = "{291, 0}";
},
{
name = center;
position = "{348, 350}";
},
{
name = top;
position = "{348, 700}";
}
);
layerId = master01;
paths = (
{
closed = 1;
nodes = (
"332 320 LINE SMOOTH",
"346 320 OFFCURVE",
"353 330 OFFCURVE",
"355 352 CURVE SMOOTH",
"356 364 LINE SMOOTH",
"358 386 OFFCURVE",
"352 396 OFFCURVE",
"336 396 CURVE SMOOTH",
"37 396 LINE SMOOTH",
"22 396 OFFCURVE",
"14 389 OFFCURVE",
"12 367 CURVE SMOOTH",
"10 349 LINE SMOOTH",
"8 330 OFFCURVE",
"15 320 OFFCURVE",
"29 320 CURVE SMOOTH"
);
},
{
closed = 1;
nodes = (
"302 0 LINE SMOOTH",
"481 0 OFFCURVE",
"653 105 OFFCURVE",
"653 415 CURVE SMOOTH",
"653 624 OFFCURVE",
"532 700 OFFCURVE",
"375 700 CURVE SMOOTH",
"160 700 LINE SMOOTH",
"139 700 OFFCURVE",
"129 691 OFFCURVE",
"127 670 CURVE SMOOTH",
"60 24 LINE SMOOTH",
"58 7 OFFCURVE",
"68 0 OFFCURVE",
"87 0 CURVE SMOOTH"
);
},
{
closed = 1;
nodes = (
"210 624 LINE",
"360 624 LINE SMOOTH",
"474 624 OFFCURVE",
"562 567 OFFCURVE",
"562 401 CURVE SMOOTH",
"562 163 OFFCURVE",
"433 76 OFFCURVE",
"303 76 CURVE SMOOTH",
"153 76 LINE"
);
}
);
userData = {
com.schriftgestaltung.Glyphs.glyph.rightMetricsKey = "=D";
};
width = 695;
},
{
anchors = (
{
name = bottom;
position = "{306, 0}";
},
{
name = center;
position = "{363, 350}";
},
{
name = top;
position = "{363, 700}";
}
);
layerId = "1564F15A-2B4C-4FFD-AA43-969DC22C29FF";
paths = (
{
closed = 1;
nodes = (
"334 290 LINE SMOOTH",
"357 290 OFFCURVE",
"366 307 OFFCURVE",
"371 347 CURVE SMOOTH",
"373 364 LINE SMOOTH",
"378 404 OFFCURVE",
"369 421 OFFCURVE",
"346 421 CURVE SMOOTH",
"59 421 LINE SMOOTH",
"35 421 OFFCURVE",
"25 405 OFFCURVE",
"21 365 CURVE SMOOTH",
"19 347 LINE SMOOTH",
"15 307 OFFCURVE",
"23 290 OFFCURVE",
"47 290 CURVE SMOOTH"
);
},
{
closed = 1;
nodes = (
"315 0 LINE SMOOTH",
"534 0 OFFCURVE",
"675 146 OFFCURVE",
"675 411 CURVE SMOOTH",
"675 598 OFFCURVE",
"575 700 OFFCURVE",
"388 700 CURVE SMOOTH",
"164 700 LINE SMOOTH",
"136 700 OFFCURVE",
"123 688 OFFCURVE",
"120 660 CURVE SMOOTH",
"56 43 LINE SMOOTH",
"53 9 OFFCURVE",
"64 0 OFFCURVE",
"91 0 CURVE SMOOTH"
);
},
{
closed = 1;
nodes = (
"266 569 LINE",
"375 569 LINE SMOOTH",
"469 569 OFFCURVE",
"516 509 OFFCURVE",
"516 397 CURVE SMOOTH",
"516 225 OFFCURVE",
"443 131 OFFCURVE",
"328 131 CURVE SMOOTH",
"219 131 LINE"
);
}
);
userData = {
com.schriftgestaltung.Glyphs.glyph.rightMetricsKey = "=D";
};
width = 695;
}
);
leftKerningGroup = H;
rightKerningGroup = O;
unicode = 00D0;
},
{
glyphname = Dcaron;
layers = (
{
anchors = (
{
name = bottom;
position = "{291, 0}";
},
{
name = center;
position = "{348, 350}";
},
{
name = top;
position = "{363, 842}";
}
);
layerId = master01;
paths = (
{
closed = 1;
nodes = (
"302 0 LINE SMOOTH",
"481 0 OFFCURVE",
"653 105 OFFCURVE",
"653 415 CURVE SMOOTH",
"653 624 OFFCURVE",
"532 700 OFFCURVE",
"375 700 CURVE SMOOTH",
"160 700 LINE SMOOTH",
"139 700 OFFCURVE",
"129 691 OFFCURVE",
"127 670 CURVE SMOOTH",
"60 24 LINE SMOOTH",
"58 7 OFFCURVE",
"68 0 OFFCURVE",
"87 0 CURVE SMOOTH"
);
},
{
closed = 1;
nodes = (
"210 624 LINE",
"360 624 LINE SMOOTH",
"474 624 OFFCURVE",
"562 567 OFFCURVE",
"562 401 CURVE SMOOTH",
"562 163 OFFCURVE",
"433 76 OFFCURVE",
"303 76 CURVE SMOOTH",
"153 76 LINE"
);
},
{
closed = 1;
nodes = (
"367 752 LINE SMOOTH",
"398 752 OFFCURVE",
"411 755 OFFCURVE",
"429 775 CURVE SMOOTH",
"476 827 LINE SMOOTH",
"491 844 OFFCURVE",
"494 848 OFFCURVE",
"494 854 CURVE SMOOTH",
"494 860 OFFCURVE",
"488 864 OFFCURVE",
"473 864 CURVE SMOOTH",
"451 864 OFFCURVE",
"442 862 OFFCURVE",
"429 853 CURVE SMOOTH",
"359 807 LINE",
"302 851 LINE SMOOTH",
"289 861 OFFCURVE",
"279 864 OFFCURVE",
"257 864 CURVE SMOOTH",
"242 864 OFFCURVE",
"234 860 OFFCURVE",
"234 851 CURVE SMOOTH",
"234 848 OFFCURVE",
"236 841 OFFCURVE",
"245 829 CURVE SMOOTH",
"283 775 LINE SMOOTH",
"299 752 OFFCURVE",
"312 752 OFFCURVE",
"341 752 CURVE SMOOTH"
);
}
);
width = 695;
},
{
anchors = (
{
name = bottom;
position = "{306, 0}";
},
{
name = center;
position = "{363, 350}";
},
{
name = top;
position = "{381, 877}";
}
);
layerId = "1564F15A-2B4C-4FFD-AA43-969DC22C29FF";
paths = (
{
closed = 1;
nodes = (
"315 0 LINE SMOOTH",
"534 0 OFFCURVE",
"675 146 OFFCURVE",
"675 411 CURVE SMOOTH",
"675 598 OFFCURVE",
"575 700 OFFCURVE",
"388 700 CURVE SMOOTH",
"164 700 LINE SMOOTH",
"136 700 OFFCURVE",
"123 688 OFFCURVE",
"120 660 CURVE SMOOTH",
"56 43 LINE SMOOTH",
"53 9 OFFCURVE",
"64 0 OFFCURVE",
"91 0 CURVE SMOOTH"
);
},
{
closed = 1;
nodes = (
"266 569 LINE",
"375 569 LINE SMOOTH",
"469 569 OFFCURVE",
"516 509 OFFCURVE",
"516 397 CURVE SMOOTH",
"516 225 OFFCURVE",
"443 131 OFFCURVE",
"328 131 CURVE SMOOTH",
"219 131 LINE"
);
},
{
closed = 1;
nodes = (
"381 749 LINE SMOOTH",
"425 749 OFFCURVE",
"440 755 OFFCURVE",
"460 778 CURVE SMOOTH",
"515 842 LINE SMOOTH",
"521 849 OFFCURVE",
"526 856 OFFCURVE",
"526 862 CURVE SMOOTH",
"526 871 OFFCURVE",
"516 875 OFFCURVE",
"483 875 CURVE SMOOTH",
"456 875 OFFCURVE",
"437 872 OFFCURVE",
"418 858 CURVE SMOOTH",
"375 826 LINE",
"340 858 LINE SMOOTH",
"324 873 OFFCURVE",
"305 875 OFFCURVE",
"279 875 CURVE SMOOTH",
"245 875 OFFCURVE",
"232 871 OFFCURVE",
"232 860 CURVE SMOOTH",
"232 854 OFFCURVE",
"235 848 OFFCURVE",
"239 842 CURVE SMOOTH",
"281 778 LINE SMOOTH",
"296 755 OFFCURVE",
"310 749 OFFCURVE",
"353 749 CURVE SMOOTH"
);
}
);
width = 695;
}
);
leftKerningGroup = H;
rightKerningGroup = O;
unicode = 010E;
},
{
glyphname = Dcroat;
layers = (
{
anchors = (
{
name = bottom;
position = "{291, 0}";
},
{
name = center;
position = "{348, 350}";
},
{
name = top;
position = "{348, 700}";
}
);
layerId = master01;
paths = (
{
closed = 1;
nodes = (
"332 320 LINE SMOOTH",
"346 320 OFFCURVE",
"353 330 OFFCURVE",
"355 352 CURVE SMOOTH",
"356 364 LINE SMOOTH",
"358 386 OFFCURVE",
"352 396 OFFCURVE",
"336 396 CURVE SMOOTH",
"37 396 LINE SMOOTH",
"22 396 OFFCURVE",
"14 389 OFFCURVE",
"12 367 CURVE SMOOTH",
"10 349 LINE SMOOTH",
"8 330 OFFCURVE",
"15 320 OFFCURVE",
"29 320 CURVE SMOOTH"
);
},
{
closed = 1;
nodes = (
"302 0 LINE SMOOTH",
"481 0 OFFCURVE",
"653 105 OFFCURVE",
"653 415 CURVE SMOOTH",
"653 624 OFFCURVE",
"532 700 OFFCURVE",
"375 700 CURVE SMOOTH",
"160 700 LINE SMOOTH",
"139 700 OFFCURVE",
"129 691 OFFCURVE",
"127 670 CURVE SMOOTH",
"60 24 LINE SMOOTH",
"58 7 OFFCURVE",
"68 0 OFFCURVE",
"87 0 CURVE SMOOTH"
);
},
{
closed = 1;
nodes = (
"210 624 LINE",
"360 624 LINE SMOOTH",
"474 624 OFFCURVE",
"562 567 OFFCURVE",
"562 401 CURVE SMOOTH",
"562 163 OFFCURVE",
"433 76 OFFCURVE",
"303 76 CURVE SMOOTH",
"153 76 LINE"
);
}
);
width = 695;
},
{
anchors = (
{
name = bottom;
position = "{306, 0}";
},
{
name = center;
position = "{363, 350}";
},
{
name = top;
position = "{363, 700}";
}
);
layerId = "1564F15A-2B4C-4FFD-AA43-969DC22C29FF";
paths = (
{
closed = 1;
nodes = (
"334 290 LINE SMOOTH",
"357 290 OFFCURVE",
"366 307 OFFCURVE",
"371 347 CURVE SMOOTH",
"373 364 LINE SMOOTH",
"378 404 OFFCURVE",
"369 421 OFFCURVE",
"346 421 CURVE SMOOTH",
"59 421 LINE SMOOTH",
"35 421 OFFCURVE",
"25 405 OFFCURVE",
"21 365 CURVE SMOOTH",
"19 347 LINE SMOOTH",
"15 307 OFFCURVE",
"23 290 OFFCURVE",
"47 290 CURVE SMOOTH"
);
},
{
closed = 1;
nodes = (
"315 0 LINE SMOOTH",
"534 0 OFFCURVE",
"675 146 OFFCURVE",
"675 411 CURVE SMOOTH",
"675 598 OFFCURVE",
"575 700 OFFCURVE",
"388 700 CURVE SMOOTH",
"164 700 LINE SMOOTH",
"136 700 OFFCURVE",
"123 688 OFFCURVE",
"120 660 CURVE SMOOTH",
"56 43 LINE SMOOTH",
"53 9 OFFCURVE",
"64 0 OFFCURVE",
"91 0 CURVE SMOOTH"
);
},
{
closed = 1;
nodes = (
"266 569 LINE",
"375 569 LINE SMOOTH",
"469 569 OFFCURVE",
"516 509 OFFCURVE",
"516 397 CURVE SMOOTH",
"516 225 OFFCURVE",
"443 131 OFFCURVE",
"328 131 CURVE SMOOTH",
"219 131 LINE"
);
}
);
width = 695;
}
);
leftKerningGroup = H;
rightKerningGroup = O;
unicode = 0110;
},
{
glyphname = Ddotbelow;
layers = (
{
anchors = (
{
name = bottom;
position = "{275, -155}";
},
{
name = center;
position = "{348, 350}";
},
{
name = top;
position = "{348, 700}";
}
);
layerId = master01;
paths = (
{
closed = 1;
nodes = (
"302 0 LINE SMOOTH",
"481 0 OFFCURVE",
"653 105 OFFCURVE",
"653 415 CURVE SMOOTH",
"653 624 OFFCURVE",
"532 700 OFFCURVE",
"375 700 CURVE SMOOTH",
"160 700 LINE SMOOTH",
"139 700 OFFCURVE",
"129 691 OFFCURVE",
"127 670 CURVE SMOOTH",
"60 24 LINE SMOOTH",
"58 7 OFFCURVE",
"68 0 OFFCURVE",
"87 0 CURVE SMOOTH"
);
},
{
closed = 1;
nodes = (
"210 624 LINE",
"360 624 LINE SMOOTH",
"474 624 OFFCURVE",
"562 567 OFFCURVE",
"562 401 CURVE SMOOTH",
"562 163 OFFCURVE",
"433 76 OFFCURVE",
"303 76 CURVE SMOOTH",
"153 76 LINE"
);
},
{
closed = 1;
nodes = (
"306 -175 OFFCURVE",
"317 -166 OFFCURVE",
"318 -153 CURVE SMOOTH",
"323 -102 LINE SMOOTH",
"324 -92 OFFCURVE",
"320 -80 OFFCURVE",
"283 -80 CURVE SMOOTH",
"239 -80 OFFCURVE",
"237 -97 OFFCURVE",
"237 -102 CURVE SMOOTH",
"232 -153 LINE SMOOTH",
"231 -167 OFFCURVE",
"240 -175 OFFCURVE",
"273 -175 CURVE"
);
}
);
width = 695;
},
{
anchors = (
{
name = bottom;
position = "{287, -185}";
},
{
name = center;
position = "{363, 350}";
},
{
name = top;
position = "{363, 700}";
}
);
layerId = "1564F15A-2B4C-4FFD-AA43-969DC22C29FF";
paths = (
{
closed = 1;
nodes = (
"315 0 LINE SMOOTH",
"534 0 OFFCURVE",
"675 146 OFFCURVE",
"675 411 CURVE SMOOTH",
"675 598 OFFCURVE",
"575 700 OFFCURVE",
"388 700 CURVE SMOOTH",
"164 700 LINE SMOOTH",
"136 700 OFFCURVE",
"123 688 OFFCURVE",
"120 660 CURVE SMOOTH",
"56 43 LINE SMOOTH",
"53 9 OFFCURVE",
"64 0 OFFCURVE",
"91 0 CURVE SMOOTH"
);
},
{
closed = 1;
nodes = (
"266 569 LINE",
"375 569 LINE SMOOTH",
"469 569 OFFCURVE",
"516 509 OFFCURVE",
"516 397 CURVE SMOOTH",
"516 225 OFFCURVE",
"443 131 OFFCURVE",
"328 131 CURVE SMOOTH",
"219 131 LINE"
);
},
{
closed = 1;
nodes = (
"327 -204 OFFCURVE",
"347 -193 OFFCURVE",
"349 -172 CURVE SMOOTH",
"355 -112 LINE SMOOTH",
"356 -101 OFFCURVE",
"355 -80 OFFCURVE",
"297 -80 CURVE SMOOTH",
"255 -80 OFFCURVE",
"235 -91 OFFCURVE",
"233 -112 CURVE SMOOTH",
"227 -172 LINE SMOOTH",
"226 -182 OFFCURVE",
"226 -204 OFFCURVE",
"285 -204 CURVE SMOOTH"
);
}
);
width = 695;
}
);
leftKerningGroup = H;
rightKerningGroup = O;
unicode = 1E0C;
},
{
glyphname = Dz;
layers = (
{
anchors = (
{
name = bottom;
position = "{926, 0}";
},
{
name = center;
position = "{348, 350}";
},
{
name = top;
position = "{970, 523}";
}
);
layerId = master01;
paths = (
{
closed = 1;
nodes = (
"302 0 LINE SMOOTH",
"481 0 OFFCURVE",
"653 105 OFFCURVE",
"653 415 CURVE SMOOTH",
"653 624 OFFCURVE",
"532 700 OFFCURVE",
"375 700 CURVE SMOOTH",
"160 700 LINE SMOOTH",
"139 700 OFFCURVE",
"129 691 OFFCURVE",
"127 670 CURVE SMOOTH",
"60 24 LINE SMOOTH",
"58 7 OFFCURVE",
"68 0 OFFCURVE",
"87 0 CURVE SMOOTH"
);
},
{
closed = 1;
nodes = (
"210 624 LINE",
"360 624 LINE SMOOTH",
"474 624 OFFCURVE",
"562 567 OFFCURVE",
"562 401 CURVE SMOOTH",
"562 163 OFFCURVE",
"433 76 OFFCURVE",
"303 76 CURVE SMOOTH",
"153 76 LINE"
);
},
{
closed = 1;
nodes = (
"1096 0 LINE SMOOTH",
"1109 0 OFFCURVE",
"1117 9 OFFCURVE",
"1118 20 CURVE SMOOTH",
"1121 45 LINE SMOOTH",
"1123 61 OFFCURVE",
"1118 72 OFFCURVE",
"1104 72 CURVE SMOOTH",
"829 72 LINE",
"1157 456 LINE SMOOTH",
"1162 462 OFFCURVE",
"1165 468 OFFCURVE",
"1165 475 CURVE SMOOTH",
"1165 494 OFFCURVE",
"1159 523 OFFCURVE",
"1150 523 CURVE SMOOTH",
"800 523 LINE SMOOTH",
"788 523 OFFCURVE",
"778 514 OFFCURVE",
"777 503 CURVE SMOOTH",
"774 478 LINE SMOOTH",
"772 462 OFFCURVE",
"777 451 OFFCURVE",
"791 451 CURVE SMOOTH",
"1047 451 LINE",
"714 62 LINE SMOOTH",
"710 58 OFFCURVE",
"709 53 OFFCURVE",
"709 46 CURVE SMOOTH",
"709 26 OFFCURVE",
"719 0 OFFCURVE",
"726 0 CURVE SMOOTH"
);
}
);
width = 1184;
},
{
anchors = (
{
name = bottom;
position = "{906, 0}";
},
{
name = center;
position = "{363, 350}";
},
{
name = top;
position = "{970, 523}";
}
);
layerId = "1564F15A-2B4C-4FFD-AA43-969DC22C29FF";
paths = (
{
closed = 1;
nodes = (
"315 0 LINE SMOOTH",
"534 0 OFFCURVE",
"675 146 OFFCURVE",
"675 411 CURVE SMOOTH",
"675 598 OFFCURVE",
"575 700 OFFCURVE",
"388 700 CURVE SMOOTH",
"164 700 LINE SMOOTH",
"136 700 OFFCURVE",
"123 688 OFFCURVE",
"120 660 CURVE SMOOTH",
"56 43 LINE SMOOTH",
"53 9 OFFCURVE",
"64 0 OFFCURVE",
"91 0 CURVE SMOOTH"
);
},
{
closed = 1;
nodes = (
"266 569 LINE",
"375 569 LINE SMOOTH",
"469 569 OFFCURVE",
"516 509 OFFCURVE",
"516 397 CURVE SMOOTH",
"516 225 OFFCURVE",
"443 131 OFFCURVE",
"328 131 CURVE SMOOTH",
"219 131 LINE"
);
},
{
closed = 1;
nodes = (
"1097 0 LINE SMOOTH",
"1113 0 OFFCURVE",
"1127 10 OFFCURVE",
"1132 49 CURVE SMOOTH",
"1133 61 LINE SMOOTH",
"1138 106 OFFCURVE",
"1127 117 OFFCURVE",
"1109 117 CURVE SMOOTH",
"902 117 LINE",
"1159 426 LINE SMOOTH",
"1165 433 OFFCURVE",
"1167 441 OFFCURVE",
"1167 450 CURVE SMOOTH",
"1167 477 OFFCURVE",
"1159 523 OFFCURVE",
"1138 523 CURVE SMOOTH",
"791 523 LINE SMOOTH",
"772 523 OFFCURVE",
"759 508 OFFCURVE",
"755 465 CURVE SMOOTH",
"755 462 LINE SMOOTH",
"751 417 OFFCURVE",
"761 406 OFFCURVE",
"779 406 CURVE SMOOTH",
"967 406 LINE",
"710 97 LINE SMOOTH",
"704 90 OFFCURVE",
"702 82 OFFCURVE",
"702 73 CURVE SMOOTH",
"702 46 OFFCURVE",
"713 0 OFFCURVE",
"732 0 CURVE SMOOTH"
);
}
);
width = 1184;
}
);
leftKerningGroup = H;
rightKerningGroup = z;
unicode = 01F2;
},
{
glyphname = Dzcaron;
layers = (
{
anchors = (
{
name = bottom;
position = "{926, 0}";
},
{
name = center;
position = "{348, 350}";
},
{
name = top;
position = "{988, 700}";
}
);
layerId = master01;
paths = (
{
closed = 1;
nodes = (
"302 0 LINE SMOOTH",
"481 0 OFFCURVE",
"653 105 OFFCURVE",
"653 415 CURVE SMOOTH",
"653 624 OFFCURVE",
"532 700 OFFCURVE",
"375 700 CURVE SMOOTH",
"160 700 LINE SMOOTH",
"139 700 OFFCURVE",
"129 691 OFFCURVE",
"127 670 CURVE SMOOTH",
"60 24 LINE SMOOTH",
"58 7 OFFCURVE",
"68 0 OFFCURVE",
"87 0 CURVE SMOOTH"
);
},
{
closed = 1;
nodes = (
"210 624 LINE",
"360 624 LINE SMOOTH",
"474 624 OFFCURVE",
"562 567 OFFCURVE",
"562 401 CURVE SMOOTH",
"562 163 OFFCURVE",
"433 76 OFFCURVE",
"303 76 CURVE SMOOTH",
"153 76 LINE"
);
},
{
closed = 1;
nodes = (
"1096 0 LINE SMOOTH",
"1109 0 OFFCURVE",
"1117 9 OFFCURVE",
"1118 20 CURVE SMOOTH",
"1121 45 LINE SMOOTH",
"1123 61 OFFCURVE",
"1118 72 OFFCURVE",
"1104 72 CURVE SMOOTH",
"829 72 LINE",
"1157 456 LINE SMOOTH",
"1162 462 OFFCURVE",
"1165 468 OFFCURVE",
"1165 475 CURVE SMOOTH",
"1165 494 OFFCURVE",
"1159 523 OFFCURVE",
"1150 523 CURVE SMOOTH",
"800 523 LINE SMOOTH",
"788 523 OFFCURVE",
"778 514 OFFCURVE",
"777 503 CURVE SMOOTH",
"774 478 LINE SMOOTH",
"772 462 OFFCURVE",
"777 451 OFFCURVE",
"791 451 CURVE SMOOTH",
"1047 451 LINE",
"714 62 LINE SMOOTH",
"710 58 OFFCURVE",
"709 53 OFFCURVE",
"709 46 CURVE SMOOTH",
"709 26 OFFCURVE",
"719 0 OFFCURVE",
"726 0 CURVE SMOOTH"
);
},
{
closed = 1;
nodes = (
"984 576 LINE SMOOTH",
"1026 576 OFFCURVE",
"1037 585 OFFCURVE",
"1048 602 CURVE SMOOTH",
"1096 678 LINE SMOOTH",
"1106 694 OFFCURVE",
"1110 700 OFFCURVE",
"1110 706 CURVE SMOOTH",
"1110 713 OFFCURVE",
"1104 718 OFFCURVE",
"1087 718 CURVE SMOOTH",
"1061 718 OFFCURVE",
"1050 706 OFFCURVE",
"1039 694 CURVE SMOOTH",
"982 633 LINE",
"939 694 LINE SMOOTH",
"931 705 OFFCURVE",
"923 718 OFFCURVE",
"894 718 CURVE SMOOTH",
"876 718 OFFCURVE",
"868 713 OFFCURVE",
"868 703 CURVE SMOOTH",
"868 696 OFFCURVE",
"872 688 OFFCURVE",
"876 678 CURVE SMOOTH",
"908 602 LINE SMOOTH",
"915 585 OFFCURVE",
"927 576 OFFCURVE",
"968 576 CURVE SMOOTH"
);
}
);
width = 1184;
},
{
anchors = (
{
name = bottom;
position = "{906, 0}";
},
{
name = center;
position = "{363, 350}";
},
{
name = top;
position = "{988, 700}";
}
);
layerId = "1564F15A-2B4C-4FFD-AA43-969DC22C29FF";
paths = (
{
closed = 1;
nodes = (
"315 0 LINE SMOOTH",
"534 0 OFFCURVE",
"675 146 OFFCURVE",
"675 411 CURVE SMOOTH",
"675 598 OFFCURVE",
"575 700 OFFCURVE",
"388 700 CURVE SMOOTH",
"164 700 LINE SMOOTH",
"136 700 OFFCURVE",
"123 688 OFFCURVE",
"120 660 CURVE SMOOTH",
"56 43 LINE SMOOTH",
"53 9 OFFCURVE",
"64 0 OFFCURVE",
"91 0 CURVE SMOOTH"
);
},
{
closed = 1;
nodes = (
"266 569 LINE",
"375 569 LINE SMOOTH",
"469 569 OFFCURVE",
"516 509 OFFCURVE",
"516 397 CURVE SMOOTH",
"516 225 OFFCURVE",
"443 131 OFFCURVE",
"328 131 CURVE SMOOTH",
"219 131 LINE"
);
},
{
closed = 1;
nodes = (
"1097 0 LINE SMOOTH",
"1113 0 OFFCURVE",
"1127 10 OFFCURVE",
"1132 49 CURVE SMOOTH",
"1133 61 LINE SMOOTH",
"1138 106 OFFCURVE",
"1127 117 OFFCURVE",
"1109 117 CURVE SMOOTH",
"902 117 LINE",
"1159 426 LINE SMOOTH",
"1165 433 OFFCURVE",
"1167 441 OFFCURVE",
"1167 450 CURVE SMOOTH",
"1167 477 OFFCURVE",
"1159 523 OFFCURVE",
"1138 523 CURVE SMOOTH",
"791 523 LINE SMOOTH",
"772 523 OFFCURVE",
"759 508 OFFCURVE",
"755 465 CURVE SMOOTH",
"755 462 LINE SMOOTH",
"751 417 OFFCURVE",
"761 406 OFFCURVE",
"779 406 CURVE SMOOTH",
"967 406 LINE",
"710 97 LINE SMOOTH",
"704 90 OFFCURVE",
"702 82 OFFCURVE",
"702 73 CURVE SMOOTH",
"702 46 OFFCURVE",
"713 0 OFFCURVE",
"732 0 CURVE SMOOTH"
);
},
{
closed = 1;
nodes = (
"988 572 LINE SMOOTH",
"1036 572 OFFCURVE",
"1046 582 OFFCURVE",
"1057 598 CURVE SMOOTH",
"1109 675 LINE SMOOTH",
"1120 691 OFFCURVE",
"1125 698 OFFCURVE",
"1125 704 CURVE SMOOTH",
"1125 713 OFFCURVE",
"1116 718 OFFCURVE",
"1089 718 CURVE SMOOTH",
"1052 718 OFFCURVE",
"1038 708 OFFCURVE",
"1023 693 CURVE SMOOTH",
"983 654 LINE",
"951 693 LINE SMOOTH",
"939 708 OFFCURVE",
"928 718 OFFCURVE",
"891 718 CURVE SMOOTH",
"864 718 OFFCURVE",
"851 713 OFFCURVE",
"851 702 CURVE SMOOTH",
"851 696 OFFCURVE",
"855 688 OFFCURVE",
"861 675 CURVE SMOOTH",
"897 598 LINE SMOOTH",
"906 578 OFFCURVE",
"920 572 OFFCURVE",
"960 572 CURVE SMOOTH"
);
}
);
width = 1184;
}
);
leftKerningGroup = H;
rightKerningGroup = z;
unicode = 01C5;
},
{
glyphname = E;
layers = (
{
anchors = (
{
name = bottom;
position = "{254, 0}";
},
{
name = ogonek;
position = "{443, 0}";
},
{
name = top;
position = "{320, 700}";
}
);
background = {
paths = (
{
closed = 1;
nodes = (
"352 0 LINE",
"425 0 LINE SMOOTH",
"439 0 OFFCURVE",
"449 9 OFFCURVE",
"451 33 CURVE SMOOTH",
"452 48 LINE SMOOTH",
"453 67 OFFCURVE",
"447 76 OFFCURVE",
"433 76 CURVE SMOOTH",
"359 76 LINE"
);
},
{
closed = 1;
nodes = (
"382 320 LINE",
"425 320 LINE SMOOTH",
"439 320 OFFCURVE",
"449 329 OFFCURVE",
"451 353 CURVE SMOOTH",
"452 368 LINE SMOOTH",
"453 387 OFFCURVE",
"447 396 OFFCURVE",
"433 396 CURVE SMOOTH",
"389 396 LINE"
);
},
{
closed = 1;
nodes = (
"409 624 LINE",
"489 624 LINE SMOOTH",
"503 624 OFFCURVE",
"513 633 OFFCURVE",
"515 657 CURVE SMOOTH",
"516 672 LINE SMOOTH",
"517 691 OFFCURVE",
"511 700 OFFCURVE",
"497 700 CURVE SMOOTH",
"416 700 LINE"
);
},
{
closed = 1;
nodes = (
"416 700 LINE",
"145 700 LINE SMOOTH",
"124 700 OFFCURVE",
"114 691 OFFCURVE",
"112 669 CURVE SMOOTH",
"45 29 LINE SMOOTH",
"43 7 OFFCURVE",
"53 0 OFFCURVE",
"72 0 CURVE SMOOTH",
"352 0 LINE",
"359 76 LINE",
"138 76 LINE",
"163 320 LINE",
"382 320 LINE",
"389 396 LINE",
"171 396 LINE",
"195 624 LINE",
"409 624 LINE"
);
}
);
};
layerId = master01;
paths = (
{
closed = 1;
nodes = (
"425 0 LINE SMOOTH",
"439 0 OFFCURVE",
"449 9 OFFCURVE",
"451 33 CURVE SMOOTH",
"452 48 LINE SMOOTH",
"453 67 OFFCURVE",
"447 76 OFFCURVE",
"433 76 CURVE SMOOTH",
"138 76 LINE",
"163 320 LINE",
"425 320 LINE SMOOTH",
"439 320 OFFCURVE",
"449 329 OFFCURVE",
"451 353 CURVE SMOOTH",
"452 368 LINE SMOOTH",
"453 387 OFFCURVE",
"447 396 OFFCURVE",
"433 396 CURVE SMOOTH",
"171 396 LINE",
"195 624 LINE",
"489 624 LINE SMOOTH",
"503 624 OFFCURVE",
"513 633 OFFCURVE",
"515 657 CURVE SMOOTH",
"516 672 LINE SMOOTH",
"517 691 OFFCURVE",
"511 700 OFFCURVE",
"497 700 CURVE SMOOTH",
"145 700 LINE SMOOTH",
"124 700 OFFCURVE",
"114 691 OFFCURVE",
"112 669 CURVE SMOOTH",
"45 29 LINE SMOOTH",
"43 7 OFFCURVE",
"53 0 OFFCURVE",
"72 0 CURVE SMOOTH"
);
}
);
width = 546;
},
{
anchors = (
{
name = bottom;
position = "{262, 0}";
},
{
name = ogonek;
position = "{473, 0}";
},
{
name = top;
position = "{327, 700}";
}
);
background = {
paths = (
{
closed = 1;
nodes = (
"338 0 LINE",
"442 0 LINE SMOOTH",
"463 0 OFFCURVE",
"477 15 OFFCURVE",
"481 60 CURVE SMOOTH",
"482 71 LINE SMOOTH",
"486 116 OFFCURVE",
"477 131 OFFCURVE",
"456 131 CURVE SMOOTH",
"352 131 LINE"
);
},
{
closed = 1;
nodes = (
"370 293 LINE",
"444 293 LINE SMOOTH",
"465 293 OFFCURVE",
"479 308 OFFCURVE",
"483 353 CURVE SMOOTH",
"484 364 LINE SMOOTH",
"488 409 OFFCURVE",
"479 424 OFFCURVE",
"458 424 CURVE SMOOTH",
"384 424 LINE"
);
},
{
closed = 1;
nodes = (
"399 569 LINE",
"500 569 LINE SMOOTH",
"521 569 OFFCURVE",
"535 584 OFFCURVE",
"539 629 CURVE SMOOTH",
"540 640 LINE SMOOTH",
"544 685 OFFCURVE",
"535 700 OFFCURVE",
"514 700 CURVE SMOOTH",
"413 700 LINE"
);
},
{
closed = 1;
nodes = (
"413 700 LINE",
"149 700 LINE SMOOTH",
"121 700 OFFCURVE",
"108 688 OFFCURVE",
"105 660 CURVE SMOOTH",
"41 37 LINE SMOOTH",
"38 8 OFFCURVE",
"49 0 OFFCURVE",
"76 0 CURVE SMOOTH",
"338 0 LINE",
"352 131 LINE",
"204 131 LINE",
"222 293 LINE",
"370 293 LINE",
"384 424 LINE",
"235 424 LINE",
"251 569 LINE",
"399 569 LINE"
);
}
);
};
layerId = "1564F15A-2B4C-4FFD-AA43-969DC22C29FF";
paths = (
{
closed = 1;
nodes = (
"442 0 LINE SMOOTH",
"463 0 OFFCURVE",
"477 15 OFFCURVE",
"481 60 CURVE SMOOTH",
"482 71 LINE SMOOTH",
"486 116 OFFCURVE",
"477 131 OFFCURVE",
"456 131 CURVE SMOOTH",
"204 131 LINE",
"222 293 LINE",
"444 293 LINE SMOOTH",
"465 293 OFFCURVE",
"479 308 OFFCURVE",
"483 353 CURVE SMOOTH",
"484 364 LINE SMOOTH",
"488 409 OFFCURVE",
"479 424 OFFCURVE",
"458 424 CURVE SMOOTH",
"235 424 LINE",
"251 569 LINE",
"500 569 LINE SMOOTH",
"521 569 OFFCURVE",
"535 584 OFFCURVE",
"539 629 CURVE SMOOTH",
"540 640 LINE SMOOTH",
"544 685 OFFCURVE",
"535 700 OFFCURVE",
"514 700 CURVE SMOOTH",
"149 700 LINE SMOOTH",
"121 700 OFFCURVE",
"108 688 OFFCURVE",
"105 660 CURVE SMOOTH",
"41 37 LINE SMOOTH",
"38 8 OFFCURVE",
"49 0 OFFCURVE",
"76 0 CURVE SMOOTH"
);
}
);
width = 546;
}
);
leftKerningGroup = H;
rightKerningGroup = E;
unicode = 0045;
},
{
glyphname = Eacute;
layers = (
{
anchors = (
{
name = bottom;
position = "{254, 0}";
},
{
name = ogonek;
position = "{443, 0}";
},
{
name = top;
position = "{336, 852}";
}
);
layerId = master01;
paths = (
{
closed = 1;
nodes = (
"425 0 LINE SMOOTH",
"439 0 OFFCURVE",
"449 9 OFFCURVE",
"451 33 CURVE SMOOTH",
"452 48 LINE SMOOTH",
"453 67 OFFCURVE",
"447 76 OFFCURVE",
"433 76 CURVE SMOOTH",
"138 76 LINE",
"163 320 LINE",
"425 320 LINE SMOOTH",
"439 320 OFFCURVE",
"449 329 OFFCURVE",
"451 353 CURVE SMOOTH",
"452 368 LINE SMOOTH",
"453 387 OFFCURVE",
"447 396 OFFCURVE",
"433 396 CURVE SMOOTH",
"171 396 LINE",
"195 624 LINE",
"489 624 LINE SMOOTH",
"503 624 OFFCURVE",
"513 633 OFFCURVE",
"515 657 CURVE SMOOTH",
"516 672 LINE SMOOTH",
"517 691 OFFCURVE",
"511 700 OFFCURVE",
"497 700 CURVE SMOOTH",
"145 700 LINE SMOOTH",
"124 700 OFFCURVE",
"114 691 OFFCURVE",
"112 669 CURVE SMOOTH",
"45 29 LINE SMOOTH",
"43 7 OFFCURVE",
"53 0 OFFCURVE",
"72 0 CURVE SMOOTH"
);
},
{
closed = 1;
nodes = (
"299 752 OFFCURVE",
"311 756 OFFCURVE",
"341 773 CURVE SMOOTH",
"398 806 LINE SMOOTH",
"433 826 OFFCURVE",
"443 835 OFFCURVE",
"443 847 CURVE SMOOTH",
"443 858 OFFCURVE",
"422 864 OFFCURVE",
"391 864 CURVE SMOOTH",
"350 864 OFFCURVE",
"332 859 OFFCURVE",
"313 841 CURVE SMOOTH",
"253 784 LINE SMOOTH",
"247 778 OFFCURVE",
"240 771 OFFCURVE",
"240 764 CURVE SMOOTH",
"240 757 OFFCURVE",
"249 752 OFFCURVE",
"265 752 CURVE SMOOTH"
);
}
);
width = 546;
},
{
anchors = (
{
name = bottom;
position = "{262, 0}";
},
{
name = ogonek;
position = "{473, 0}";
},
{
name = top;
position = "{344, 862}";
}
);
layerId = "1564F15A-2B4C-4FFD-AA43-969DC22C29FF";
paths = (
{
closed = 1;
nodes = (
"442 0 LINE SMOOTH",
"463 0 OFFCURVE",
"477 15 OFFCURVE",
"481 60 CURVE SMOOTH",
"482 71 LINE SMOOTH",
"486 116 OFFCURVE",
"477 131 OFFCURVE",
"456 131 CURVE SMOOTH",
"204 131 LINE",
"222 293 LINE",
"444 293 LINE SMOOTH",
"465 293 OFFCURVE",
"479 308 OFFCURVE",
"483 353 CURVE SMOOTH",
"484 364 LINE SMOOTH",
"488 409 OFFCURVE",
"479 424 OFFCURVE",
"458 424 CURVE SMOOTH",
"235 424 LINE",
"251 569 LINE",
"500 569 LINE SMOOTH",
"521 569 OFFCURVE",
"535 584 OFFCURVE",
"539 629 CURVE SMOOTH",
"540 640 LINE SMOOTH",
"544 685 OFFCURVE",
"535 700 OFFCURVE",
"514 700 CURVE SMOOTH",
"149 700 LINE SMOOTH",
"121 700 OFFCURVE",
"108 688 OFFCURVE",
"105 660 CURVE SMOOTH",
"41 37 LINE SMOOTH",
"38 8 OFFCURVE",
"49 0 OFFCURVE",
"76 0 CURVE SMOOTH"
);
},
{
closed = 1;
nodes = (
"307 749 OFFCURVE",
"322 754 OFFCURVE",
"345 768 CURVE SMOOTH",
"437 824 LINE SMOOTH",
"460 838 OFFCURVE",
"470 850 OFFCURVE",
"470 858 CURVE SMOOTH",
"470 872 OFFCURVE",
"447 875 OFFCURVE",
"401 875 CURVE SMOOTH",
"355 875 OFFCURVE",
"335 868 OFFCURVE",
"312 845 CURVE SMOOTH",
"251 785 LINE SMOOTH",
"241 775 OFFCURVE",
"236 767 OFFCURVE",
"236 761 CURVE SMOOTH",
"236 753 OFFCURVE",
"247 749 OFFCURVE",
"273 749 CURVE SMOOTH"
);
}
);
width = 546;
}
);
leftKerningGroup = H;
rightKerningGroup = E;
unicode = 00C9;
},
{
glyphname = Ebreve;
layers = (
{
anchors = (
{
name = bottom;
position = "{254, 0}";
},
{
name = ogonek;
position = "{443, 0}";
},
{
name = top;
position = "{333, 832}";
}
);
layerId = master01;
paths = (
{
closed = 1;
nodes = (
"425 0 LINE SMOOTH",
"439 0 OFFCURVE",
"449 9 OFFCURVE",
"451 33 CURVE SMOOTH",
"452 48 LINE SMOOTH",
"453 67 OFFCURVE",
"447 76 OFFCURVE",
"433 76 CURVE SMOOTH",
"138 76 LINE",
"163 320 LINE",
"425 320 LINE SMOOTH",
"439 320 OFFCURVE",
"449 329 OFFCURVE",
"451 353 CURVE SMOOTH",
"452 368 LINE SMOOTH",
"453 387 OFFCURVE",
"447 396 OFFCURVE",
"433 396 CURVE SMOOTH",
"171 396 LINE",
"195 624 LINE",
"489 624 LINE SMOOTH",
"503 624 OFFCURVE",
"513 633 OFFCURVE",
"515 657 CURVE SMOOTH",
"516 672 LINE SMOOTH",
"517 691 OFFCURVE",
"511 700 OFFCURVE",
"497 700 CURVE SMOOTH",
"145 700 LINE SMOOTH",
"124 700 OFFCURVE",
"114 691 OFFCURVE",
"112 669 CURVE SMOOTH",
"45 29 LINE SMOOTH",
"43 7 OFFCURVE",
"53 0 OFFCURVE",
"72 0 CURVE SMOOTH"
);
},
{
closed = 1;
nodes = (
"417 744 OFFCURVE",
"486 793 OFFCURVE",
"486 857 CURVE SMOOTH",
"486 870 OFFCURVE",
"481 874 OFFCURVE",
"470 874 CURVE SMOOTH",
"460 874 OFFCURVE",
"453 872 OFFCURVE",
"449 862 CURVE SMOOTH",
"438 837 OFFCURVE",
"413 810 OFFCURVE",
"331 810 CURVE SMOOTH",
"251 810 OFFCURVE",
"229 837 OFFCURVE",
"224 862 CURVE SMOOTH",
"222 872 OFFCURVE",
"216 874 OFFCURVE",
"206 874 CURVE SMOOTH",
"192 874 OFFCURVE",
"185 866 OFFCURVE",
"185 839 CURVE SMOOTH",
"185 778 OFFCURVE",
"249 744 OFFCURVE",
"324 744 CURVE SMOOTH"
);
}
);
width = 546;
},
{
anchors = (
{
name = bottom;
position = "{262, 0}";
},
{
name = ogonek;
position = "{473, 0}";
},
{
name = top;
position = "{341, 842}";
}
);
layerId = "1564F15A-2B4C-4FFD-AA43-969DC22C29FF";
paths = (
{
closed = 1;
nodes = (
"442 0 LINE SMOOTH",
"463 0 OFFCURVE",
"477 15 OFFCURVE",
"481 60 CURVE SMOOTH",
"482 71 LINE SMOOTH",
"486 116 OFFCURVE",
"477 131 OFFCURVE",
"456 131 CURVE SMOOTH",
"204 131 LINE",
"222 293 LINE",
"444 293 LINE SMOOTH",
"465 293 OFFCURVE",
"479 308 OFFCURVE",
"483 353 CURVE SMOOTH",
"484 364 LINE SMOOTH",
"488 409 OFFCURVE",
"479 424 OFFCURVE",
"458 424 CURVE SMOOTH",
"235 424 LINE",
"251 569 LINE",
"500 569 LINE SMOOTH",
"521 569 OFFCURVE",
"535 584 OFFCURVE",
"539 629 CURVE SMOOTH",
"540 640 LINE SMOOTH",
"544 685 OFFCURVE",
"535 700 OFFCURVE",
"514 700 CURVE SMOOTH",
"149 700 LINE SMOOTH",
"121 700 OFFCURVE",
"108 688 OFFCURVE",
"105 660 CURVE SMOOTH",
"41 37 LINE SMOOTH",
"38 8 OFFCURVE",
"49 0 OFFCURVE",
"76 0 CURVE SMOOTH"
);
},
{
closed = 1;
nodes = (
"424 741 OFFCURVE",
"500 797 OFFCURVE",
"500 857 CURVE SMOOTH",
"500 872 OFFCURVE",
"488 881 OFFCURVE",
"467 881 CURVE SMOOTH",
"447 881 OFFCURVE",
"441 874 OFFCURVE",
"431 865 CURVE SMOOTH",
"417 853 OFFCURVE",
"393 832 OFFCURVE",
"350 832 CURVE SMOOTH",
"297 832 OFFCURVE",
"267 849 OFFCURVE",
"254 863 CURVE SMOOTH",
"246 873 OFFCURVE",
"242 881 OFFCURVE",
"223 881 CURVE SMOOTH",
"198 881 OFFCURVE",
"185 869 OFFCURVE",
"185 845 CURVE SMOOTH",
"185 791 OFFCURVE",
"246 741 OFFCURVE",
"341 741 CURVE SMOOTH"
);
}
);
width = 546;
}
);
leftKerningGroup = H;
rightKerningGroup = E;
unicode = 0114;
},
{
glyphname = Ecaron;
layers = (
{
anchors = (
{
name = bottom;
position = "{254, 0}";
},
{
name = ogonek;
position = "{443, 0}";
},
{
name = top;
position = "{335, 842}";
}
);
layerId = master01;
paths = (
{
closed = 1;
nodes = (
"425 0 LINE SMOOTH",
"439 0 OFFCURVE",
"449 9 OFFCURVE",
"451 33 CURVE SMOOTH",
"452 48 LINE SMOOTH",
"453 67 OFFCURVE",
"447 76 OFFCURVE",
"433 76 CURVE SMOOTH",
"138 76 LINE",
"163 320 LINE",
"425 320 LINE SMOOTH",
"439 320 OFFCURVE",
"449 329 OFFCURVE",
"451 353 CURVE SMOOTH",
"452 368 LINE SMOOTH",
"453 387 OFFCURVE",
"447 396 OFFCURVE",
"433 396 CURVE SMOOTH",
"171 396 LINE",
"195 624 LINE",
"489 624 LINE SMOOTH",
"503 624 OFFCURVE",
"513 633 OFFCURVE",
"515 657 CURVE SMOOTH",
"516 672 LINE SMOOTH",
"517 691 OFFCURVE",
"511 700 OFFCURVE",
"497 700 CURVE SMOOTH",
"145 700 LINE SMOOTH",
"124 700 OFFCURVE",
"114 691 OFFCURVE",
"112 669 CURVE SMOOTH",
"45 29 LINE SMOOTH",
"43 7 OFFCURVE",
"53 0 OFFCURVE",
"72 0 CURVE SMOOTH"
);
},
{
closed = 1;
nodes = (
"339 752 LINE SMOOTH",
"370 752 OFFCURVE",
"383 755 OFFCURVE",
"401 775 CURVE SMOOTH",
"448 827 LINE SMOOTH",
"463 844 OFFCURVE",
"466 848 OFFCURVE",
"466 854 CURVE SMOOTH",
"466 860 OFFCURVE",
"460 864 OFFCURVE",
"445 864 CURVE SMOOTH",
"423 864 OFFCURVE",
"414 862 OFFCURVE",
"401 853 CURVE SMOOTH",
"331 807 LINE",
"274 851 LINE SMOOTH",
"261 861 OFFCURVE",
"251 864 OFFCURVE",
"229 864 CURVE SMOOTH",
"214 864 OFFCURVE",
"206 860 OFFCURVE",
"206 851 CURVE SMOOTH",
"206 848 OFFCURVE",
"208 841 OFFCURVE",
"217 829 CURVE SMOOTH",
"255 775 LINE SMOOTH",
"271 752 OFFCURVE",
"284 752 OFFCURVE",
"313 752 CURVE SMOOTH"
);
}
);
width = 546;
},
{
anchors = (
{
name = bottom;
position = "{262, 0}";
},
{
name = ogonek;
position = "{473, 0}";
},
{
name = top;
position = "{345, 877}";
}
);
layerId = "1564F15A-2B4C-4FFD-AA43-969DC22C29FF";
paths = (
{
closed = 1;
nodes = (
"442 0 LINE SMOOTH",
"463 0 OFFCURVE",
"477 15 OFFCURVE",
"481 60 CURVE SMOOTH",
"482 71 LINE SMOOTH",
"486 116 OFFCURVE",
"477 131 OFFCURVE",
"456 131 CURVE SMOOTH",
"204 131 LINE",
"222 293 LINE",
"444 293 LINE SMOOTH",
"465 293 OFFCURVE",
"479 308 OFFCURVE",
"483 353 CURVE SMOOTH",
"484 364 LINE SMOOTH",
"488 409 OFFCURVE",
"479 424 OFFCURVE",
"458 424 CURVE SMOOTH",
"235 424 LINE",
"251 569 LINE",
"500 569 LINE SMOOTH",
"521 569 OFFCURVE",
"535 584 OFFCURVE",
"539 629 CURVE SMOOTH",
"540 640 LINE SMOOTH",
"544 685 OFFCURVE",
"535 700 OFFCURVE",
"514 700 CURVE SMOOTH",
"149 700 LINE SMOOTH",
"121 700 OFFCURVE",
"108 688 OFFCURVE",
"105 660 CURVE SMOOTH",
"41 37 LINE SMOOTH",
"38 8 OFFCURVE",
"49 0 OFFCURVE",
"76 0 CURVE SMOOTH"
);
},
{
closed = 1;
nodes = (
"345 749 LINE SMOOTH",
"389 749 OFFCURVE",
"404 755 OFFCURVE",
"424 778 CURVE SMOOTH",
"479 842 LINE SMOOTH",
"485 849 OFFCURVE",
"490 856 OFFCURVE",
"490 862 CURVE SMOOTH",
"490 871 OFFCURVE",
"480 875 OFFCURVE",
"447 875 CURVE SMOOTH",
"420 875 OFFCURVE",
"401 872 OFFCURVE",
"382 858 CURVE SMOOTH",
"339 826 LINE",
"304 858 LINE SMOOTH",
"288 873 OFFCURVE",
"269 875 OFFCURVE",
"243 875 CURVE SMOOTH",
"209 875 OFFCURVE",
"196 871 OFFCURVE",
"196 860 CURVE SMOOTH",
"196 854 OFFCURVE",
"199 848 OFFCURVE",
"203 842 CURVE SMOOTH",
"245 778 LINE SMOOTH",
"260 755 OFFCURVE",
"274 749 OFFCURVE",
"317 749 CURVE SMOOTH"
);
}
);
width = 546;
}
);
leftKerningGroup = H;
rightKerningGroup = E;
unicode = 011A;
},
{
glyphname = Ecircumflex;
layers = (
{
anchors = (
{
name = bottom;
position = "{254, 0}";
},
{
name = ogonek;
position = "{443, 0}";
},
{
name = top;
position = "{334, 837}";
}
);
layerId = master01;
paths = (
{
closed = 1;
nodes = (
"425 0 LINE SMOOTH",
"439 0 OFFCURVE",
"449 9 OFFCURVE",
"451 33 CURVE SMOOTH",
"452 48 LINE SMOOTH",
"453 67 OFFCURVE",
"447 76 OFFCURVE",
"433 76 CURVE SMOOTH",
"138 76 LINE",
"163 320 LINE",
"425 320 LINE SMOOTH",
"439 320 OFFCURVE",
"449 329 OFFCURVE",
"451 353 CURVE SMOOTH",
"452 368 LINE SMOOTH",
"453 387 OFFCURVE",
"447 396 OFFCURVE",
"433 396 CURVE SMOOTH",
"171 396 LINE",
"195 624 LINE",
"489 624 LINE SMOOTH",
"503 624 OFFCURVE",
"513 633 OFFCURVE",
"515 657 CURVE SMOOTH",
"516 672 LINE SMOOTH",
"517 691 OFFCURVE",
"511 700 OFFCURVE",
"497 700 CURVE SMOOTH",
"145 700 LINE SMOOTH",
"124 700 OFFCURVE",
"114 691 OFFCURVE",
"112 669 CURVE SMOOTH",
"45 29 LINE SMOOTH",
"43 7 OFFCURVE",
"53 0 OFFCURVE",
"72 0 CURVE SMOOTH"
);
},
{
closed = 1;
nodes = (
"227 742 OFFCURVE",
"245 747 OFFCURVE",
"261 757 CURVE SMOOTH",
"330 799 LINE",
"392 755 LINE SMOOTH",
"403 747 OFFCURVE",
"418 742 OFFCURVE",
"432 742 CURVE SMOOTH",
"448 742 OFFCURVE",
"455 747 OFFCURVE",
"455 753 CURVE SMOOTH",
"455 762 OFFCURVE",
"452 767 OFFCURVE",
"442 779 CURVE SMOOTH",
"397 832 LINE SMOOTH",
"383 849 OFFCURVE",
"372 854 OFFCURVE",
"346 854 CURVE SMOOTH",
"325 854 LINE SMOOTH",
"298 854 OFFCURVE",
"286 849 OFFCURVE",
"269 832 CURVE SMOOTH",
"212 777 LINE SMOOTH",
"199 764 OFFCURVE",
"195 758 OFFCURVE",
"195 752 CURVE SMOOTH",
"195 746 OFFCURVE",
"201 742 OFFCURVE",
"213 742 CURVE SMOOTH"
);
}
);
width = 546;
},
{
anchors = (
{
name = bottom;
position = "{262, 0}";
},
{
name = ogonek;
position = "{473, 0}";
},
{
name = top;
position = "{341, 842}";
}
);
layerId = "1564F15A-2B4C-4FFD-AA43-969DC22C29FF";
paths = (
{
closed = 1;
nodes = (
"442 0 LINE SMOOTH",
"463 0 OFFCURVE",
"477 15 OFFCURVE",
"481 60 CURVE SMOOTH",
"482 71 LINE SMOOTH",
"486 116 OFFCURVE",
"477 131 OFFCURVE",
"456 131 CURVE SMOOTH",
"204 131 LINE",
"222 293 LINE",
"444 293 LINE SMOOTH",
"465 293 OFFCURVE",
"479 308 OFFCURVE",
"483 353 CURVE SMOOTH",
"484 364 LINE SMOOTH",
"488 409 OFFCURVE",
"479 424 OFFCURVE",
"458 424 CURVE SMOOTH",
"235 424 LINE",
"251 569 LINE",
"500 569 LINE SMOOTH",
"521 569 OFFCURVE",
"535 584 OFFCURVE",
"539 629 CURVE SMOOTH",
"540 640 LINE SMOOTH",
"544 685 OFFCURVE",
"535 700 OFFCURVE",
"514 700 CURVE SMOOTH",
"149 700 LINE SMOOTH",
"121 700 OFFCURVE",
"108 688 OFFCURVE",
"105 660 CURVE SMOOTH",
"41 37 LINE SMOOTH",
"38 8 OFFCURVE",
"49 0 OFFCURVE",
"76 0 CURVE SMOOTH"
);
},
{
closed = 1;
nodes = (
"250 734 OFFCURVE",
"264 741 OFFCURVE",
"283 751 CURVE SMOOTH",
"335 779 LINE",
"381 751 LINE SMOOTH",
"397 741 OFFCURVE",
"412 734 OFFCURVE",
"445 734 CURVE SMOOTH",
"470 734 OFFCURVE",
"478 738 OFFCURVE",
"478 745 CURVE SMOOTH",
"478 750 OFFCURVE",
"473 757 OFFCURVE",
"460 774 CURVE SMOOTH",
"412 836 LINE SMOOTH",
"397 855 OFFCURVE",
"384 860 OFFCURVE",
"353 860 CURVE SMOOTH",
"333 860 LINE SMOOTH",
"303 860 OFFCURVE",
"289 855 OFFCURVE",
"271 837 CURVE SMOOTH",
"208 774 LINE SMOOTH",
"194 760 OFFCURVE",
"184 749 OFFCURVE",
"184 743 CURVE SMOOTH",
"184 738 OFFCURVE",
"190 734 OFFCURVE",
"216 734 CURVE SMOOTH"
);
}
);
width = 546;
}
);
leftKerningGroup = H;
rightKerningGroup = E;
unicode = 00CA;
},
{
glyphname = Ecircumflexacute;
layers = (
{
anchors = (
{
name = bottom;
position = "{254, 0}";
},
{
name = ogonek;
position = "{443, 0}";
},
{
name = top;
position = "{350, 989}";
}
);
layerId = master01;
paths = (
{
closed = 1;
nodes = (
"425 0 LINE SMOOTH",
"439 0 OFFCURVE",
"449 9 OFFCURVE",
"451 33 CURVE SMOOTH",
"452 48 LINE SMOOTH",
"453 67 OFFCURVE",
"447 76 OFFCURVE",
"433 76 CURVE SMOOTH",
"138 76 LINE",
"163 320 LINE",
"425 320 LINE SMOOTH",
"439 320 OFFCURVE",
"449 329 OFFCURVE",
"451 353 CURVE SMOOTH",
"452 368 LINE SMOOTH",
"453 387 OFFCURVE",
"447 396 OFFCURVE",
"433 396 CURVE SMOOTH",
"171 396 LINE",
"195 624 LINE",
"489 624 LINE SMOOTH",
"503 624 OFFCURVE",
"513 633 OFFCURVE",
"515 657 CURVE SMOOTH",
"516 672 LINE SMOOTH",
"517 691 OFFCURVE",
"511 700 OFFCURVE",
"497 700 CURVE SMOOTH",
"145 700 LINE SMOOTH",
"124 700 OFFCURVE",
"114 691 OFFCURVE",
"112 669 CURVE SMOOTH",
"45 29 LINE SMOOTH",
"43 7 OFFCURVE",
"53 0 OFFCURVE",
"72 0 CURVE SMOOTH"
);
},
{
closed = 1;
nodes = (
"227 742 OFFCURVE",
"245 747 OFFCURVE",
"261 757 CURVE SMOOTH",
"330 799 LINE",
"392 755 LINE SMOOTH",
"403 747 OFFCURVE",
"418 742 OFFCURVE",
"432 742 CURVE SMOOTH",
"448 742 OFFCURVE",
"455 747 OFFCURVE",
"455 753 CURVE SMOOTH",
"455 762 OFFCURVE",
"452 767 OFFCURVE",
"442 779 CURVE SMOOTH",
"397 832 LINE SMOOTH",
"383 849 OFFCURVE",
"372 854 OFFCURVE",
"346 854 CURVE SMOOTH",
"325 854 LINE SMOOTH",
"298 854 OFFCURVE",
"286 849 OFFCURVE",
"269 832 CURVE SMOOTH",
"212 777 LINE SMOOTH",
"199 764 OFFCURVE",
"195 758 OFFCURVE",
"195 752 CURVE SMOOTH",
"195 746 OFFCURVE",
"201 742 OFFCURVE",
"213 742 CURVE SMOOTH"
);
},
{
closed = 1;
nodes = (
"313 889 OFFCURVE",
"325 893 OFFCURVE",
"355 910 CURVE SMOOTH",
"412 943 LINE SMOOTH",
"447 963 OFFCURVE",
"457 972 OFFCURVE",
"457 984 CURVE SMOOTH",
"457 995 OFFCURVE",
"436 1001 OFFCURVE",
"405 1001 CURVE SMOOTH",
"364 1001 OFFCURVE",
"346 996 OFFCURVE",
"327 978 CURVE SMOOTH",
"267 921 LINE SMOOTH",
"261 915 OFFCURVE",
"254 908 OFFCURVE",
"254 901 CURVE SMOOTH",
"254 894 OFFCURVE",
"263 889 OFFCURVE",
"279 889 CURVE SMOOTH"
);
}
);
width = 546;
},
{
anchors = (
{
name = bottom;
position = "{262, 0}";
},
{
name = ogonek;
position = "{473, 0}";
},
{
name = top;
position = "{358, 1004}";
}
);
layerId = "1564F15A-2B4C-4FFD-AA43-969DC22C29FF";
paths = (
{
closed = 1;
nodes = (
"442 0 LINE SMOOTH",
"463 0 OFFCURVE",
"477 15 OFFCURVE",
"481 60 CURVE SMOOTH",
"482 71 LINE SMOOTH",
"486 116 OFFCURVE",
"477 131 OFFCURVE",
"456 131 CURVE SMOOTH",
"204 131 LINE",
"222 293 LINE",
"444 293 LINE SMOOTH",
"465 293 OFFCURVE",
"479 308 OFFCURVE",
"483 353 CURVE SMOOTH",
"484 364 LINE SMOOTH",
"488 409 OFFCURVE",
"479 424 OFFCURVE",
"458 424 CURVE SMOOTH",
"235 424 LINE",
"251 569 LINE",
"500 569 LINE SMOOTH",
"521 569 OFFCURVE",
"535 584 OFFCURVE",
"539 629 CURVE SMOOTH",
"540 640 LINE SMOOTH",
"544 685 OFFCURVE",
"535 700 OFFCURVE",
"514 700 CURVE SMOOTH",
"149 700 LINE SMOOTH",
"121 700 OFFCURVE",
"108 688 OFFCURVE",
"105 660 CURVE SMOOTH",
"41 37 LINE SMOOTH",
"38 8 OFFCURVE",
"49 0 OFFCURVE",
"76 0 CURVE SMOOTH"
);
},
{
closed = 1;
nodes = (
"250 734 OFFCURVE",
"264 741 OFFCURVE",
"283 751 CURVE SMOOTH",
"335 779 LINE",
"381 751 LINE SMOOTH",
"397 741 OFFCURVE",
"412 734 OFFCURVE",
"445 734 CURVE SMOOTH",
"470 734 OFFCURVE",
"478 738 OFFCURVE",
"478 745 CURVE SMOOTH",
"478 750 OFFCURVE",
"473 757 OFFCURVE",
"460 774 CURVE SMOOTH",
"412 836 LINE SMOOTH",
"397 855 OFFCURVE",
"384 860 OFFCURVE",
"353 860 CURVE SMOOTH",
"333 860 LINE SMOOTH",
"303 860 OFFCURVE",
"289 855 OFFCURVE",
"271 837 CURVE SMOOTH",
"208 774 LINE SMOOTH",
"194 760 OFFCURVE",
"184 749 OFFCURVE",
"184 743 CURVE SMOOTH",
"184 738 OFFCURVE",
"190 734 OFFCURVE",
"216 734 CURVE SMOOTH"
);
},
{
closed = 1;
nodes = (
"321 891 OFFCURVE",
"336 896 OFFCURVE",
"359 910 CURVE SMOOTH",
"451 966 LINE SMOOTH",
"474 980 OFFCURVE",
"484 992 OFFCURVE",
"484 1000 CURVE SMOOTH",
"484 1014 OFFCURVE",
"461 1017 OFFCURVE",
"415 1017 CURVE SMOOTH",
"369 1017 OFFCURVE",
"349 1010 OFFCURVE",
"326 987 CURVE SMOOTH",
"265 927 LINE SMOOTH",
"255 917 OFFCURVE",
"250 909 OFFCURVE",
"250 903 CURVE SMOOTH",
"250 895 OFFCURVE",
"261 891 OFFCURVE",
"287 891 CURVE SMOOTH"
);
}
);
width = 546;
}
);
leftKerningGroup = H;
rightKerningGroup = E;
unicode = 1EBE;
},
{
glyphname = Ecircumflexdotbelow;
layers = (
{
anchors = (
{
name = bottom;
position = "{238, -155}";
},
{
name = ogonek;
position = "{443, 0}";
},
{
name = top;
position = "{334, 837}";
}
);
layerId = master01;
paths = (
{
closed = 1;
nodes = (
"425 0 LINE SMOOTH",
"439 0 OFFCURVE",
"449 9 OFFCURVE",
"451 33 CURVE SMOOTH",
"452 48 LINE SMOOTH",
"453 67 OFFCURVE",
"447 76 OFFCURVE",
"433 76 CURVE SMOOTH",
"138 76 LINE",
"163 320 LINE",
"425 320 LINE SMOOTH",
"439 320 OFFCURVE",
"449 329 OFFCURVE",
"451 353 CURVE SMOOTH",
"452 368 LINE SMOOTH",
"453 387 OFFCURVE",
"447 396 OFFCURVE",
"433 396 CURVE SMOOTH",
"171 396 LINE",
"195 624 LINE",
"489 624 LINE SMOOTH",
"503 624 OFFCURVE",
"513 633 OFFCURVE",
"515 657 CURVE SMOOTH",
"516 672 LINE SMOOTH",
"517 691 OFFCURVE",
"511 700 OFFCURVE",
"497 700 CURVE SMOOTH",
"145 700 LINE SMOOTH",
"124 700 OFFCURVE",
"114 691 OFFCURVE",
"112 669 CURVE SMOOTH",
"45 29 LINE SMOOTH",
"43 7 OFFCURVE",
"53 0 OFFCURVE",
"72 0 CURVE SMOOTH"
);
},
{
closed = 1;
nodes = (
"269 -175 OFFCURVE",
"280 -166 OFFCURVE",
"281 -153 CURVE SMOOTH",
"286 -102 LINE SMOOTH",
"287 -92 OFFCURVE",
"283 -80 OFFCURVE",
"246 -80 CURVE SMOOTH",
"202 -80 OFFCURVE",
"200 -97 OFFCURVE",
"200 -102 CURVE SMOOTH",
"195 -153 LINE SMOOTH",
"194 -167 OFFCURVE",
"203 -175 OFFCURVE",
"236 -175 CURVE"
);
},
{
closed = 1;
nodes = (
"227 742 OFFCURVE",
"245 747 OFFCURVE",
"261 757 CURVE SMOOTH",
"330 799 LINE",
"392 755 LINE SMOOTH",
"403 747 OFFCURVE",
"418 742 OFFCURVE",
"432 742 CURVE SMOOTH",
"448 742 OFFCURVE",
"455 747 OFFCURVE",
"455 753 CURVE SMOOTH",
"455 762 OFFCURVE",
"452 767 OFFCURVE",
"442 779 CURVE SMOOTH",
"397 832 LINE SMOOTH",
"383 849 OFFCURVE",
"372 854 OFFCURVE",
"346 854 CURVE SMOOTH",
"325 854 LINE SMOOTH",
"298 854 OFFCURVE",
"286 849 OFFCURVE",
"269 832 CURVE SMOOTH",
"212 777 LINE SMOOTH",
"199 764 OFFCURVE",
"195 758 OFFCURVE",
"195 752 CURVE SMOOTH",
"195 746 OFFCURVE",
"201 742 OFFCURVE",
"213 742 CURVE SMOOTH"
);
}
);
width = 546;
},
{
anchors = (
{
name = bottom;
position = "{243, -185}";
},
{
name = ogonek;
position = "{473, 0}";
},
{
name = top;
position = "{341, 842}";
}
);
layerId = "1564F15A-2B4C-4FFD-AA43-969DC22C29FF";
paths = (
{
closed = 1;
nodes = (
"442 0 LINE SMOOTH",
"463 0 OFFCURVE",
"477 15 OFFCURVE",
"481 60 CURVE SMOOTH",
"482 71 LINE SMOOTH",
"486 116 OFFCURVE",
"477 131 OFFCURVE",
"456 131 CURVE SMOOTH",
"204 131 LINE",
"222 293 LINE",
"444 293 LINE SMOOTH",
"465 293 OFFCURVE",
"479 308 OFFCURVE",
"483 353 CURVE SMOOTH",
"484 364 LINE SMOOTH",
"488 409 OFFCURVE",
"479 424 OFFCURVE",
"458 424 CURVE SMOOTH",
"235 424 LINE",
"251 569 LINE",
"500 569 LINE SMOOTH",
"521 569 OFFCURVE",
"535 584 OFFCURVE",
"539 629 CURVE SMOOTH",
"540 640 LINE SMOOTH",
"544 685 OFFCURVE",
"535 700 OFFCURVE",
"514 700 CURVE SMOOTH",
"149 700 LINE SMOOTH",
"121 700 OFFCURVE",
"108 688 OFFCURVE",
"105 660 CURVE SMOOTH",
"41 37 LINE SMOOTH",
"38 8 OFFCURVE",
"49 0 OFFCURVE",
"76 0 CURVE SMOOTH"
);
},
{
closed = 1;
nodes = (
"283 -204 OFFCURVE",
"303 -193 OFFCURVE",
"305 -172 CURVE SMOOTH",
"311 -112 LINE SMOOTH",
"312 -101 OFFCURVE",
"311 -80 OFFCURVE",
"253 -80 CURVE SMOOTH",
"211 -80 OFFCURVE",
"191 -91 OFFCURVE",
"189 -112 CURVE SMOOTH",
"183 -172 LINE SMOOTH",
"182 -182 OFFCURVE",
"182 -204 OFFCURVE",
"241 -204 CURVE SMOOTH"
);
},
{
closed = 1;
nodes = (
"250 734 OFFCURVE",
"264 741 OFFCURVE",
"283 751 CURVE SMOOTH",
"335 779 LINE",
"381 751 LINE SMOOTH",
"397 741 OFFCURVE",
"412 734 OFFCURVE",
"445 734 CURVE SMOOTH",
"470 734 OFFCURVE",
"478 738 OFFCURVE",
"478 745 CURVE SMOOTH",
"478 750 OFFCURVE",
"473 757 OFFCURVE",
"460 774 CURVE SMOOTH",
"412 836 LINE SMOOTH",
"397 855 OFFCURVE",
"384 860 OFFCURVE",
"353 860 CURVE SMOOTH",
"333 860 LINE SMOOTH",
"303 860 OFFCURVE",
"289 855 OFFCURVE",
"271 837 CURVE SMOOTH",
"208 774 LINE SMOOTH",
"194 760 OFFCURVE",
"184 749 OFFCURVE",
"184 743 CURVE SMOOTH",
"184 738 OFFCURVE",
"190 734 OFFCURVE",
"216 734 CURVE SMOOTH"
);
}
);
width = 546;
}
);
leftKerningGroup = H;
rightKerningGroup = E;
unicode = 1EC6;
},
{
glyphname = Ecircumflexgrave;
layers = (
{
anchors = (
{
name = bottom;
position = "{254, 0}";
},
{
name = ogonek;
position = "{443, 0}";
},
{
name = top;
position = "{350, 989}";
}
);
layerId = master01;
paths = (
{
closed = 1;
nodes = (
"425 0 LINE SMOOTH",
"439 0 OFFCURVE",
"449 9 OFFCURVE",
"451 33 CURVE SMOOTH",
"452 48 LINE SMOOTH",
"453 67 OFFCURVE",
"447 76 OFFCURVE",
"433 76 CURVE SMOOTH",
"138 76 LINE",
"163 320 LINE",
"425 320 LINE SMOOTH",
"439 320 OFFCURVE",
"449 329 OFFCURVE",
"451 353 CURVE SMOOTH",
"452 368 LINE SMOOTH",
"453 387 OFFCURVE",
"447 396 OFFCURVE",
"433 396 CURVE SMOOTH",
"171 396 LINE",
"195 624 LINE",
"489 624 LINE SMOOTH",
"503 624 OFFCURVE",
"513 633 OFFCURVE",
"515 657 CURVE SMOOTH",
"516 672 LINE SMOOTH",
"517 691 OFFCURVE",
"511 700 OFFCURVE",
"497 700 CURVE SMOOTH",
"145 700 LINE SMOOTH",
"124 700 OFFCURVE",
"114 691 OFFCURVE",
"112 669 CURVE SMOOTH",
"45 29 LINE SMOOTH",
"43 7 OFFCURVE",
"53 0 OFFCURVE",
"72 0 CURVE SMOOTH"
);
},
{
closed = 1;
nodes = (
"227 742 OFFCURVE",
"245 747 OFFCURVE",
"261 757 CURVE SMOOTH",
"330 799 LINE",
"392 755 LINE SMOOTH",
"403 747 OFFCURVE",
"418 742 OFFCURVE",
"432 742 CURVE SMOOTH",
"448 742 OFFCURVE",
"455 747 OFFCURVE",
"455 753 CURVE SMOOTH",
"455 762 OFFCURVE",
"452 767 OFFCURVE",
"442 779 CURVE SMOOTH",
"397 832 LINE SMOOTH",
"383 849 OFFCURVE",
"372 854 OFFCURVE",
"346 854 CURVE SMOOTH",
"325 854 LINE SMOOTH",
"298 854 OFFCURVE",
"286 849 OFFCURVE",
"269 832 CURVE SMOOTH",
"212 777 LINE SMOOTH",
"199 764 OFFCURVE",
"195 758 OFFCURVE",
"195 752 CURVE SMOOTH",
"195 746 OFFCURVE",
"201 742 OFFCURVE",
"213 742 CURVE SMOOTH"
);
},
{
closed = 1;
nodes = (
"406 889 OFFCURVE",
"418 894 OFFCURVE",
"418 903 CURVE SMOOTH",
"418 909 OFFCURVE",
"415 914 OFFCURVE",
"409 921 CURVE SMOOTH",
"371 966 LINE SMOOTH",
"346 996 OFFCURVE",
"330 1001 OFFCURVE",
"287 1001 CURVE SMOOTH",
"252 1001 OFFCURVE",
"232 994 OFFCURVE",
"232 980 CURVE SMOOTH",
"232 971 OFFCURVE",
"237 963 OFFCURVE",
"268 943 CURVE SMOOTH",
"319 910 LINE SMOOTH",
"345 893 OFFCURVE",
"358 889 OFFCURVE",
"390 889 CURVE SMOOTH"
);
}
);
width = 546;
},
{
anchors = (
{
name = bottom;
position = "{262, 0}";
},
{
name = ogonek;
position = "{473, 0}";
},
{
name = top;
position = "{358, 1004}";
}
);
layerId = "1564F15A-2B4C-4FFD-AA43-969DC22C29FF";
paths = (
{
closed = 1;
nodes = (
"442 0 LINE SMOOTH",
"463 0 OFFCURVE",
"477 15 OFFCURVE",
"481 60 CURVE SMOOTH",
"482 71 LINE SMOOTH",
"486 116 OFFCURVE",
"477 131 OFFCURVE",
"456 131 CURVE SMOOTH",
"204 131 LINE",
"222 293 LINE",
"444 293 LINE SMOOTH",
"465 293 OFFCURVE",
"479 308 OFFCURVE",
"483 353 CURVE SMOOTH",
"484 364 LINE SMOOTH",
"488 409 OFFCURVE",
"479 424 OFFCURVE",
"458 424 CURVE SMOOTH",
"235 424 LINE",
"251 569 LINE",
"500 569 LINE SMOOTH",
"521 569 OFFCURVE",
"535 584 OFFCURVE",
"539 629 CURVE SMOOTH",
"540 640 LINE SMOOTH",
"544 685 OFFCURVE",
"535 700 OFFCURVE",
"514 700 CURVE SMOOTH",
"149 700 LINE SMOOTH",
"121 700 OFFCURVE",
"108 688 OFFCURVE",
"105 660 CURVE SMOOTH",
"41 37 LINE SMOOTH",
"38 8 OFFCURVE",
"49 0 OFFCURVE",
"76 0 CURVE SMOOTH"
);
},
{
closed = 1;
nodes = (
"250 734 OFFCURVE",
"264 741 OFFCURVE",
"283 751 CURVE SMOOTH",
"335 779 LINE",
"381 751 LINE SMOOTH",
"397 741 OFFCURVE",
"412 734 OFFCURVE",
"445 734 CURVE SMOOTH",
"470 734 OFFCURVE",
"478 738 OFFCURVE",
"478 745 CURVE SMOOTH",
"478 750 OFFCURVE",
"473 757 OFFCURVE",
"460 774 CURVE SMOOTH",
"412 836 LINE SMOOTH",
"397 855 OFFCURVE",
"384 860 OFFCURVE",
"353 860 CURVE SMOOTH",
"333 860 LINE SMOOTH",
"303 860 OFFCURVE",
"289 855 OFFCURVE",
"271 837 CURVE SMOOTH",
"208 774 LINE SMOOTH",
"194 760 OFFCURVE",
"184 749 OFFCURVE",
"184 743 CURVE SMOOTH",
"184 738 OFFCURVE",
"190 734 OFFCURVE",
"216 734 CURVE SMOOTH"
);
},
{
closed = 1;
nodes = (
"426 891 OFFCURVE",
"439 895 OFFCURVE",
"439 905 CURVE SMOOTH",
"439 910 OFFCURVE",
"437 917 OFFCURVE",
"429 927 CURVE SMOOTH",
"381 987 LINE SMOOTH",
"363 1010 OFFCURVE",
"345 1017 OFFCURVE",
"298 1017 CURVE SMOOTH",
"251 1017 OFFCURVE",
"225 1014 OFFCURVE",
"225 998 CURVE SMOOTH",
"225 990 OFFCURVE",
"232 980 OFFCURVE",
"251 967 CURVE SMOOTH",
"332 910 LINE SMOOTH",
"352 896 OFFCURVE",
"365 891 OFFCURVE",
"400 891 CURVE SMOOTH"
);
}
);
width = 546;
}
);
leftKerningGroup = H;
rightKerningGroup = E;
unicode = 1EC0;
},
{
glyphname = Ecircumflexhookabove;
layers = (
{
anchors = (
{
name = bottom;
position = "{254, 0}";
},
{
name = ogonek;
position = "{443, 0}";
},
{
name = top;
position = "{355, 1034}";
}
);
layerId = master01;
paths = (
{
closed = 1;
nodes = (
"425 0 LINE SMOOTH",
"439 0 OFFCURVE",
"449 9 OFFCURVE",
"451 33 CURVE SMOOTH",
"452 48 LINE SMOOTH",
"453 67 OFFCURVE",
"447 76 OFFCURVE",
"433 76 CURVE SMOOTH",
"138 76 LINE",
"163 320 LINE",
"425 320 LINE SMOOTH",
"439 320 OFFCURVE",
"449 329 OFFCURVE",
"451 353 CURVE SMOOTH",
"452 368 LINE SMOOTH",
"453 387 OFFCURVE",
"447 396 OFFCURVE",
"433 396 CURVE SMOOTH",
"171 396 LINE",
"195 624 LINE",
"489 624 LINE SMOOTH",
"503 624 OFFCURVE",
"513 633 OFFCURVE",
"515 657 CURVE SMOOTH",
"516 672 LINE SMOOTH",
"517 691 OFFCURVE",
"511 700 OFFCURVE",
"497 700 CURVE SMOOTH",
"145 700 LINE SMOOTH",
"124 700 OFFCURVE",
"114 691 OFFCURVE",
"112 669 CURVE SMOOTH",
"45 29 LINE SMOOTH",
"43 7 OFFCURVE",
"53 0 OFFCURVE",
"72 0 CURVE SMOOTH"
);
},
{
closed = 1;
nodes = (
"227 742 OFFCURVE",
"245 747 OFFCURVE",
"261 757 CURVE SMOOTH",
"330 799 LINE",
"392 755 LINE SMOOTH",
"403 747 OFFCURVE",
"418 742 OFFCURVE",
"432 742 CURVE SMOOTH",
"448 742 OFFCURVE",
"455 747 OFFCURVE",
"455 753 CURVE SMOOTH",
"455 762 OFFCURVE",
"452 767 OFFCURVE",
"442 779 CURVE SMOOTH",
"397 832 LINE SMOOTH",
"383 849 OFFCURVE",
"372 854 OFFCURVE",
"346 854 CURVE SMOOTH",
"325 854 LINE SMOOTH",
"298 854 OFFCURVE",
"286 849 OFFCURVE",
"269 832 CURVE SMOOTH",
"212 777 LINE SMOOTH",
"199 764 OFFCURVE",
"195 758 OFFCURVE",
"195 752 CURVE SMOOTH",
"195 746 OFFCURVE",
"201 742 OFFCURVE",
"213 742 CURVE SMOOTH"
);
},
{
closed = 1;
nodes = (
"341 875 OFFCURVE",
"444 912 OFFCURVE",
"444 976 CURVE SMOOTH",
"444 1014 OFFCURVE",
"407 1042 OFFCURVE",
"351 1042 CURVE SMOOTH",
"309 1042 OFFCURVE",
"247 1026 OFFCURVE",
"247 1006 CURVE SMOOTH",
"247 999 OFFCURVE",
"256 978 OFFCURVE",
"272 978 CURVE SMOOTH",
"284 978 OFFCURVE",
"309 991 OFFCURVE",
"338 991 CURVE SMOOTH",
"363 991 OFFCURVE",
"379 982 OFFCURVE",
"379 967 CURVE SMOOTH",
"379 931 OFFCURVE",
"285 922 OFFCURVE",
"285 906 CURVE SMOOTH",
"285 899 OFFCURVE",
"302 875 OFFCURVE",
"319 875 CURVE SMOOTH"
);
}
);
width = 546;
},
{
anchors = (
{
name = bottom;
position = "{262, 0}";
},
{
name = ogonek;
position = "{473, 0}";
},
{
name = top;
position = "{360, 1039}";
}
);
layerId = "1564F15A-2B4C-4FFD-AA43-969DC22C29FF";
paths = (
{
closed = 1;
nodes = (
"442 0 LINE SMOOTH",
"463 0 OFFCURVE",
"477 15 OFFCURVE",
"481 60 CURVE SMOOTH",
"482 71 LINE SMOOTH",
"486 116 OFFCURVE",
"477 131 OFFCURVE",
"456 131 CURVE SMOOTH",
"204 131 LINE",
"222 293 LINE",
"444 293 LINE SMOOTH",
"465 293 OFFCURVE",
"479 308 OFFCURVE",
"483 353 CURVE SMOOTH",
"484 364 LINE SMOOTH",
"488 409 OFFCURVE",
"479 424 OFFCURVE",
"458 424 CURVE SMOOTH",
"235 424 LINE",
"251 569 LINE",
"500 569 LINE SMOOTH",
"521 569 OFFCURVE",
"535 584 OFFCURVE",
"539 629 CURVE SMOOTH",
"540 640 LINE SMOOTH",
"544 685 OFFCURVE",
"535 700 OFFCURVE",
"514 700 CURVE SMOOTH",
"149 700 LINE SMOOTH",
"121 700 OFFCURVE",
"108 688 OFFCURVE",
"105 660 CURVE SMOOTH",
"41 37 LINE SMOOTH",
"38 8 OFFCURVE",
"49 0 OFFCURVE",
"76 0 CURVE SMOOTH"
);
},
{
closed = 1;
nodes = (
"250 734 OFFCURVE",
"264 741 OFFCURVE",
"283 751 CURVE SMOOTH",
"335 779 LINE",
"381 751 LINE SMOOTH",
"397 741 OFFCURVE",
"412 734 OFFCURVE",
"445 734 CURVE SMOOTH",
"470 734 OFFCURVE",
"478 738 OFFCURVE",
"478 745 CURVE SMOOTH",
"478 750 OFFCURVE",
"473 757 OFFCURVE",
"460 774 CURVE SMOOTH",
"412 836 LINE SMOOTH",
"397 855 OFFCURVE",
"384 860 OFFCURVE",
"353 860 CURVE SMOOTH",
"333 860 LINE SMOOTH",
"303 860 OFFCURVE",
"289 855 OFFCURVE",
"271 837 CURVE SMOOTH",
"208 774 LINE SMOOTH",
"194 760 OFFCURVE",
"184 749 OFFCURVE",
"184 743 CURVE SMOOTH",
"184 738 OFFCURVE",
"190 734 OFFCURVE",
"216 734 CURVE SMOOTH"
);
},
{
closed = 1;
nodes = (
"355 879 OFFCURVE",
"456 917 OFFCURVE",
"456 985 CURVE SMOOTH",
"456 1027 OFFCURVE",
"417 1055 OFFCURVE",
"351 1055 CURVE SMOOTH",
"301 1055 OFFCURVE",
"249 1039 OFFCURVE",
"249 1017 CURVE SMOOTH",
"249 1008 OFFCURVE",
"259 982 OFFCURVE",
"278 982 CURVE SMOOTH",
"289 982 OFFCURVE",
"316 992 OFFCURVE",
"342 992 CURVE SMOOTH",
"358 992 OFFCURVE",
"372 988 OFFCURVE",
"372 972 CURVE SMOOTH",
"372 933 OFFCURVE",
"287 926 OFFCURVE",
"287 907 CURVE SMOOTH",
"287 896 OFFCURVE",
"313 879 OFFCURVE",
"330 879 CURVE SMOOTH"
);
}
);
width = 546;
}
);
leftKerningGroup = H;
rightKerningGroup = E;
unicode = 1EC2;
},
{
glyphname = Ecircumflextilde;
layers = (
{
anchors = (
{
name = bottom;
position = "{254, 0}";
},
{
name = ogonek;
position = "{443, 0}";
},
{
name = top;
position = "{348, 974}";
}
);
layerId = master01;
paths = (
{
closed = 1;
nodes = (
"425 0 LINE SMOOTH",
"439 0 OFFCURVE",
"449 9 OFFCURVE",
"451 33 CURVE SMOOTH",
"452 48 LINE SMOOTH",
"453 67 OFFCURVE",
"447 76 OFFCURVE",
"433 76 CURVE SMOOTH",
"138 76 LINE",
"163 320 LINE",
"425 320 LINE SMOOTH",
"439 320 OFFCURVE",
"449 329 OFFCURVE",
"451 353 CURVE SMOOTH",
"452 368 LINE SMOOTH",
"453 387 OFFCURVE",
"447 396 OFFCURVE",
"433 396 CURVE SMOOTH",
"171 396 LINE",
"195 624 LINE",
"489 624 LINE SMOOTH",
"503 624 OFFCURVE",
"513 633 OFFCURVE",
"515 657 CURVE SMOOTH",
"516 672 LINE SMOOTH",
"517 691 OFFCURVE",
"511 700 OFFCURVE",
"497 700 CURVE SMOOTH",
"145 700 LINE SMOOTH",
"124 700 OFFCURVE",
"114 691 OFFCURVE",
"112 669 CURVE SMOOTH",
"45 29 LINE SMOOTH",
"43 7 OFFCURVE",
"53 0 OFFCURVE",
"72 0 CURVE SMOOTH"
);
},
{
closed = 1;
nodes = (
"227 742 OFFCURVE",
"245 747 OFFCURVE",
"261 757 CURVE SMOOTH",
"330 799 LINE",
"392 755 LINE SMOOTH",
"403 747 OFFCURVE",
"418 742 OFFCURVE",
"432 742 CURVE SMOOTH",
"448 742 OFFCURVE",
"455 747 OFFCURVE",
"455 753 CURVE SMOOTH",
"455 762 OFFCURVE",
"452 767 OFFCURVE",
"442 779 CURVE SMOOTH",
"397 832 LINE SMOOTH",
"383 849 OFFCURVE",
"372 854 OFFCURVE",
"346 854 CURVE SMOOTH",
"325 854 LINE SMOOTH",
"298 854 OFFCURVE",
"286 849 OFFCURVE",
"269 832 CURVE SMOOTH",
"212 777 LINE SMOOTH",
"199 764 OFFCURVE",
"195 758 OFFCURVE",
"195 752 CURVE SMOOTH",
"195 746 OFFCURVE",
"201 742 OFFCURVE",
"213 742 CURVE SMOOTH"
);
},
{
closed = 1;
nodes = (
"467 893 OFFCURVE",
"503 917 OFFCURVE",
"525 964 CURVE SMOOTH",
"529 972 OFFCURVE",
"530 977 OFFCURVE",
"530 979 CURVE SMOOTH",
"530 987 OFFCURVE",
"513 998 OFFCURVE",
"504 998 CURVE SMOOTH",
"489 998 OFFCURVE",
"475 955 OFFCURVE",
"428 955 CURVE SMOOTH",
"386 955 OFFCURVE",
"323 998 OFFCURVE",
"265 998 CURVE SMOOTH",
"218 998 OFFCURVE",
"183 971 OFFCURVE",
"165 930 CURVE SMOOTH",
"161 921 OFFCURVE",
"160 916 OFFCURVE",
"160 914 CURVE SMOOTH",
"160 904 OFFCURVE",
"178 895 OFFCURVE",
"188 895 CURVE SMOOTH",
"205 895 OFFCURVE",
"216 934 OFFCURVE",
"259 934 CURVE SMOOTH",
"300 934 OFFCURVE",
"359 893 OFFCURVE",
"421 893 CURVE SMOOTH"
);
}
);
width = 546;
},
{
anchors = (
{
name = bottom;
position = "{262, 0}";
},
{
name = ogonek;
position = "{473, 0}";
},
{
name = top;
position = "{356, 989}";
}
);
layerId = "1564F15A-2B4C-4FFD-AA43-969DC22C29FF";
paths = (
{
closed = 1;
nodes = (
"442 0 LINE SMOOTH",
"463 0 OFFCURVE",
"477 15 OFFCURVE",
"481 60 CURVE SMOOTH",
"482 71 LINE SMOOTH",
"486 116 OFFCURVE",
"477 131 OFFCURVE",
"456 131 CURVE SMOOTH",
"204 131 LINE",
"222 293 LINE",
"444 293 LINE SMOOTH",
"465 293 OFFCURVE",
"479 308 OFFCURVE",
"483 353 CURVE SMOOTH",
"484 364 LINE SMOOTH",
"488 409 OFFCURVE",
"479 424 OFFCURVE",
"458 424 CURVE SMOOTH",
"235 424 LINE",
"251 569 LINE",
"500 569 LINE SMOOTH",
"521 569 OFFCURVE",
"535 584 OFFCURVE",
"539 629 CURVE SMOOTH",
"540 640 LINE SMOOTH",
"544 685 OFFCURVE",
"535 700 OFFCURVE",
"514 700 CURVE SMOOTH",
"149 700 LINE SMOOTH",
"121 700 OFFCURVE",
"108 688 OFFCURVE",
"105 660 CURVE SMOOTH",
"41 37 LINE SMOOTH",
"38 8 OFFCURVE",
"49 0 OFFCURVE",
"76 0 CURVE SMOOTH"
);
},
{
closed = 1;
nodes = (
"250 734 OFFCURVE",
"264 741 OFFCURVE",
"283 751 CURVE SMOOTH",
"335 779 LINE",
"381 751 LINE SMOOTH",
"397 741 OFFCURVE",
"412 734 OFFCURVE",
"445 734 CURVE SMOOTH",
"470 734 OFFCURVE",
"478 738 OFFCURVE",
"478 745 CURVE SMOOTH",
"478 750 OFFCURVE",
"473 757 OFFCURVE",
"460 774 CURVE SMOOTH",
"412 836 LINE SMOOTH",
"397 855 OFFCURVE",
"384 860 OFFCURVE",
"353 860 CURVE SMOOTH",
"333 860 LINE SMOOTH",
"303 860 OFFCURVE",
"289 855 OFFCURVE",
"271 837 CURVE SMOOTH",
"208 774 LINE SMOOTH",
"194 760 OFFCURVE",
"184 749 OFFCURVE",
"184 743 CURVE SMOOTH",
"184 738 OFFCURVE",
"190 734 OFFCURVE",
"216 734 CURVE SMOOTH"
);
},
{
closed = 1;
nodes = (
"468 893 OFFCURVE",
"514 931 OFFCURVE",
"530 967 CURVE SMOOTH",
"533 974 OFFCURVE",
"535 980 OFFCURVE",
"535 986 CURVE SMOOTH",
"535 1001 OFFCURVE",
"502 1014 OFFCURVE",
"491 1014 CURVE SMOOTH",
"474 1014 OFFCURVE",
"462 981 OFFCURVE",
"423 981 CURVE SMOOTH",
"386 981 OFFCURVE",
"348 1015 OFFCURVE",
"287 1015 CURVE SMOOTH",
"231 1015 OFFCURVE",
"187 977 OFFCURVE",
"173 941 CURVE SMOOTH",
"171 936 OFFCURVE",
"169 930 OFFCURVE",
"169 921 CURVE SMOOTH",
"169 908 OFFCURVE",
"196 894 OFFCURVE",
"214 894 CURVE SMOOTH",
"233 894 OFFCURVE",
"242 927 OFFCURVE",
"285 927 CURVE SMOOTH",
"312 927 OFFCURVE",
"357 893 OFFCURVE",
"416 893 CURVE SMOOTH"
);
}
);
width = 546;
}
);
leftKerningGroup = H;
rightKerningGroup = E;
unicode = 1EC4;
},
{
glyphname = Edblgrave;
layers = (
{
anchors = (
{
name = bottom;
position = "{254, 0}";
},
{
name = ogonek;
position = "{443, 0}";
},
{
name = top;
position = "{335, 852}";
}
);
layerId = master01;
paths = (
{
closed = 1;
nodes = (
"425 0 LINE SMOOTH",
"439 0 OFFCURVE",
"449 9 OFFCURVE",
"451 33 CURVE SMOOTH",
"452 48 LINE SMOOTH",
"453 67 OFFCURVE",
"447 76 OFFCURVE",
"433 76 CURVE SMOOTH",
"138 76 LINE",
"163 320 LINE",
"425 320 LINE SMOOTH",
"439 320 OFFCURVE",
"449 329 OFFCURVE",
"451 353 CURVE SMOOTH",
"452 368 LINE SMOOTH",
"453 387 OFFCURVE",
"447 396 OFFCURVE",
"433 396 CURVE SMOOTH",
"171 396 LINE",
"195 624 LINE",
"489 624 LINE SMOOTH",
"503 624 OFFCURVE",
"513 633 OFFCURVE",
"515 657 CURVE SMOOTH",
"516 672 LINE SMOOTH",
"517 691 OFFCURVE",
"511 700 OFFCURVE",
"497 700 CURVE SMOOTH",
"145 700 LINE SMOOTH",
"124 700 OFFCURVE",
"114 691 OFFCURVE",
"112 669 CURVE SMOOTH",
"45 29 LINE SMOOTH",
"43 7 OFFCURVE",
"53 0 OFFCURVE",
"72 0 CURVE SMOOTH"
);
},
{
closed = 1;
nodes = (
"306 752 OFFCURVE",
"318 757 OFFCURVE",
"318 766 CURVE SMOOTH",
"318 772 OFFCURVE",
"315 777 OFFCURVE",
"309 784 CURVE SMOOTH",
"271 829 LINE SMOOTH",
"246 859 OFFCURVE",
"230 864 OFFCURVE",
"187 864 CURVE SMOOTH",
"152 864 OFFCURVE",
"132 857 OFFCURVE",
"132 843 CURVE SMOOTH",
"132 834 OFFCURVE",
"137 826 OFFCURVE",
"168 806 CURVE SMOOTH",
"219 773 LINE SMOOTH",
"245 756 OFFCURVE",
"258 752 OFFCURVE",
"290 752 CURVE SMOOTH"
);
},
{
closed = 1;
nodes = (
"466 752 OFFCURVE",
"478 757 OFFCURVE",
"478 766 CURVE SMOOTH",
"478 772 OFFCURVE",
"475 777 OFFCURVE",
"469 784 CURVE SMOOTH",
"431 829 LINE SMOOTH",
"406 859 OFFCURVE",
"390 864 OFFCURVE",
"347 864 CURVE SMOOTH",
"312 864 OFFCURVE",
"292 857 OFFCURVE",
"292 843 CURVE SMOOTH",
"292 834 OFFCURVE",
"297 826 OFFCURVE",
"328 806 CURVE SMOOTH",
"379 773 LINE SMOOTH",
"405 756 OFFCURVE",
"418 752 OFFCURVE",
"450 752 CURVE SMOOTH"
);
}
);
width = 546;
},
{
anchors = (
{
name = bottom;
position = "{262, 0}";
},
{
name = ogonek;
position = "{473, 0}";
},
{
name = top;
position = "{344, 862}";
}
);
layerId = "1564F15A-2B4C-4FFD-AA43-969DC22C29FF";
paths = (
{
closed = 1;
nodes = (
"442 0 LINE SMOOTH",
"463 0 OFFCURVE",
"477 15 OFFCURVE",
"481 60 CURVE SMOOTH",
"482 71 LINE SMOOTH",
"486 116 OFFCURVE",
"477 131 OFFCURVE",
"456 131 CURVE SMOOTH",
"204 131 LINE",
"222 293 LINE",
"444 293 LINE SMOOTH",
"465 293 OFFCURVE",
"479 308 OFFCURVE",
"483 353 CURVE SMOOTH",
"484 364 LINE SMOOTH",
"488 409 OFFCURVE",
"479 424 OFFCURVE",
"458 424 CURVE SMOOTH",
"235 424 LINE",
"251 569 LINE",
"500 569 LINE SMOOTH",
"521 569 OFFCURVE",
"535 584 OFFCURVE",
"539 629 CURVE SMOOTH",
"540 640 LINE SMOOTH",
"544 685 OFFCURVE",
"535 700 OFFCURVE",
"514 700 CURVE SMOOTH",
"149 700 LINE SMOOTH",
"121 700 OFFCURVE",
"108 688 OFFCURVE",
"105 660 CURVE SMOOTH",
"41 37 LINE SMOOTH",
"38 8 OFFCURVE",
"49 0 OFFCURVE",
"76 0 CURVE SMOOTH"
);
},
{
closed = 1;
nodes = (
"292 749 OFFCURVE",
"305 753 OFFCURVE",
"305 763 CURVE SMOOTH",
"305 768 OFFCURVE",
"303 775 OFFCURVE",
"295 785 CURVE SMOOTH",
"247 845 LINE SMOOTH",
"229 868 OFFCURVE",
"211 875 OFFCURVE",
"164 875 CURVE SMOOTH",
"117 875 OFFCURVE",
"91 872 OFFCURVE",
"91 856 CURVE SMOOTH",
"91 848 OFFCURVE",
"98 838 OFFCURVE",
"117 825 CURVE SMOOTH",
"198 768 LINE SMOOTH",
"218 754 OFFCURVE",
"231 749 OFFCURVE",
"266 749 CURVE SMOOTH"
);
},
{
closed = 1;
nodes = (
"472 749 OFFCURVE",
"485 753 OFFCURVE",
"485 763 CURVE SMOOTH",
"485 768 OFFCURVE",
"483 775 OFFCURVE",
"475 785 CURVE SMOOTH",
"427 845 LINE SMOOTH",
"409 868 OFFCURVE",
"391 875 OFFCURVE",
"344 875 CURVE SMOOTH",
"297 875 OFFCURVE",
"271 872 OFFCURVE",
"271 856 CURVE SMOOTH",
"271 848 OFFCURVE",
"278 838 OFFCURVE",
"297 825 CURVE SMOOTH",
"378 768 LINE SMOOTH",
"398 754 OFFCURVE",
"411 749 OFFCURVE",
"446 749 CURVE SMOOTH"
);
}
);
width = 546;
}
);
leftKerningGroup = H;
rightKerningGroup = E;
unicode = 0204;
},
